<mxfile host="app.diagrams.net" modified="2024-04-07T16:01:36.288Z" agent="Mozilla/5.0 (Windows NT 10.0; Win64; x64) AppleWebKit/537.36 (KHTML, like Gecko) Chrome/123.0.0.0 Safari/537.36" etag="WXgGLx3Sg09DUn-QZd2V" version="22.1.17" type="device">
  <diagram name="Page-1" id="qAcYN7i-lVHv9N6F_awO">
    <mxGraphModel dx="1434" dy="2027" grid="1" gridSize="10" guides="1" tooltips="1" connect="1" arrows="1" fold="1" page="1" pageScale="1" pageWidth="827" pageHeight="1169" math="0" shadow="0">
      <root>
        <mxCell id="0" />
        <mxCell id="1" parent="0" />
        <mxCell id="Y1mZi5_KREuWDVKwzotL-61" value="" style="rounded=1;whiteSpace=wrap;html=1;strokeColor=#3A5431;align=center;verticalAlign=middle;fontFamily=Helvetica;fontSize=12;fontColor=#ffffff;fillColor=#6d8764;" vertex="1" parent="1">
          <mxGeometry x="375" y="-90" width="230" height="480" as="geometry" />
        </mxCell>
        <mxCell id="Y1mZi5_KREuWDVKwzotL-1" value="Client" style="rounded=1;whiteSpace=wrap;html=1;fillColor=#1ba1e2;strokeColor=#006EAF;fontColor=#ffffff;" vertex="1" parent="1">
          <mxGeometry x="20" y="30" width="70" height="250" as="geometry" />
        </mxCell>
        <mxCell id="Y1mZi5_KREuWDVKwzotL-2" value="API&lt;br&gt;Gateway" style="rounded=1;whiteSpace=wrap;html=1;fillColor=#60a917;strokeColor=#2D7600;fontColor=#ffffff;" vertex="1" parent="1">
          <mxGeometry x="170" y="20" width="120" height="270" as="geometry" />
        </mxCell>
        <mxCell id="Y1mZi5_KREuWDVKwzotL-3" value="" style="endArrow=classic;html=1;rounded=0;exitX=1;exitY=0.5;exitDx=0;exitDy=0;entryX=0;entryY=0.5;entryDx=0;entryDy=0;" edge="1" parent="1" source="Y1mZi5_KREuWDVKwzotL-1" target="Y1mZi5_KREuWDVKwzotL-2">
          <mxGeometry width="50" height="50" relative="1" as="geometry">
            <mxPoint x="390" y="470" as="sourcePoint" />
            <mxPoint x="440" y="420" as="targetPoint" />
          </mxGeometry>
        </mxCell>
        <mxCell id="Y1mZi5_KREuWDVKwzotL-4" value="External&amp;nbsp;&lt;br&gt;Configuration&lt;br&gt;&lt;br&gt;&lt;i&gt;[Spring Cloud&lt;br&gt;Config Server]&lt;/i&gt;" style="rounded=1;whiteSpace=wrap;html=1;fillColor=#e3c800;fontColor=#000000;strokeColor=#B09500;" vertex="1" parent="1">
          <mxGeometry x="170" y="368" width="120" height="110" as="geometry" />
        </mxCell>
        <mxCell id="Y1mZi5_KREuWDVKwzotL-5" value="" style="endArrow=classic;html=1;rounded=0;entryX=0.5;entryY=1;entryDx=0;entryDy=0;" edge="1" parent="1" source="Y1mZi5_KREuWDVKwzotL-4" target="Y1mZi5_KREuWDVKwzotL-2">
          <mxGeometry width="50" height="50" relative="1" as="geometry">
            <mxPoint x="390" y="470" as="sourcePoint" />
            <mxPoint x="440" y="420" as="targetPoint" />
          </mxGeometry>
        </mxCell>
        <mxCell id="Y1mZi5_KREuWDVKwzotL-44" value="" style="group" vertex="1" connectable="0" parent="1">
          <mxGeometry x="170" y="720" width="770" height="630" as="geometry" />
        </mxCell>
        <mxCell id="Y1mZi5_KREuWDVKwzotL-6" value="Client&lt;br&gt;-------&lt;br&gt;Web&lt;br&gt;Mobile&lt;br&gt;PC&lt;br&gt;" style="rounded=1;whiteSpace=wrap;html=1;fillColor=#1ba1e2;fontColor=#ffffff;strokeColor=#006EAF;movable=1;resizable=1;rotatable=1;deletable=1;editable=1;locked=0;connectable=1;" vertex="1" parent="Y1mZi5_KREuWDVKwzotL-44">
          <mxGeometry y="66" width="70" height="250" as="geometry" />
        </mxCell>
        <mxCell id="Y1mZi5_KREuWDVKwzotL-7" value="" style="rounded=1;whiteSpace=wrap;html=1;fillColor=#60a917;strokeColor=#2D7600;fontColor=#ffffff;movable=1;resizable=1;rotatable=1;deletable=1;editable=1;locked=0;connectable=1;" vertex="1" parent="Y1mZi5_KREuWDVKwzotL-44">
          <mxGeometry x="110" width="660" height="400" as="geometry" />
        </mxCell>
        <mxCell id="Y1mZi5_KREuWDVKwzotL-8" value="" style="endArrow=classic;html=1;rounded=0;exitX=1.029;exitY=0.536;exitDx=0;exitDy=0;exitPerimeter=0;entryX=0;entryY=0.5;entryDx=0;entryDy=0;" edge="1" parent="Y1mZi5_KREuWDVKwzotL-44" source="Y1mZi5_KREuWDVKwzotL-6" target="Y1mZi5_KREuWDVKwzotL-7">
          <mxGeometry width="50" height="50" relative="1" as="geometry">
            <mxPoint x="380" y="-10" as="sourcePoint" />
            <mxPoint x="430" y="-60" as="targetPoint" />
          </mxGeometry>
        </mxCell>
        <mxCell id="Y1mZi5_KREuWDVKwzotL-9" value="Allow/Deny List" style="rounded=0;whiteSpace=wrap;html=1;fillColor=#6d8764;fontColor=#ffffff;strokeColor=#3A5431;" vertex="1" parent="Y1mZi5_KREuWDVKwzotL-44">
          <mxGeometry x="370" y="60" width="120" height="60" as="geometry" />
        </mxCell>
        <mxCell id="Y1mZi5_KREuWDVKwzotL-10" value="&lt;font style=&quot;font-size: 18px;&quot;&gt;API Gateway&lt;/font&gt;" style="text;html=1;strokeColor=none;fillColor=none;align=center;verticalAlign=middle;whiteSpace=wrap;rounded=0;" vertex="1" parent="Y1mZi5_KREuWDVKwzotL-44">
          <mxGeometry x="404" y="10" width="110" height="30" as="geometry" />
        </mxCell>
        <mxCell id="Y1mZi5_KREuWDVKwzotL-11" value="Authentication and&amp;nbsp; Authorization" style="rounded=0;whiteSpace=wrap;html=1;fillColor=#6d8764;fontColor=#ffffff;strokeColor=#3A5431;" vertex="1" parent="Y1mZi5_KREuWDVKwzotL-44">
          <mxGeometry x="560" y="60" width="120" height="60" as="geometry" />
        </mxCell>
        <mxCell id="Y1mZi5_KREuWDVKwzotL-12" value="Service Discovery&lt;br&gt;(Eureka/ Zookeeper)" style="rounded=0;whiteSpace=wrap;html=1;fillColor=#6d8764;fontColor=#ffffff;strokeColor=#3A5431;" vertex="1" parent="Y1mZi5_KREuWDVKwzotL-44">
          <mxGeometry x="170" y="144" width="120" height="60" as="geometry" />
        </mxCell>
        <mxCell id="Y1mZi5_KREuWDVKwzotL-13" value="Dynamic Routing" style="rounded=0;whiteSpace=wrap;html=1;fillColor=#6d8764;fontColor=#ffffff;strokeColor=#3A5431;" vertex="1" parent="Y1mZi5_KREuWDVKwzotL-44">
          <mxGeometry x="370" y="144" width="120" height="60" as="geometry" />
        </mxCell>
        <mxCell id="Y1mZi5_KREuWDVKwzotL-14" value="Rate Limit" style="rounded=0;whiteSpace=wrap;html=1;fillColor=#6d8764;fontColor=#ffffff;strokeColor=#3A5431;" vertex="1" parent="Y1mZi5_KREuWDVKwzotL-44">
          <mxGeometry x="560" y="144" width="120" height="60" as="geometry" />
        </mxCell>
        <mxCell id="Y1mZi5_KREuWDVKwzotL-15" value="Protocol Conversion" style="rounded=0;whiteSpace=wrap;html=1;fillColor=#6d8764;fontColor=#ffffff;strokeColor=#3A5431;" vertex="1" parent="Y1mZi5_KREuWDVKwzotL-44">
          <mxGeometry x="170" y="330" width="120" height="60" as="geometry" />
        </mxCell>
        <mxCell id="Y1mZi5_KREuWDVKwzotL-16" value="Error Handling" style="rounded=0;whiteSpace=wrap;html=1;fillColor=#a20025;fontColor=#ffffff;strokeColor=#6F0000;" vertex="1" parent="Y1mZi5_KREuWDVKwzotL-44">
          <mxGeometry x="380" y="230" width="120" height="60" as="geometry" />
        </mxCell>
        <mxCell id="Y1mZi5_KREuWDVKwzotL-17" value="Circuit Break" style="rounded=0;whiteSpace=wrap;html=1;fillColor=#a20025;fontColor=#ffffff;strokeColor=#6F0000;" vertex="1" parent="Y1mZi5_KREuWDVKwzotL-44">
          <mxGeometry x="520" y="230" width="120" height="60" as="geometry" />
        </mxCell>
        <mxCell id="Y1mZi5_KREuWDVKwzotL-18" value="Logging Monitoring" style="rounded=0;whiteSpace=wrap;html=1;fillColor=#a20025;fontColor=#ffffff;strokeColor=#6F0000;" vertex="1" parent="Y1mZi5_KREuWDVKwzotL-44">
          <mxGeometry x="380" y="306" width="120" height="60" as="geometry" />
        </mxCell>
        <mxCell id="Y1mZi5_KREuWDVKwzotL-19" value="Cache" style="rounded=0;whiteSpace=wrap;html=1;fillColor=#a20025;fontColor=#ffffff;strokeColor=#6F0000;" vertex="1" parent="Y1mZi5_KREuWDVKwzotL-44">
          <mxGeometry x="520" y="300" width="120" height="60" as="geometry" />
        </mxCell>
        <mxCell id="Y1mZi5_KREuWDVKwzotL-20" value="" style="endArrow=classic;html=1;rounded=0;exitX=1;exitY=0.5;exitDx=0;exitDy=0;entryX=0;entryY=0.5;entryDx=0;entryDy=0;" edge="1" parent="Y1mZi5_KREuWDVKwzotL-44" source="Y1mZi5_KREuWDVKwzotL-9" target="Y1mZi5_KREuWDVKwzotL-11">
          <mxGeometry width="50" height="50" relative="1" as="geometry">
            <mxPoint x="380" y="180" as="sourcePoint" />
            <mxPoint x="430" y="130" as="targetPoint" />
          </mxGeometry>
        </mxCell>
        <mxCell id="Y1mZi5_KREuWDVKwzotL-26" value="Parameter&amp;nbsp;&lt;br&gt;Validation" style="rounded=0;whiteSpace=wrap;html=1;fillColor=#6d8764;fontColor=#ffffff;strokeColor=#3A5431;" vertex="1" parent="Y1mZi5_KREuWDVKwzotL-44">
          <mxGeometry x="170" y="60" width="120" height="60" as="geometry" />
        </mxCell>
        <mxCell id="Y1mZi5_KREuWDVKwzotL-27" value="" style="endArrow=classic;html=1;rounded=0;entryX=0;entryY=0.5;entryDx=0;entryDy=0;" edge="1" parent="Y1mZi5_KREuWDVKwzotL-44" source="Y1mZi5_KREuWDVKwzotL-26" target="Y1mZi5_KREuWDVKwzotL-9">
          <mxGeometry width="50" height="50" relative="1" as="geometry">
            <mxPoint x="380" y="180" as="sourcePoint" />
            <mxPoint x="430" y="130" as="targetPoint" />
          </mxGeometry>
        </mxCell>
        <mxCell id="Y1mZi5_KREuWDVKwzotL-28" value="" style="endArrow=classic;html=1;rounded=0;entryX=0.5;entryY=0;entryDx=0;entryDy=0;exitX=0.5;exitY=1;exitDx=0;exitDy=0;" edge="1" parent="Y1mZi5_KREuWDVKwzotL-44" source="Y1mZi5_KREuWDVKwzotL-11" target="Y1mZi5_KREuWDVKwzotL-14">
          <mxGeometry width="50" height="50" relative="1" as="geometry">
            <mxPoint x="380" y="180" as="sourcePoint" />
            <mxPoint x="430" y="130" as="targetPoint" />
          </mxGeometry>
        </mxCell>
        <mxCell id="Y1mZi5_KREuWDVKwzotL-30" value="" style="endArrow=classic;html=1;rounded=0;exitX=0;exitY=0.5;exitDx=0;exitDy=0;entryX=1;entryY=0.5;entryDx=0;entryDy=0;" edge="1" parent="Y1mZi5_KREuWDVKwzotL-44" source="Y1mZi5_KREuWDVKwzotL-14" target="Y1mZi5_KREuWDVKwzotL-13">
          <mxGeometry width="50" height="50" relative="1" as="geometry">
            <mxPoint x="380" y="180" as="sourcePoint" />
            <mxPoint x="430" y="130" as="targetPoint" />
          </mxGeometry>
        </mxCell>
        <mxCell id="Y1mZi5_KREuWDVKwzotL-32" value="" style="endArrow=classic;html=1;rounded=0;entryX=1;entryY=0.5;entryDx=0;entryDy=0;exitX=0;exitY=0.5;exitDx=0;exitDy=0;" edge="1" parent="Y1mZi5_KREuWDVKwzotL-44" source="Y1mZi5_KREuWDVKwzotL-13" target="Y1mZi5_KREuWDVKwzotL-12">
          <mxGeometry width="50" height="50" relative="1" as="geometry">
            <mxPoint x="370" y="180" as="sourcePoint" />
            <mxPoint x="430" y="130" as="targetPoint" />
          </mxGeometry>
        </mxCell>
        <mxCell id="Y1mZi5_KREuWDVKwzotL-34" value="" style="endArrow=classic;html=1;rounded=0;exitX=0.5;exitY=1;exitDx=0;exitDy=0;" edge="1" parent="Y1mZi5_KREuWDVKwzotL-44" source="Y1mZi5_KREuWDVKwzotL-12">
          <mxGeometry width="50" height="50" relative="1" as="geometry">
            <mxPoint x="40" y="314" as="sourcePoint" />
            <mxPoint x="230" y="240" as="targetPoint" />
          </mxGeometry>
        </mxCell>
        <mxCell id="Y1mZi5_KREuWDVKwzotL-37" value="&lt;font style=&quot;font-size: 18px;&quot;&gt;Microservices&lt;/font&gt;" style="rounded=1;whiteSpace=wrap;html=1;fillColor=#647687;fontColor=#ffffff;strokeColor=#314354;" vertex="1" parent="Y1mZi5_KREuWDVKwzotL-44">
          <mxGeometry x="162" y="490" width="140" height="140" as="geometry" />
        </mxCell>
        <mxCell id="Y1mZi5_KREuWDVKwzotL-38" value="" style="endArrow=classic;html=1;rounded=0;fontFamily=Helvetica;fontSize=12;fontColor=#ffffff;exitX=0.5;exitY=1;exitDx=0;exitDy=0;strokeWidth=4;" edge="1" parent="Y1mZi5_KREuWDVKwzotL-44" source="Y1mZi5_KREuWDVKwzotL-15" target="Y1mZi5_KREuWDVKwzotL-37">
          <mxGeometry width="50" height="50" relative="1" as="geometry">
            <mxPoint x="380" y="380" as="sourcePoint" />
            <mxPoint x="430" y="330" as="targetPoint" />
          </mxGeometry>
        </mxCell>
        <mxCell id="Y1mZi5_KREuWDVKwzotL-39" value="Elastic" style="rounded=1;whiteSpace=wrap;html=1;align=center;verticalAlign=middle;fontFamily=Helvetica;fontSize=12;fillColor=#6d8764;fontColor=#ffffff;strokeColor=#3A5431;" vertex="1" parent="Y1mZi5_KREuWDVKwzotL-44">
          <mxGeometry x="382" y="420" width="120" height="60" as="geometry" />
        </mxCell>
        <mxCell id="Y1mZi5_KREuWDVKwzotL-40" value="redis" style="rounded=1;whiteSpace=wrap;html=1;align=center;verticalAlign=middle;fontFamily=Helvetica;fontSize=12;fillColor=#6d8764;fontColor=#ffffff;strokeColor=#3A5431;" vertex="1" parent="Y1mZi5_KREuWDVKwzotL-44">
          <mxGeometry x="521" y="420" width="120" height="60" as="geometry" />
        </mxCell>
        <mxCell id="Y1mZi5_KREuWDVKwzotL-42" value="" style="endArrow=classic;html=1;rounded=0;fontFamily=Helvetica;fontSize=12;fontColor=#ffffff;" edge="1" parent="Y1mZi5_KREuWDVKwzotL-44" source="Y1mZi5_KREuWDVKwzotL-18" target="Y1mZi5_KREuWDVKwzotL-39">
          <mxGeometry width="50" height="50" relative="1" as="geometry">
            <mxPoint x="380" y="350" as="sourcePoint" />
            <mxPoint x="430" y="300" as="targetPoint" />
          </mxGeometry>
        </mxCell>
        <mxCell id="Y1mZi5_KREuWDVKwzotL-43" value="" style="endArrow=classic;html=1;rounded=0;fontFamily=Helvetica;fontSize=12;fontColor=#ffffff;entryX=0.5;entryY=0;entryDx=0;entryDy=0;" edge="1" parent="Y1mZi5_KREuWDVKwzotL-44" source="Y1mZi5_KREuWDVKwzotL-19" target="Y1mZi5_KREuWDVKwzotL-40">
          <mxGeometry width="50" height="50" relative="1" as="geometry">
            <mxPoint x="380" y="350" as="sourcePoint" />
            <mxPoint x="430" y="300" as="targetPoint" />
          </mxGeometry>
        </mxCell>
        <mxCell id="Y1mZi5_KREuWDVKwzotL-62" value="Load Balancer" style="rounded=0;whiteSpace=wrap;html=1;fillColor=#6d8764;fontColor=#ffffff;strokeColor=#3A5431;" vertex="1" parent="Y1mZi5_KREuWDVKwzotL-44">
          <mxGeometry x="172" y="240" width="120" height="60" as="geometry" />
        </mxCell>
        <mxCell id="Y1mZi5_KREuWDVKwzotL-63" value="" style="endArrow=classic;html=1;rounded=0;fontFamily=Helvetica;fontSize=12;fontColor=#ffffff;exitX=0.5;exitY=1;exitDx=0;exitDy=0;" edge="1" parent="Y1mZi5_KREuWDVKwzotL-44" source="Y1mZi5_KREuWDVKwzotL-62" target="Y1mZi5_KREuWDVKwzotL-15">
          <mxGeometry width="50" height="50" relative="1" as="geometry">
            <mxPoint x="220" y="190" as="sourcePoint" />
            <mxPoint x="270" y="140" as="targetPoint" />
          </mxGeometry>
        </mxCell>
        <mxCell id="Y1mZi5_KREuWDVKwzotL-109" value="" style="shape=image;verticalLabelPosition=bottom;labelBackgroundColor=default;verticalAlign=top;aspect=fixed;imageAspect=0;image=data:image/png,iVBORw0KGgoAAAANSUhEUgAAARMAAAC3CAMAAAAGjUrGAAABDlBMVEX////u7u7t7e2kHSHYLSb19fX+/v7z8/P6+vrx8fH8/Pzv7+/aLSZ4FBTYLCeiHSGeAADZ2dng4ODn5+fIyMjCwsK3t7fMjpGhBg7c3NzS0tLx4OHPz8/UKyebm5uhoaGJGBiuICG4IyOxsbHXJR7LKSWVlZXXHhfEJyTWDwDmhX366ujHKCW1IyPtp6PXGA3dV1LfaGH33Nr1z83cT0afAAqgEhf21NDgX1zvsazywr/leXLonZTdVUzcOzLbRD3nko7tubHolpDqjITsqqR8FBPckpKxEBCVHRrkc2vlfXjkf2/GcHDiura1Q0TVmpnGg4LFV1DXnpS9ZmapLS+1UVDdsK3Oop+/Xl6xOTkMEB3gAAAV70lEQVR4nO1dC3vaONa2DTbGuAZsoIFAUoJTQkjqhKS5tUmatLOzzbbT7nanM/v//8h3jmSDbcnChJvTL3pmZ7QtQtLrc3nPObKQJNJKMjTFIP0C6eukr2NfLpC+oWC/RAeQvqKRfjE0QCV9lQ4mHyqSvkYHPInZpCexymdM1j3bMyYrwkRWQ4OXjsnCZ/ObrGDzx5G+P470g3HYZH+VpNF+MTRAJX01NDhYZWhAxmeTSthkDRugiH2d9FXSV0lfx36pKJFPkb5M+lKR9A3+AHgE2DdCgyX5CcxWkuQ0Yrkaw5CR2eRkTJTHrFLWQwNmWWWGZnvG5BmTdJjMatKlWU26No8DWc9sBjatUMSma9hXSV+N9w2d9Iukr9G+cLA/oED6RnhwtmejoAtMOkqTMg+zVGZxINmYbRom8qyqGl/lM7d/xuTXxiR9TDBeJf4ff5XLi0DWMptUIE3XDfhHZfoq6etM3/8QO1hNGAwf0rkDMjibmLOtzoFkaLZnHvvM7Z8xmS/eSW/SZ45Aog7kScxGLLSukhbuq0yf8yHxgLkGr3E2KRDLRzEGyRfLNIwhNCDjs40xialqtpjlM7df92zPmKTDRAmNS0URQwNmJ6Sgx/5gTVVKcmkqJvPNlmJvkpqBpquyY1errVarWrWdoqpPH7LMFuVsS38E7AM3JKPg2O1aG9BQFMduVlvtplOaqgTLE+b18thSqaiUnGoVMAiSoPj5Vq3WbioLny3t3taJSaEkO9V2q+momhRthtOqte2C9v8KEzKd0mzXatUi6evnbx4uTk9PL/YvR3R6UKKmEqj2ijFRiN1PERPIoZhgvMq0EYhcCg/G2QpOu9ZyqL+5etfx+q5rmq7b73un74cSiogKZte2laK8gNlm2BvQX9/yrzZwKTjVVtWmizrZ73tu3sznrTw203L7g+tLlW4QdUtZdZgkzfgIFnAiRCuAEa3Sxze6vxn080xzvf7DCcqKpjrNql1ySMzyqNkesbcAk7iqLo1Z4iZ9nRleHnl9k0UEWgdgub0fkmmLdrVWdeTSL8ntS0VHBhvh+Drzrt93uYD4zex7F1fUAiN/aTrke34lTOSiYrdqoAdkzPA96EzH37vLlxWwMK5nfhjRTYK+Ee+ckXhnrggkMOkOeN62TT6k3x2HdMa83Xc9FBhiY+Ff7kR8LBCWwRE1uNQ765FtJc2Wnv5yMaEG16+EkCKHX/1g+v6Hwv3wAHawXzrBsr1it9uBWf3Y8SI60x+pl9cD17RMYl0H158+hM0uCsv+OfHOBbsFnLconi261Jn3hnk2aqFnLLHNwhg0xakCWaefUi9PByAiZmTPR4jUh7zngru5uATDeh3GzAKs+oNbKixgWYD46jM5x9nLh3KSYVgQjzUUtI9krHby4EVFhLbBFfnbq+PjO+JpzgfsZ1zPI94ZHRdQuWKxWJpRwVPvbcncXgt73ve3A741dU9xerIEPJ0pveMwFjAt7uD2PfXO4L1a6J2fVLyjEs9bUojnJd99dQye18p32L2iZpxIE1CkgscDDnQIvfPxFZ3AJrHzKjCJO5CZMAmbdGBYdqsNMk4977054OgMaX3v5n6kTSJjTboCi5PknUFYOlRYNIida03indVHOUcBJpyjYkb85FfiUbEiO8DAc846xLxt3/Oqd0ewSYvdHvyZ61n7KCNGCBNN2gTC71J9YYXFArE6vqPfbGPqRfWXxy6Vdwwuzd78lcghCz1nvIMiUm0GbPV8P88zq9g6ZufdlREoTaQZJ+88z+Lg6AuLd/NxRJcEwtJSQktNLB/OsDeJowRyWAlmVdWSU23DMslXDS9vE3UGH/r+3cn5UJW4Tb+7Foy0+t41FRbwzm3inRf+XsaiMKFaTheGz9pFI5pgHFB1vMHAc28vPn98f2kEzscYDs+vPn14OIob5IngwFeaQGb2af6piN5ZVuVSFjEBz9tuOVRE3ghFJNwwleT2B58IJMPPRzcuAIU5psiHQNXMmDYB7z/9NMRRBno44p2Xicmsrr9UUpVJzIueN5QlQi5qkq27mE3DvUVkB/dq9kl27TOIlpWPbh5GdHZyr17twLdE/gIlrf+ZOHLinVtOaREJUvreSvBqjBR604X8jf+mC+knvhoDlLJIEmd+zHvvxswq8IqBe3N7enF0cXF0epsHKcjHYAHD+RnFxGMUDfTkoJsr5169ePEit2vGNdF0Bzc+lbPbtWoh8bWf1HvTFnMiRHOaTZpK1K8uBv3IdgGQ2/27USg5bwxP3hzHccubSPHv4xTWtEBEyuVcjmDy4sWrnU4cFeKdr3DVhlN15ol3gr3JMSUYU1FZxGsiYqnp4HqJbI4+WPGt9vPUbcabenUco/rmjWHchOBEhcrvdgkgY0xevPitfBBTIZN453vUPadlFwVGL9XeFsLt1WYVP6ddATmLcQrXuw98bcBV6X/xX6MLL/Jx7/4q/AfEigSITDDhCwuIY/8evrpam+4cVxHvNKtID96AiMQQMc2bkcTjZMEfvo+ENpZ5Y5ljEbH2uhNAophA++dBPs6NzcExwFBXMoBJyW7BEk7yrHWEZ8dVm1D7GLUfwVdYKCK5MCJxTEBYup34jIOhVKzbpfW/0yRX24Z0ziXw4EqmtBE3BjaJiEQhYTB58eog7oK8TanYsOXFvEGVKiZIeoVKqWusv6CYPPD1JmiaNuTnBTo75XIMkhgmv+UYKTE7lU1JrRV5D26mvfltHh7r1CXpH31OEAvcYSiCBAB7w8USdChuTaKY/HPPYqyJeZAbY7J2bo+YvPzd4oHiXg8nDofT7vhiQmHZPcyFpWWMyW9d9DpxSDqH5axhstHd5YR6lpu/CvxO1Bfjf9SHZEjoPsPC8moiIozWmKhsucxhUi4fMqQBnqY5OL3kZwNGH/p8xQm8j4n0f3cnF+Js6GtMKx4KooyQDy0Wk3luVaCYgOv0UWFom3fx5jxiWPTh1QdS00hoVjgrQCwLbPm3F0hg2XAIdCwQphAmnAAk9d7mv8OhWK1RTBCV7gEnW2K5fc89PX63j+3h88Vpp+/14/zO36ELnx14N+G/pCFPdyceNNK/O+hOTA5i0rCL67/DIYQJopLbY3l3niZJ+qS5rovJ+tCuLfr3CIZ19PD+aqR/jiEGsKAeMl+KBic3IXcUkxScTbi3BfDYCCZkgTsd3iNNagiG55mnn9/fBRp2MkhMxUYQ2YnxutSYLJvbxzFBB9o9YB9qfEe+nvRvLvY/nQx1X5WJaN/wUvbhoRZVmjityy4mgbCYvAJG0Fxv4J6+u78bDWPsBTDh1gEnDbN01l43DsgCMZk73inxMEFUDncFpat/nQ/HR2InZ2NJuxpMkTGTR/0nmMwf78x9h4MW+OI4KKBChF/xHcwxOYKkMU0aio2RaU18L4PJUFLrspaBOxwQk28sJhMV4kuKd/tmyAFF+izQHPguJg4KQfJFmomzJe1tGiZJXC/OY98mYIL2Ns/zo6RA8zCKy4p0xzloQZvlJ954kJQJJNpsmCTtbUGYDLtnCQ8vcM48DTLdwfWdEYFl6CZZZhoUJs6y0f2KkVV2MAEr8EclcbnI+ne5VsKyXI9WIgIxuXA55zEIIlRpEkAp577p1I+vI95hb1UgmEjatwrfpviLBnvLZx1m3yNlK7B6hvSJrzksPYsh8vs9ImFo88U7C7vDQW3WJJIPKHwXrRtVKME5Y9nqDfAUDVORHMNj7XYF30zDiX7/I6mSqg1HXf8dDoSzISb65S0yKdHqgd/yPa3pufsjSbtlIkP4NIewRqDeo/FS3/uANjY1Z1vmO00UE8l4Y3lgHsUbwB10+DYUD8Iex9yw72kEX0dQDpp3NAsmS+f20skN5swsS0SpfFQO2aIvbdGTBDRZlBN8Wbkc1UZzMMoSJleTOue4fJe4GbC3nQR6G2m7Ipkrs3wQaxkLjHfmqKGTeOc+fGINpOVAZBWpvZ2ST7D2EuiZjwhSweg30FoGiXfWfoeDzallULEXoSLIJ1hTfG8Z+Q4dHKq4m7skBqwrWbjDwa9lMMl0tkQTF/49pm5Fd0ez8Mnj2CDKZGoZE2Fexx0O41pGdJ3WNDZeDnYXyzMKEaHGiIdIBmsZOczaM+wielyChwsNEel7KgCjKTKsmH5gykgd0Bof+sxhwo9qLHMa50JhQTDQQXf8ukXCR1Gs8kx1Z4LiEjFRQuNS5k8IJoHhZFedbDHLVFh29qDtiMHjefBoEjIFJmn2Nv8dDrodrWXwzhBNsbfloAk+0WWYnsmwXOJ3nLlvgJj/Dod4PhaJKnFC8ZNpyfYWD5sIAqUx0OGaECDCfKMwR516b0vJ25NELHta3uzsCe1tEiAcT4M+7YnWMvJpNjINksMDNgyInjh4IpggKoSxRAq/gXNOj0juMF5TtMYnK9i2yPrOXHc4JNR3cnx6lfiMOcMJ0Y3r4LRaBmCSgTscMM/27S03m05ya0zKMXw8QgAJpkYYEkhCwwSzRGoZdUew1JXd4UDqO5UEjSBElWcQpvLbXd45ApHiVb5LEi8fu447HBCTzTNxLYPxG7GTI3FE2NStSc+ZJwK5cfb0ahmcIqmJKhTfY9mn8DwrJJjh7Lux6FrGvHIiYXk0WVRyQe04Zlc4ygAy0mFfSBGrWrm817m+1CVjeZjEY4I0mOAj+vdZwrrL9F9xFbKYEBFdTcyMoAMXJiFzdIzpde6k6bXRNHtbwB0ONpWTq2sXnULy2tGV7LK1DKQbXRrtdFkzYoHdEYgIYbm+WJmDB/Q7irH+OxwIP5FG1wMXX01LkRhgtw3jOp2OxR7MmJZ/Qfc0Tr/krcGQd/5kDXc4EB47DO4soYkBISxce8trU3gMpmWjLHeQKW7/vj+ufMNDE9N3GtRNR4TIXLK7piw3InDZinf+EXn7Pp0KkW0kI5IcRJcDM2KFy/Jmp7sUTOI5hlTvNJF45/d4vicNUU2WERFhLU9SNBMRMfM75dnyJ8u8w6FAY8DDiDpY02M9/vHiFLGzP455czBXppgUMnCHg/8OAss+TXF1M8dhrOa0WgZbALSsMYaPf6dpGfEOzVEzftacllujWe3JIJoJENCRQybODmXAs1fLGBcbYk8+TS0DL2VAliJEkFciCydly1nEJEeyHmx+fRrxynUPsZgRfa+L+VRUoqjeRPBeNiYz3OEQxqQcmMCoWxDXMsopahm5CNNDx8/Ry5SYLP8OB4k5R02ya9GcITmrM0MiNoYZLyLgFNJ8TNZ/hwMvH8sTdIs818cg0t2LH69NMFIV7vvFa7jDITFvzxJ4cYWchwcnCWklF4ooJgIeu6o7HBIwoY4znlOdXN2REhPmCLbIYleGktJwshLvcGsZvGjPnK2WkY9ViHxJ4wyHP9z4U5KaDSUTmNQN6T/cWob/pJkyqZmiluGfTImOAziTi86VP4eSVF/EvRZhk/nIOxzqqjSqJCZjywxlsXyTIEaEENZYUCNw12eVl5IGYtKSuQHIiu9wUBtVSRrlBKft/TfhYpfbJKVHSNzbifEbcexUPqv82ISltLfqBvfBrfoOB63Wgw8MvySLSo4f3Sec1SGZ+5hdFb3KhDLyA18E0htbDUfjKviqub1m97bx/uzNH5UN0SGSLs2LRQ6RdKKnYMtlXszkZwKSvnmj8gVlRGptbdccWcoEJpJS7b2uYXf4fUNQ+fLfzIgqxfjV+xzl+HFHZU3jNG83vpO3kpvbW72WM9PPTy4Tk6JiN7a3WgSVb/8VqhApfeWjm853drpUWro7u1FHM+2Q7Vnlf3+hqTSqve1GzSbGUlsUJvPc4QCYOHa7t90jqOhf/6xsiA7b0zxSlHVYnc4uKWbERER8nHqj8udXMmVre7tRVZyJA1n3HQ4QXkEMpRdava3XdeLfNr9U+K9MBqiwqVjT5NTCdkVm5Oxt5Qu5wapQ29rqtW2nqOFbUYmXDa70DgcqlppRstuN7dcN8msFw78EKlRO8WYGxtFi3/vfb8SMOI3tXr2NP/GkTlHw1Htb5H3UiuO0GqBCVYLR1x8iYQlO6yRCIkzOodLgKtGM9MDXOEoKo5d6bwu9o1sBVOxWY3u7RlXo5dkUe7trxpxznt6t4x9GShgYKI1a29putBTVSHcf9Xowga6i6qVmvbfVs8m4n3+IXyalKbmYHcmLaD/ATJVGabwG51vUDW3x95bPHe9ETToYLkN1atuvt9tk7PkXMWUp78SOGghzCWeVP34SzbR7r0FG6I+KpApAVnuHAzMY35dxUIXqZDmUsgh88yFNyZFjBaLD1qg051RpgJ+1nQJoDbM8TmFuHXc48H79BSax6yAsVfLsTv6eYm+7O3u7uwd7ojciQWleTpSm5oDSaEv6GfVpmMizqqpMVRUYi+rUe69f07rc8HtOYG9DeXsWkzJFJKo0jkqueXtqv0mEv8UF9HbLpywq2ttHJe5Bad7+oEqDhLVedRyFme1pYELMF/jmOrJ+8pfn34X8NqlVNl6SuFepI4WXkcLzZ1swJvPc4SA26Y4jT+yt+pfQ3nIaENaf5Jvt7de9ul3QtRKZOt0hrMftbf47HHgDxn2w6KqsOFWIm3tNsqyvf8+gQhuVv8lN7Rjl9TDuLRVFs4WXt9Y7HKabdBSWKuG35Cs2X4rsrd8Qtrcb30cTpVHguS7KOQr3tqrfGwV5latoWQi/Vb/+MRWVs0qOElbwNFuoNMYv9xussoTOGfjtVpvaW3E+4azyv5+4JqMFJKdeVZHC/3KYlDBBoavNGjrnCb/lW5YziHvJGtpgWGtNx6F3zq4ME2qh56ihz2TSIXBug2HpNUMpORaRH8SwlurbvXoNUyOPne2xe5v/DoeZXoWC/8k2CMtWOCUXMPoycTWkLiE5vS00rAUyfv4Xr1Z8hwOI5fRHELpVQTMcuzbmt8Nv5bG9PQPDSrPwTg8oDRLWuWdbzx0Os/8CKPLb6jglp3/9kquQlvtC0mdas7fdaOPPgcjyAmbLGLdPXCXhLJOUnL759efPk03yFQbNwqskobiY2Z4GJoSx6MVmHRyLHV6I04C4t1oETrnQ2VZ9h8PjXumH2Wg+ASgLRHY6hNFKtbGFmQAIarTFz5Z+b/Pf4TBfK8jonLf8BmbERlez3jb/HQ5ziBcJ+kFYFLtWxwauFwhrzIEsbLa0e1shj2VXSWfDk5hGycFWNJDCL3W2FHvLACZ0Nv+s6opmexqYZGi2BdzhkIoiznWrwmpnW8gdDqsIk1Y6mzTjI3hsiW2+WxVWO1uASVxVl85jMzzbMybPmDwWkzhFnPmnxmdaZfZmW8AdDv6H2MF60iUJWZ5NX8QdDo9wIJmebRF3OPyCPPYZk2dMZsYkbtJnOws6Gfw4B5KR2RZwhwNvQNLgx96qsNrZKKBz3eHw2PJhZmeTOGIZ0ryMMMv189jsrfIZk3XPloTJ4xOr2FaXxl3GbPPf4RAMZgeQV2Ng0qTXfjI62wLucFhqBLKe2eS4WM56h8N8SpDB2Z65/TMmz5g8Y7IwTP4P0hGi4i2SL60AAAAASUVORK5CYII=;" vertex="1" parent="Y1mZi5_KREuWDVKwzotL-44">
          <mxGeometry x="543.4300000000001" y="490" width="75.14" height="50" as="geometry" />
        </mxCell>
        <mxCell id="Y1mZi5_KREuWDVKwzotL-110" value="" style="shape=image;verticalLabelPosition=bottom;labelBackgroundColor=default;verticalAlign=top;aspect=fixed;imageAspect=0;image=data:image/png,iVBORw0KGgoAAAANSUhEUgAAAOEAAADhCAMAAAAJbSJIAAABLFBMVEX////t7e3u7u7wvxo+vrEjHyAGpd3r6+sBm4/Woio/PD08OToeGhvwvAAAlYj39/cmuavUnAf48u8oseLZ6Ofo+Pfs6d77+O0AAADw+vjg6ukAoNz8+e/q59zvvQDt8PYAndskEACy3Nfv3Kn98dD2133VnhYBrOYkGBUMAAAkCwCK0chqyb3b8/GW08zt5MXv4rnu2aD44qPu1Ib102rxxjLtxkP435z87L7003H557Hq1JrmtB3cs13gqyLl0arfxIjt6NTgwHveumzwyVbisCP98Mz0y0HRkgDfpwA8MiwtjrNbu+SAxeOv3vPX8frS1NUWXn6fn6EcMTWV1vAWcpcaVGlpa2wGlsfDw8SGiosRgKxtweTA3+uj1Oidnp5uvbXI6edStas3v7H+MSWhAAAJhUlEQVR4nO2d/VsTRxDHk00IBjw5zoQYgneQBLQmIUBAQWsrSt9BbGvfoW16////0N27g8S83e7sTO5yZH5xnsdHnQ+zO/Pd3bk2lRKWZoylE+qlYhLHnHBOGErIbTGhnuf6sIsJ9Vjky4jWY3PCmfdY35ZcTKQXFNR4BEPj+RaPBUXaDyOPY06oTRi58qDz5ppm5r270PGTT9jbktE357mmAXm+TWnJOI7nOU7COr7PVWrv1Wr7B8L2a7W9dsljTQChk27XOodHtmEYtmc3jmEbR4edWnvNmQ4huqLgqUul6geHGY8mM9oMAZw5PKiLbM6cpqkfPBfZGsPWbwLz+Ys6egR0msZx0scnIjkqxn8aJ8dpXoPi3/EdtnfGN5kSXpBLwzisMextiU5Y34bh3UJu17EJ8TQN/1tfHikuzlGQRy9TuFFh/DWet9HRxvPNsDsbaFEFhrAoStsaq3OI0dguxavjOxvbSPm7MdvY3sBRPBiEDusg5q/H2GEYzSMg1NAMjL0aK1p0GfcDrR6ppnHaOzufkwByM47qTsSaxll7vZrP57+gQswYJ8xJR9jxnS8FHymibe850REuvg4AuZEhZozDyDRNeyffZ3SItl0HxaepaZjzZjX/iZHVG57GjjN1TcPSr3fy+akh2mfgQweU8PEgHnUWM6fTJWyvjiKkRMzYx1qEikqhNhown/+KENE4AESaAmka5+04QNosGtvOdDQNezdUY6aFeKhebiAdf7iITg/xbBqEIYCUrV90DXVCVU0TCkiL6GWRUtM4EoDUWXQoNY0zscjcGt1JQyAqlhs1wrdSgLRtkTcNOsKxjX7IKAuq3/pJNM0YqTbSKAkzxrF0zCkFTcNOFQBpt2LGOCXQNIwp8OWJt2ImQ9Dx5fpEn5EC8p6BTvhGEZC48Z+iaxqlTegb4To12tJtX1rTKGeQMon211Ixq2gaSS0zYFT11FZ6RJUivL34VTSavm+r3djI5RCSQWEEfMbRGoMQTlQFsDUqDL/YGCeOlJJR0jQOoI4SJdH29Br6PY0D5kMuNoZxtqa0QCU7vvMKukaRk2gfQV6hJAjX4GsUM4lGpgYa2gzXNI7sqZcyibbxzXGKKd4oyWqaklYKMZJoG3an7Sjezihomnd6gHpJFGOLRy/qWpO2YYSn365q2ndiaBZidub59v4ekEuecKNU2ni8xq1U0vNKa4reRsrhpqZfdO5p0hoedBIGx5t/9zTz3l34Kij5hGGaZta9cE0z855v8VhQNN6ccPa9gDBy5UHn3XlNsyJM37O4eZ4V6ulLbfmOv7y8tLQsbEmYjvf9Dw9l7fzi/eWUCNmHR/ex7OmPT3KyVuF2dc0spjXdLaNp2E+fLaDZz/KEHuVm7mLdSo+IClXTLN3HI3ymBOin8iOSoEyNTfEjPMCFZ38pI+YqT64t0o7/AZNw6xe1ZRowXliUhJjbcOHprxDCXOXcItQ0vyFuQ+VS04c4Lj5tTbOygEq4BQL0s0ikaRYxtyEvNb9DEa80y83Yjv8HLuEWoJgGiO/1ys04whXUQiOKKZQwV1kn0TQrf+ISqui2QTu3SDQNbimFtgvPNi9JNM0yLiG0XfhJJOn4uIuUmwbh5uXkQyyIcAW3lPJSo0Eo1Bu6pkFuh5DTRb9Z6JoGux1qtHwviZcD8SFompgRfoQt0EkdH7nh6xKeoxNiSxod2eaZDuFITYOfQz3CzYH4EDRNzAgrBXRNEzfCa/SOn3zCfxJHOKgF4pbDAsPWNHHL4UB8+pomUf1wSppmS0fT5PA1TaJ06WhNEzPCy4H4EDRNbM+HaJomeWf8od/BJtS6pykS3NNg37Xd17hrq6DctQ1pgRjdl/I6o65kwjRNnO68K1fWcHz69zQxerfIwRfopI4fo7cnjWPFRMLYvB9eaL8fjtQ0fJnivgFDG77YhFTzNLF4x98M3vFJ5mliMYtxhTDIN5YwBvM0m3+TztOg6jZIKa08LGDORI3QAhHPteXeU88Ir2Be1ajOJlZyH5k1WA+xZ4Sjmy/dzF1dWygLdGLH596y5mSwzoywznFJnlDY9Oe8LRSucE2THG+8pkmM5xveooifNyecfS8gRFEP8fTu/HdPs+/dhS+dk0/Y25LRN+fINE2vGIE8Bv2z09E05WKxWBBWLMK9srB1YSpeioknp5D4wr0wwtYDfbtnwszNNnerLWrC1H8P7umamwWa62Zd021WiwQzwj2vqE8IBbzhNM1m9eaDy8n6ZZQXqmmsf3URTU1CL5lmowj9Aiq0Hy7qEuoDemY2u5DrU4mOb+3qISKk8JZxXb20ymialVik0GfcBRCGaxrW0kkiXgo9xGZ5QqRgTaNVbFABBWNV8TP2lFSy45JCD7GhduEoR1gFJxEdUKxUAkLwOiUAFAYgDNMH0HVKRJiViVnxngZWT6kAs1mGqGkCD9L38cvMrTUxO77vWYBDBh2g25RVN/KETH0r0gHerlLMe5o0Kygm0QSfC0PNLDCSt6euGiIZX9bsSsd8Y5K9RanaEAJWFWJWI0wpNH66Omo2lGJWI1TQNnSATZAulb39YLI9gxCw7/6V5O1JDpGsjLpN6UjBb08SiA/INqF/rsC+xRj0whGJAckJw8sNHaD6tA3k7Sn0CpUMsAH47/ApaZqeN7H1kwFWAZHemPJrwAQBRwbYBUUKJUwV7o1hJOJzswVgpFBCNqb3EwHyPg99SQwIZTVNn7oZedtP1CfMXSuSeZrWlDLoZlug+BDmadhA28iSiDWzAY0P2vH7CK1qf8HJUhC6blfrowvdeRqrL434dFmRQK34YJqm32NpqxWkkYQv24L9X560Nc2nIm5XMBLwua7qOxOiphlcqgRdwtVeoHodf2Cxlxu4jC7fgGWdGRNsQu5xRrxKyvNXRomqR6iuaUZ4uyYOpGnulvGiwp0Rrja1GV0zW8WNSq8fDnmthqsByf9sQ3uQDbfjjzp08ETCyo6Y7mL4XwVhE3LPSndFJpVSKbLXTaN9sYanacZ7LZFKuVyaInlicVLEgqBpxnjixNqqNkT42THpdMVEnpltCDr+Yyf5Qd8Y3qIY9PiKre42xAQlbyWua/b96g3I8pVJHAE1ob8VuJW73WrPul2v4xEUgUgIb4pswNrnTePfDQhR1EM8vfl3TzPv3YWvgpJPSKEj4uQFBTUewcymponemxPOvhcQRq486Ly5ppl57y50/OQT9rZk9M15rmlAnm/xWFCk/TDyOOaEuoS9gpo8738dVb3gmAfrYgAAAABJRU5ErkJggg==;" vertex="1" parent="Y1mZi5_KREuWDVKwzotL-44">
          <mxGeometry x="412" y="485" width="60" height="60" as="geometry" />
        </mxCell>
        <mxCell id="Y1mZi5_KREuWDVKwzotL-46" value="Basket.API" style="rounded=1;whiteSpace=wrap;html=1;strokeColor=#314354;align=center;verticalAlign=middle;fontFamily=Helvetica;fontSize=12;fontColor=#ffffff;fillColor=#647687;" vertex="1" parent="1">
          <mxGeometry x="420" y="110" width="120" height="60" as="geometry" />
        </mxCell>
        <mxCell id="Y1mZi5_KREuWDVKwzotL-49" value="Mongo DB" style="shape=cylinder3;whiteSpace=wrap;html=1;boundedLbl=1;backgroundOutline=1;size=15;rounded=1;align=center;verticalAlign=middle;fontFamily=Helvetica;fontSize=12;fillColor=#f5f5f5;gradientColor=#b3b3b3;strokeColor=#666666;" vertex="1" parent="1">
          <mxGeometry x="680" y="10" width="60" height="80" as="geometry" />
        </mxCell>
        <mxCell id="Y1mZi5_KREuWDVKwzotL-51" value="PostgreSQL" style="shape=cylinder3;whiteSpace=wrap;html=1;boundedLbl=1;backgroundOutline=1;size=15;rounded=1;strokeColor=#666666;align=center;verticalAlign=middle;fontFamily=Helvetica;fontSize=12;fillColor=#f5f5f5;gradientColor=#b3b3b3;" vertex="1" parent="1">
          <mxGeometry x="680" y="190" width="60" height="80" as="geometry" />
        </mxCell>
        <mxCell id="Y1mZi5_KREuWDVKwzotL-52" value="My SQL" style="shape=cylinder3;whiteSpace=wrap;html=1;boundedLbl=1;backgroundOutline=1;size=15;rounded=1;strokeColor=#666666;align=center;verticalAlign=middle;fontFamily=Helvetica;fontSize=12;fillColor=#f5f5f5;gradientColor=#b3b3b3;" vertex="1" parent="1">
          <mxGeometry x="680" y="280" width="60" height="80" as="geometry" />
        </mxCell>
        <mxCell id="Y1mZi5_KREuWDVKwzotL-53" value="" style="endArrow=classic;html=1;rounded=0;fontFamily=Helvetica;fontSize=12;fontColor=#ffffff;entryX=0;entryY=0.5;entryDx=0;entryDy=0;exitX=1;exitY=0.5;exitDx=0;exitDy=0;" edge="1" parent="1" source="Y1mZi5_KREuWDVKwzotL-2" target="Y1mZi5_KREuWDVKwzotL-45">
          <mxGeometry width="50" height="50" relative="1" as="geometry">
            <mxPoint x="390" y="170" as="sourcePoint" />
            <mxPoint x="440" y="120" as="targetPoint" />
          </mxGeometry>
        </mxCell>
        <mxCell id="Y1mZi5_KREuWDVKwzotL-54" value="" style="endArrow=classic;html=1;rounded=0;fontFamily=Helvetica;fontSize=12;fontColor=#ffffff;exitX=1;exitY=0.5;exitDx=0;exitDy=0;entryX=0;entryY=0.5;entryDx=0;entryDy=0;" edge="1" parent="1" source="Y1mZi5_KREuWDVKwzotL-2" target="Y1mZi5_KREuWDVKwzotL-46">
          <mxGeometry width="50" height="50" relative="1" as="geometry">
            <mxPoint x="390" y="170" as="sourcePoint" />
            <mxPoint x="440" y="120" as="targetPoint" />
          </mxGeometry>
        </mxCell>
        <mxCell id="Y1mZi5_KREuWDVKwzotL-55" value="" style="endArrow=classic;html=1;rounded=0;fontFamily=Helvetica;fontSize=12;fontColor=#ffffff;entryX=0;entryY=0.5;entryDx=0;entryDy=0;exitX=1;exitY=0.5;exitDx=0;exitDy=0;" edge="1" parent="1" source="Y1mZi5_KREuWDVKwzotL-2" target="Y1mZi5_KREuWDVKwzotL-47">
          <mxGeometry width="50" height="50" relative="1" as="geometry">
            <mxPoint x="290" y="170" as="sourcePoint" />
            <mxPoint x="440" y="120" as="targetPoint" />
          </mxGeometry>
        </mxCell>
        <mxCell id="Y1mZi5_KREuWDVKwzotL-56" value="" style="endArrow=classic;html=1;rounded=0;fontFamily=Helvetica;fontSize=12;fontColor=#ffffff;entryX=0;entryY=0.5;entryDx=0;entryDy=0;" edge="1" parent="1" target="Y1mZi5_KREuWDVKwzotL-48">
          <mxGeometry width="50" height="50" relative="1" as="geometry">
            <mxPoint x="290" y="160" as="sourcePoint" />
            <mxPoint x="440" y="120" as="targetPoint" />
          </mxGeometry>
        </mxCell>
        <mxCell id="Y1mZi5_KREuWDVKwzotL-57" value="" style="endArrow=classic;html=1;rounded=0;fontFamily=Helvetica;fontSize=12;fontColor=#ffffff;entryX=0;entryY=0.5;entryDx=0;entryDy=0;entryPerimeter=0;" edge="1" parent="1" source="Y1mZi5_KREuWDVKwzotL-45" target="Y1mZi5_KREuWDVKwzotL-49">
          <mxGeometry width="50" height="50" relative="1" as="geometry">
            <mxPoint x="390" y="170" as="sourcePoint" />
            <mxPoint x="440" y="120" as="targetPoint" />
          </mxGeometry>
        </mxCell>
        <mxCell id="Y1mZi5_KREuWDVKwzotL-58" value="" style="endArrow=classic;html=1;rounded=0;fontFamily=Helvetica;fontSize=12;fontColor=#ffffff;entryX=0;entryY=0.5;entryDx=0;entryDy=0;entryPerimeter=0;exitX=1;exitY=0.5;exitDx=0;exitDy=0;" edge="1" parent="1" source="Y1mZi5_KREuWDVKwzotL-46" target="Y1mZi5_KREuWDVKwzotL-50">
          <mxGeometry width="50" height="50" relative="1" as="geometry">
            <mxPoint x="520" y="160" as="sourcePoint" />
            <mxPoint x="440" y="120" as="targetPoint" />
          </mxGeometry>
        </mxCell>
        <mxCell id="Y1mZi5_KREuWDVKwzotL-59" value="" style="endArrow=classic;html=1;rounded=0;fontFamily=Helvetica;fontSize=12;fontColor=#ffffff;entryX=0;entryY=0.5;entryDx=0;entryDy=0;entryPerimeter=0;" edge="1" parent="1" source="Y1mZi5_KREuWDVKwzotL-47" target="Y1mZi5_KREuWDVKwzotL-51">
          <mxGeometry width="50" height="50" relative="1" as="geometry">
            <mxPoint x="390" y="170" as="sourcePoint" />
            <mxPoint x="440" y="120" as="targetPoint" />
          </mxGeometry>
        </mxCell>
        <mxCell id="Y1mZi5_KREuWDVKwzotL-60" value="" style="endArrow=classic;html=1;rounded=0;fontFamily=Helvetica;fontSize=12;fontColor=#ffffff;entryX=0;entryY=0.5;entryDx=0;entryDy=0;entryPerimeter=0;" edge="1" parent="1" source="Y1mZi5_KREuWDVKwzotL-48" target="Y1mZi5_KREuWDVKwzotL-52">
          <mxGeometry width="50" height="50" relative="1" as="geometry">
            <mxPoint x="390" y="170" as="sourcePoint" />
            <mxPoint x="440" y="120" as="targetPoint" />
          </mxGeometry>
        </mxCell>
        <mxCell id="Y1mZi5_KREuWDVKwzotL-64" value="Order.API" style="rounded=1;whiteSpace=wrap;html=1;strokeColor=#314354;align=center;verticalAlign=middle;fontFamily=Helvetica;fontSize=12;fontColor=#ffffff;fillColor=#647687;" vertex="1" parent="1">
          <mxGeometry x="430" y="210" width="120" height="60" as="geometry" />
        </mxCell>
        <mxCell id="Y1mZi5_KREuWDVKwzotL-47" value="Order.API" style="rounded=1;whiteSpace=wrap;html=1;strokeColor=#314354;align=center;verticalAlign=middle;fontFamily=Helvetica;fontSize=12;fontColor=#ffffff;fillColor=#647687;" vertex="1" parent="1">
          <mxGeometry x="420" y="200" width="120" height="60" as="geometry" />
        </mxCell>
        <mxCell id="Y1mZi5_KREuWDVKwzotL-66" value="Basket.API" style="rounded=1;whiteSpace=wrap;html=1;strokeColor=#314354;align=center;verticalAlign=middle;fontFamily=Helvetica;fontSize=12;fontColor=#ffffff;fillColor=#647687;" vertex="1" parent="1">
          <mxGeometry x="430" y="120" width="120" height="60" as="geometry" />
        </mxCell>
        <mxCell id="Y1mZi5_KREuWDVKwzotL-65" value="Basket.API" style="rounded=1;whiteSpace=wrap;html=1;strokeColor=#314354;align=center;verticalAlign=middle;fontFamily=Helvetica;fontSize=12;fontColor=#ffffff;fillColor=#647687;" vertex="1" parent="1">
          <mxGeometry x="420" y="110" width="120" height="60" as="geometry" />
        </mxCell>
        <mxCell id="Y1mZi5_KREuWDVKwzotL-67" value="Return.API" style="rounded=1;whiteSpace=wrap;html=1;strokeColor=#314354;align=center;verticalAlign=middle;fontFamily=Helvetica;fontSize=12;fontColor=#ffffff;fillColor=#647687;" vertex="1" parent="1">
          <mxGeometry x="430" y="300" width="120" height="60" as="geometry" />
        </mxCell>
        <mxCell id="Y1mZi5_KREuWDVKwzotL-48" value="Return.API" style="rounded=1;whiteSpace=wrap;html=1;strokeColor=#314354;align=center;verticalAlign=middle;fontFamily=Helvetica;fontSize=12;fontColor=#ffffff;fillColor=#647687;" vertex="1" parent="1">
          <mxGeometry x="420" y="290" width="120" height="60" as="geometry" />
        </mxCell>
        <mxCell id="Y1mZi5_KREuWDVKwzotL-68" value="Catalog.API" style="rounded=1;whiteSpace=wrap;html=1;strokeColor=#314354;align=center;verticalAlign=middle;fontFamily=Helvetica;fontSize=12;fontColor=#ffffff;fillColor=#647687;" vertex="1" parent="1">
          <mxGeometry x="430" y="30" width="120" height="60" as="geometry" />
        </mxCell>
        <mxCell id="Y1mZi5_KREuWDVKwzotL-45" value="Catalog.API" style="rounded=1;whiteSpace=wrap;html=1;strokeColor=#314354;align=center;verticalAlign=middle;fontFamily=Helvetica;fontSize=12;fontColor=#ffffff;fillColor=#647687;" vertex="1" parent="1">
          <mxGeometry x="420" y="20" width="120" height="60" as="geometry" />
        </mxCell>
        <mxCell id="Y1mZi5_KREuWDVKwzotL-69" value="" style="endArrow=none;html=1;strokeWidth=3;rounded=0;fontFamily=Helvetica;fontSize=12;fontColor=#ffffff;entryX=0.75;entryY=1;entryDx=0;entryDy=0;exitX=0.5;exitY=0;exitDx=0;exitDy=0;dashed=1;dashPattern=1 1;" edge="1" parent="1" source="Y1mZi5_KREuWDVKwzotL-7" target="Y1mZi5_KREuWDVKwzotL-2">
          <mxGeometry width="50" height="50" relative="1" as="geometry">
            <mxPoint x="390" y="410" as="sourcePoint" />
            <mxPoint x="440" y="360" as="targetPoint" />
            <Array as="points">
              <mxPoint x="610" y="640" />
              <mxPoint x="330" y="640" />
              <mxPoint x="330" y="340" />
              <mxPoint x="260" y="340" />
            </Array>
          </mxGeometry>
        </mxCell>
        <mxCell id="Y1mZi5_KREuWDVKwzotL-70" value="" style="shape=cylinder3;whiteSpace=wrap;html=1;boundedLbl=1;backgroundOutline=1;size=15;rounded=1;strokeColor=#2D7600;align=center;verticalAlign=middle;fontFamily=Helvetica;fontSize=12;fontColor=#ffffff;fillColor=#60a917;" vertex="1" parent="1">
          <mxGeometry x="840" y="-120" width="60" height="520" as="geometry" />
        </mxCell>
        <mxCell id="Y1mZi5_KREuWDVKwzotL-71" value="MESSAGE BROKER" style="text;html=1;strokeColor=none;fillColor=none;align=center;verticalAlign=middle;whiteSpace=wrap;rounded=0;fontSize=12;fontFamily=Helvetica;fontColor=#ffffff;rotation=90;" vertex="1" parent="1">
          <mxGeometry x="775" y="150" width="190" height="30" as="geometry" />
        </mxCell>
        <mxCell id="Y1mZi5_KREuWDVKwzotL-72" value="" style="endArrow=classic;startArrow=classic;html=1;rounded=0;fontFamily=Helvetica;fontSize=12;fontColor=#ffffff;exitX=1;exitY=0.75;exitDx=0;exitDy=0;entryX=-0.05;entryY=0.763;entryDx=0;entryDy=0;entryPerimeter=0;" edge="1" parent="1" target="Y1mZi5_KREuWDVKwzotL-70">
          <mxGeometry width="50" height="50" relative="1" as="geometry">
            <mxPoint x="550" y="251" as="sourcePoint" />
            <mxPoint x="838.02" y="268.1500000000001" as="targetPoint" />
            <Array as="points">
              <mxPoint x="650" y="251" />
              <mxPoint x="650" y="276" />
            </Array>
          </mxGeometry>
        </mxCell>
        <mxCell id="Y1mZi5_KREuWDVKwzotL-73" value="" style="endArrow=classic;startArrow=classic;html=1;rounded=0;fontFamily=Helvetica;fontSize=12;fontColor=#ffffff;exitX=1;exitY=0.75;exitDx=0;exitDy=0;entryX=0.017;entryY=0.954;entryDx=0;entryDy=0;entryPerimeter=0;" edge="1" parent="1" target="Y1mZi5_KREuWDVKwzotL-70">
          <mxGeometry width="50" height="50" relative="1" as="geometry">
            <mxPoint x="550" y="350" as="sourcePoint" />
            <mxPoint x="850" y="375" as="targetPoint" />
            <Array as="points">
              <mxPoint x="650" y="350" />
              <mxPoint x="650" y="375" />
            </Array>
          </mxGeometry>
        </mxCell>
        <mxCell id="Y1mZi5_KREuWDVKwzotL-74" value="" style="endArrow=classic;html=1;rounded=0;fontFamily=Helvetica;fontSize=12;fontColor=#ffffff;exitX=1;exitY=0.75;exitDx=0;exitDy=0;entryX=-0.033;entryY=0.577;entryDx=0;entryDy=0;entryPerimeter=0;" edge="1" parent="1">
          <mxGeometry width="50" height="50" relative="1" as="geometry">
            <mxPoint x="550" y="169" as="sourcePoint" />
            <mxPoint x="838.02" y="184.03999999999996" as="targetPoint" />
            <Array as="points">
              <mxPoint x="660" y="169" />
              <mxPoint x="660" y="184" />
            </Array>
          </mxGeometry>
        </mxCell>
        <mxCell id="Y1mZi5_KREuWDVKwzotL-75" value="" style="endArrow=classic;html=1;rounded=0;fontFamily=Helvetica;fontSize=12;fontColor=#ffffff;exitX=1;exitY=0.75;exitDx=0;exitDy=0;entryX=0;entryY=0.421;entryDx=0;entryDy=0;entryPerimeter=0;" edge="1" parent="1">
          <mxGeometry width="50" height="50" relative="1" as="geometry">
            <mxPoint x="550" y="71" as="sourcePoint" />
            <mxPoint x="840" y="94.92000000000007" as="targetPoint" />
            <Array as="points">
              <mxPoint x="650" y="71" />
              <mxPoint x="650" y="96" />
              <mxPoint x="750" y="96" />
            </Array>
          </mxGeometry>
        </mxCell>
        <mxCell id="Y1mZi5_KREuWDVKwzotL-76" value="API" style="rounded=1;whiteSpace=wrap;html=1;strokeColor=#314354;align=center;verticalAlign=middle;fontFamily=Helvetica;fontSize=12;fontColor=#ffffff;fillColor=#647687;" vertex="1" parent="1">
          <mxGeometry x="430" y="-80" width="120" height="60" as="geometry" />
        </mxCell>
        <mxCell id="Y1mZi5_KREuWDVKwzotL-77" value="" style="endArrow=classic;startArrow=classic;html=1;rounded=0;fontFamily=Helvetica;fontSize=12;fontColor=#ffffff;entryX=0.5;entryY=1;entryDx=0;entryDy=0;exitX=0.583;exitY=-0.017;exitDx=0;exitDy=0;exitPerimeter=0;" edge="1" parent="1" source="Y1mZi5_KREuWDVKwzotL-45" target="Y1mZi5_KREuWDVKwzotL-76">
          <mxGeometry width="50" height="50" relative="1" as="geometry">
            <mxPoint x="390" y="310" as="sourcePoint" />
            <mxPoint x="440" y="260" as="targetPoint" />
          </mxGeometry>
        </mxCell>
        <mxCell id="Y1mZi5_KREuWDVKwzotL-80" value="Text" style="text;html=1;strokeColor=none;fillColor=none;align=center;verticalAlign=middle;whiteSpace=wrap;rounded=0;fontSize=12;fontFamily=Helvetica;fontColor=#ffffff;" vertex="1" parent="1">
          <mxGeometry x="380" y="270" width="60" height="30" as="geometry" />
        </mxCell>
        <mxCell id="Y1mZi5_KREuWDVKwzotL-84" value="" style="rounded=1;whiteSpace=wrap;html=1;strokeColor=#6D1F00;align=center;verticalAlign=middle;fontFamily=Helvetica;fontSize=12;fontColor=#ffffff;fillColor=#a0522d;" vertex="1" parent="1">
          <mxGeometry x="600" y="420" width="445" height="190" as="geometry" />
        </mxCell>
        <mxCell id="Y1mZi5_KREuWDVKwzotL-89" value="ELK Logging" style="text;html=1;strokeColor=none;fillColor=none;align=center;verticalAlign=middle;whiteSpace=wrap;rounded=0;fontSize=14;fontFamily=Helvetica;fontColor=#ffffff;fontStyle=1" vertex="1" parent="1">
          <mxGeometry x="750" y="424.61" width="115" height="30" as="geometry" />
        </mxCell>
        <mxCell id="Y1mZi5_KREuWDVKwzotL-90" value="" style="endArrow=classic;html=1;rounded=0;fontFamily=Helvetica;fontSize=12;fontColor=#ffffff;exitX=0.53;exitY=0.998;exitDx=0;exitDy=0;exitPerimeter=0;" edge="1" parent="1" source="Y1mZi5_KREuWDVKwzotL-61">
          <mxGeometry width="50" height="50" relative="1" as="geometry">
            <mxPoint x="390" y="310" as="sourcePoint" />
            <mxPoint x="600" y="512" as="targetPoint" />
            <Array as="points">
              <mxPoint x="497" y="512" />
            </Array>
          </mxGeometry>
        </mxCell>
        <mxCell id="Y1mZi5_KREuWDVKwzotL-50" value="Redis" style="shape=cylinder3;whiteSpace=wrap;html=1;boundedLbl=1;backgroundOutline=1;size=15;rounded=1;strokeColor=#666666;align=center;verticalAlign=middle;fontFamily=Helvetica;fontSize=12;fillColor=#f5f5f5;gradientColor=#b3b3b3;" vertex="1" parent="1">
          <mxGeometry x="680" y="100" width="60" height="80" as="geometry" />
        </mxCell>
        <mxCell id="Y1mZi5_KREuWDVKwzotL-97" value="" style="shape=image;verticalLabelPosition=bottom;labelBackgroundColor=default;verticalAlign=top;aspect=fixed;imageAspect=0;image=data:image/png,iVBORw0KGgoAAAANSUhEUgAABGcAAAGJCAYAAAAnoV49AAAAAXNSR0IArs4c6QAAAARnQU1BAACxjwv8YQUAAAAJcEhZcwAAEnQAABJ0Ad5mH3gAAP+lSURBVHhe7J0HeFVV2oX/aZZRx7E3LNhndBwL6tgbSu9FpWMDFRQEBQuiKApK7yUQEkKRKl1670jvvYQaSK+3rf+snZx4crmEACk3yXof1xPMPe2em/udvdf+9rf/DxZ79uzhDyGEEEIIIYQQQgiRz8icEUIIIYQQQgghhChAZM4IIYQQQgghhBBCFCAyZ4QQQgghhBBCCCEKEJkzQgghhBBCCCGEEAWIzBkhhBBCCCGEEEKIAkTmjBBCCCGEEEIIIUQBInNGCCGEEEIIIYQQogCROSOEEEIIIYQQQghRgMicEUIIIYQQQgghhChAZM4IIYQQQgghhBBCFCAyZ4QQQgghhBBCCCEKEJkzQgghhBBCCCGEEAWIzBkhhBBCCCGEEEKIAkTmjBBCCCGEEEIIIUQBInNGCBFU+Hw+eL3e8xb3F0IIIYQQQojChMwZIUSBQ0PFFg0Wj8eTrqQkeK345Fq/HmnLliFt4UKkLV4M1++/w7NzJzyxMZnbyqARQgghhBBCFFZkzgghCoQzGjJHjsC1ciVcU6bAHR4OT+dOcLVvD1fbtnC1bg3XZ5/B1a4dPD/+AE9ICFwTJ8K1cCHc+/fDk5KSadQ4jy+EEEIIIYQQwYzMGSFEvmMbMrY8LhfcsbFwb9sG9+jRSGvXDq4GDeCuVAmel18+s8qXh6tOHaS1agX3kCFwr1kD94kTcKelZTm+DBohhBBCCCFEMCNzRgiRr/gbM+6UFLhORMG1YhU8zIipXDmwEZMTffIJ3NNnwHX4CNzJyVmmO8mgEUIIIYQQQgQrMmeEEPmG05hxu91IS0tD6tatSBs8GO6GjeApVw6eV14JbLzkRGXKwF2nDlydf0Lq6tXm+DyPc6qTEEIIIYQQQgQbMmeEEPkGzREaJbYx45o/H+7vvjOGCo2VgIbLueq11+CuWRPuTz+Fe9IkpEVFyaARQgghhBBCBDUyZ4QQeQ4NETtrhkZJanw8Urdvh/ubb+CpXj2wyXKhKl8eng8/NKs7pZ48CZfLJYNGCCGEEEIIEZTInBFC5Cm2KZNpzCQnIXnvnvSpTDVrBjZWbJUrB+/bb8PbsiW8bdvC++WX8H7xObytW8P73nvwVKkSeD9br7yCtJ9+QvLa35GSGC+DRgghhBBCCBGUyJwRQuQZpxkzqalIPHYEiTNnpBszr70W2FShypSB95134JsxAziwD0hIANLSgORk4MRx+BYuNIaNyZAJtH+G3NWqITksFInWMVJSUjTFSQghhBBCCBF0yJwRQuQJ/sYMa8wkJSUhcdkypH72GTylSwc0U2wxW8a3dCmQkgJvXDy8O3bCt3o1fBs3wRMTB19SMnwbNsDbqVPA/TNlnSftgw+Q9OuvSExMNAaRDBohhBBCCCFEMCFzRgiRJ9jmDE0QGjPMWknevBmpvXvDfbbpSOXLw9u9OxAdDcTGwDNwEDycyvT++/B8/DHcHTvCu28/fLFx8E6YAHelSoGPkyF3xYpI+/prJK9cieTk5NMMGiGEEEIIIYQoSGTOCCHyBNucoQlCYyY+Ph5JM2YgrWXLgAZKFtWrB+/o0fAlJ8G9fh3crC9jT4EqXdqYMd758+GLi4Nv+XJ4Pvjg9GP4yfXWW0iOiECctQ8zeGgYKXtGCCECw7h4IRJCiHMlUCw5FwlR2JE5I4TIE2xjhiYIpxOdOnUK8eHhSG3QIKB5kkXWNt7eveGdMwdpffrA7b+i0yuvwDd2LHDsGHybNsHz7bdZXw8gV61aSPz5Z5w8edIYRXb2DK9T2TNCCJGO3cmxY6Mxsa146Y2Jhuf4cbgPH4b70CHzk//vjYmB12F221JHSQiRUwLGHSuuML5kiTuRkfBYbT9vdLSJS4o7oqghc0YIkevYD1aujmRnzRy3Hq4x/fohpUaNgObJOemVV+CdOBG+4yfgW7cOni+/DLydQ2mVKyPe2u6Y9VCPjY3NzJ6xDZr8huekacXrOWw1Os6kI0eOmHtnzK0MU0mNDyFEXpDZOcowZNxWrHSfPAmP1U70zJ+HtAnjkRoWhtQhQ5AaHo40Kw57F8yHZ98+s507Li7dyMnoMClWCSHOhtOUMXHHiiMmnhw4AO/CBUj7daKJNybuDBuGtPHj4Zk3F55du9K3s+KUl/UJFXdEEUDmjBAi1+HDkeaMyZpJSkR0dLQxGmI7dYKrbNmA5sk56ZVX4Fm1Bt7EJHgnT4YnB8d0v/YaEj/8EIcOHUJUVBQSEhKQmvZH9kx+c+LECYSGhuLRRx/FzTfffEaVLFkSzzzzDBo1aoSuXbti8eLFxqQRQogLJUunKCNuMya6k5Lg+v13pA4YgLRPP4W7YUN4qlaFp3JleFjjq2LF9J/8f+v37saNkdamDVJDQuBavx5udrCs4/iPagshBHHGhcy443LBtXEjUocORVrbtnC/9Vb2cceKS2mtWyO1b1+4Vq+G22rXBYo7MmtEYULmjBAiV7Eb+3xApqSmGBOERkTkmlWIa9sGbhorAcyTHOuN1+EbPxq+qCi49+6Fu0+fwNv5yzpvsvUgP7R0EY4dPGhqzzCrh9k9BfEA37VrF+rXr4+rrroK//d//3dG/fnPf8Zll12GG264Affeey+eeuopNGjQABMnTjTvIT+YM2cOPvvsM1SyGkWVrUZRs2bNsGbNmoxXhRCFkYDGTFIy3Nt3wDNsGNzNm8P9xhvpBdftml9nkvU6t3PXqQM364pFRMC9ew/cycnqKAkhMgkYd5JT4N63H56RI+Fu3RruunXhpgFTpkzgeGOLcadixfQ49eGH8AwZAveWrcZcVtwRhRWZM0KIXMV+EKa50szKSDQQODXn0IxfEd/s/cAP2BzK27ghfOFDgVPHjTy/jIb73XcDbhtIKW/UxsGxw3F41w6TzVOQhYG3bt2KV199FZdffnlAUyY7/fOf/0TZsmURFhZmMoHymr59++KRRx4x5/7Tn/6E66+/HuPHj894VQhR2HB2kEznyO2Gy4olrtlz4O7SFR5mypQuHTCOnlU0cho3hrtHT7jmz4crMjLLaDbPrY6SEMUP+7ufJe5Y7UPXwoVw9+oNDzNlzje7mgN/DRrA/dNPcM2cCdeBA6dl0SjuiMKAzBkhRK5iPwTtQsA0QWgg7J84GrHv59xI8Ze3QX34QkOA45FAYjx8s2fA2+zsqzQ5lVy7JvYNH4SDW7f8MbUpI/0+vx/cgcyZK664wkxhKl++vMlS4c9XrA7SE088gVtuuQWXXHJJ5rbMqHnuuecQHh5u6tbkJT9ZjZ37778/89zU8OHDM14VQhQ2nB0kV3Iy0nbvRtqoUXC1aAFPhQoB4+e5iiPark8/RdrYsUjbuxcuK9aqoyRE8SVL3LHaiGn79iFtwgS42rRJz9ALEEfOWVb8cn30EdJGjEDazp1w+WXRKO6IYEfmjBAiV7EfvKznEp8Qb6Y07d+/H7tmzUL0xx8HfphmJ47eVq0K3+gI4MQRID4WWL0U3vr1Am+fjRLr1MGOSZOwd9s2Y2iYqU2pKUFjzjzwwANYsmSJMbUIjaNDkZGYNXs2PvzwQzz44IP4+9//nsUk4THGWp0f3vO8QuaMEEWLzA6SFWNSDx+Gp1cveGrXDhg3L1ic6jRgAFKjok4zaIQQxQe2sUzcsdqHqTExcIeEwFO/fuC4caHi4hPduiHNan+6Uqx2nkerc4rCgcwZIUSuYj/8aCywcC3NGcaYdWvW4OiXX8J1ttoFTnE+cc2a8M2fB0SfAmJPwbdoLjzVqsHz6quB9zmD3Nb2sW+/jTXLl2Pnjh04evSoWbWJU6+C1ZyxGzKsjcMMpBkzZuD111/PYpIwm6Zp06bm/eQVMmeEKPwwntjxmXGF2Y0phyOR+uuv6R2Z853GdDZZcY61aFKt+JVy7FiWqaSUEKJokyXuuKy4E3UCqbNnw92gwTm35XIsxrPKlU3mXsqhg6fFnfxs7wlxLsicEULkKvYD2GnO7N69G2vXrsWB779HUk5TVznv+L334Js3Bzh1Eh4W/x09Ct4m5zc1KqV8eRz76COsWrUK27dvN3Vwgt2c8ScmJgZDhgzBf//73yxGyUsvvYRfrQ6WExY65gpZ06dPR8+ePdGqVSvUrVvXTJeyxcK+vXr1wty5c80UL94DG05F+/HHH40Z9K9//eu02jisQWMfp3r16li+fLk5BmEjyD539+7d8VHzj1C7Vu3M7WvWrIn333/fvLZ06VLzGQgh8o5AxkxS9EkkLZgHV/PmZy34637zTbi6d4Nv6hT4Fi2Cb9kyE5u9EcOQ1ryZmcIUaL9MlStnpkwlLV+CpJhT6igJUQwIFHeSY6ORtHolXJ98cu5TKJndZ7UjfVa7wRcRAe877wTezlbp0nB9+CGS58xC0qkok9GtuCOCHZkzQohchQ88mh3M9qA5c/z4cbMy0e+//47dXbsiNqep802awPvrRCDR6vBbMcoTFnZOxX/9lVi1Kg58/nmhNmcITa7mVmfKaZTQPOnYsWPGFunmCJfcpiFTwWr80EhhzRr/KVEs7MulvGtbnwmL/tJQYcOFbNmyBRWtDhfr4Dj3CSRm7/zyyy84efKk+cxpuPAaeW4aSTfecCMuuuiizO3/9re/4bprrzOvvfHGGxgxYgQiIyPNeYUQuYt/B4nGLeNe4to1SOnyc3oHKZtV9LwNG8Lbrx88VszyRkXBZ8UJo2NH4Tu0H+45c+D67DO4q1QJuL8Rj2+dJ7lnDyRu3GDOz+uwO0q8RnWUhCg62N/p0+LOls1I7tsnfVnsc8zW87ZuDd+K5WxowrduHbw0eAJsl0XlyyOl049IXL0KSclJWeKOHXuECCZkzgghchU+7M5kzmwZ0A/H32oU+AHqVO3a8A4eBF9cbPpDeMkSeH/8Ed733z9NnkaNsu8UZCjmjdrY0emHQm/OnDp1ypgZ9j7Uddddh8aNG2dsAWOS0Ky59NJLs2x3JnE7npu1a5jpRDZv3oxy5cqdljETSDRnRo0aZYos83nCjJtA2wXSX/7yFzz//POYMGGC+TyEELmLfweJsTnp0CEkh4bCVe/stbsYe33btsGXkAjPsuXwjhoNb3gYvDOmw7d3L3ypqXBNnAB306YB93cqrUEDJI8ciaTDh012pb9BI4QoGvjHHX7fk6x2V/KYMUjjanAB4kO2qlsX3uHhQHzcuZkzllx16iB50CAkHTxo4p+/QSNEMCFzRgiRq/BBdyZz5vdfwrGvdXOknWW0xPvjD/Bt3MinO3xpafBt3gzf6tUB5bYe9KlnKTTsss539N1GWDu0nzFnduzYUWjNGbJs2TKTfcJlre19ucqTDaeRfWI1Wmh80Hjh0tvXXnstbrzxRtx8881GNHRoqtjH4LacnsRjE35m7777Lu677z784x//wF//+tfMc1FXXXVV5rFKlixp6uHwftqZPVxNyj43z3XTTTdlbn/NNdecZhyxbs5q6/MUQuQudifJjsuMLylcapYrMwWIl1lUpgy8I0bAa+3j2b4TbnaqrN+Z16wOj2fgQFgHhW/vHnh+6Hj6/gHEFZxS5s1DUlJSlo6SzBkhig5Oc8YYM/y+L1wI1+efB4wL2apcOXhDQuCz2iU+6zjWgc/JnKFczZohZfr09PjnZ9AIEUzInBFC5Cr+5oxdEJid9kVWg3xlr544WKtWwIenLd/QwcDxI+kHZIPdeogiLS2gfNZxPe3bBzyOrWPVqmHdN99gwexZmeZMYSgIfCbWr1+Phx56KMvS2k5zhqtQ/fzzz7jt1ttQtWpV8+9p06aZbBhOXWI9md9++w3ly5XHpZekmyQ0ae666y5MnjzZHIP3hEWIeZ+++uor3H333Znnonr37m2ORdHo4ufNe3jw4EHz2jVXX2PMnp+sc8+0OoK85/b2nALFKVPO45UtWxYTJ0405xZC5B6Ma+yEcLojYwu/10lWR8fFYpwB4mUWNW8O34zpwP598Fkxw1Op0h9ToKz45XnrLViBHr6oE/B063r6/gGU1rgxEocPNzW02GHTKLYQRQ877vD7ze85v++Jo0Yh7Wx1YvzFwbyvv4bPavdg9274lp/jtKYMMUswacAAE/8YB/3rXgkRLMicEULkKvYD2RQEzlhKe9++fdi4caOpgzLHejivsDr7iVZn3HWGOgfehg3g/bQ1vF9+eXZ99BE82Zg9SWXKYNPHH2PO0KGYP3++MYmYWZK5lHZK8C6lfSZosrz44ou47LLLMvd1mjO8/4zrc+bMMRlLBw4cMA0jNkYI3yeNqS8+/wK333575jGYzTJy5EizjZNzWa2J95NLp8/8bWZ6EWjr3DwX77ENpz/R8HEer1SpUggNDc3YQgiRGzg7SE7DPL5LF6TVrBkwZmZR1aqmMLu3ZYv04ps0ZOzXmEHTpAnAQuAnjsDb9ees+55BqbVrI653bxMHeD28Lo1iC1F0cMYdtgW5WAC/73EDByL1jTcCxoWAsuINV+z0zJsP34F98P063kyzPB9zJq1GDcRb+zL+2W2/YIk7K1euxLfffmsWTKhSpQratGljBhJ574oyHNgLCQkxC0/wvbMGIReKcHLk6FGMHTcOb7z+BipXroz69eubtmJerlBa0MicEULkKpnmTJr1QE5MMDVS2EFngVmu6DNz2jT8Zj2gt771ljFoAj1Ec1N76tXDfKsjMuPXX405RJOIZhEf0Gww8OFX2MyZTZs24dlnnz2jOWPD90ajhCYNs1X69OmDb775JlM8P6c72cegwsPDM/b+g/NZSpv3c+fOnSZrhtv6n7uM1bFzHo+ZQAM5RUIIkWvwe8h4TGOWo9ccNWaDOL5dO6Sd60opTrHDZHUgvOPHMdDAt2YVvF+0Dbytn9IqVkRcx47mOuzsGXaWOJWS0yPZWP/hhx8yY8X333+PsLAws/objWnuI4QIXjLjjsuKO8npWTMmW/nnn5HG7LsAcSGgOPDWrx+8kYfhnTML3k9bmQE56wTnnjlTvjzirZjF7F2TPZOUnj1jt/+yg+21QYMGZcYk1vRjNjLN5ZzANh0znrtYbVH7GGzvcNo/7xOzm//973+bthCnhN92223mdbZTizKM52+++WZmO5jZ4My4drJ02TK8/fY7uOTi9Gn43JYrj7I9X1SROSOEyFX4kKPshzKzJrgSD6e1rFmzxizbPHnMGEzv3BmRVlBOOcsSrucr1rWJsRoBC61OyJTwcMyaNcuMTmzbts1MvTGp/VanwJnaWljMGWakcJqRvQISH+YvPP9CxqvpsCjwwoULTSeHS1c//fTTKFGiROa5zqQLNWd4H3luZilxJKhatWpmRaiznVvmjBC5C+MZv4/sfGRmMlqdgUPbtiLB6uC4z3GlFFveZs3g7d0bvoULgJhoeK0OhGfAAHhyUFyYcltxL77NZ4jcvg1R1r77DxzA7NmzTaziqDFjjXNluYsvvtis7MapkG3btjWx3B9OT927d6/pMHFqJn/+vuZ38/v8jOtCFHeyxJ2MQTpmzUTu2I64r74y3/9AceE0cTWnz9uaouOe/fvh6djRrLx0vuYM413i++/j0NYtOHHsmDFWcjo4x5jChQvsmESjoFHDRqYdlxM4QNm+ffvMwTC22TigxsEzZu+88/Y7p9Xh4/aMaUUZZna/bH02zvf+mtUncMLp7i+88EKWe/PSSy9hjNWPKKrInBFC5Cp8yFF2Gj2zUzg64JzaNHXqVJPJsdRqaB+uXRupVjB2Z7OU67nIbSnNevifshr5a6xOxK9DhmCS9WC1pzQx3jmLAdOcsa+5MJgzNJL4XpwPqr9f+ndUrFAxY4v0qUVTpkwxqy05t8uJLtSc4X1lQ4ZmCztVzn2yk8wZIXIPu4NEMcYx1vG7edTqJByaORVJbzUOGD/PKquD41uxIr3ml9WpYXHONCtmuVmU3Yo3AfcJoMT3m+DQ7Bk4aD0XRowchfLlK5621H8gcWS1caM/VqazYSena9eumY18blerZi3ze94DIUT+YMcdtgGTU5KNCXLUanNFzpuFhOYfBowHp4ntwQ8+gJc18NJS4Ro/Hu633zavna85QyXXr4dDMybj6P5959QGXLBgAWrVqpUlFtEwyIlBwONyYPA///lPZpvo8ssuR40aNTK2AJp92MwsnmAfmwNvzBikqVOUyYk5M8XqL/B3f/7Tn83rNLaYeV2UaxTKnBFC5Cr2Q85OpWfqKKc2MXuGWSucRztv3jwTWEcOGYLp332HLdZDNyGXpjglWUF8b926mPPVVxg+YADGjx1rRlo5pYrTgZg1Y2ouJOR81CQvOF9zhsV8e/XqlbkPxawUrpBkw2lMderUyVIwOKe6UHOGI9alrQ6c/2pSZ5PMGSFyD6c5w9FrxmFmC0bu3okDIwYhqd6bAeNntrK+126rQ+G1YipXyvNu3w5vfCJ8KSnAtk3wdsi+MLtTCY3rY9fwAfjNanhziuYll1yao3jBbViXwJ/t1rUwq8aOedyO8ZWGPJ9FQoj8wY47bP/ZhYAjrXbLwXHhiH83Z6awm1Of+vWD72QUsHcHPO+9C4/VtuNrF2TOvFELB8L7I3LHNtMutbOnz9YO5JTL777/PkssYrvrI17LWeCUzbFWzHS2idjW69SpU8YWMCYP4xVf48qZTzzxBCZMmGAGN4syOTFntlmx/Ztvv8U/rviHMWa4+meLFi1MzC+qyJwRQuQqdqeADWIzcpKcbB5OLMDLFM0NGzZg6dKlZrUgZs+MHDQIY6zO/8zWrXGoVq0LmubEVZkWN2uGcR07YlT//hgxYoTJ0lm0aJFppPMB66xz4Hwo5zfna87wdc7RtfehnnzySQwZMiRjC6BHjx5mlMZ+nZk1VSpXMSYL7zkzW6jGjRufNt3oQswZZuz07NkzywgQl+9mobefu3TJPC/19ttvZzmezBkhcg9nHM6c0nTiBA7s3Ik9435BQoP6AWNotuJoNk30Ro3gff99eD5pBU+v3vAeOQzEx8I7YTw8VkwJuK+f4t95G78PG4JPPm6RJQYxe4ZxsVu3bhg3bpzpoAwbNgzfduhgikYyDjVs0DDjXf4B4+mnn36aJVvvFet6OZVW5owQ+Udm3OGUpoxCwAf278feyRMR27RJwHjgL+/PneHbtAE+q3/q+fqr9ClO9msXYM4k1XkTe8aMwv7t29IH6XI4tYntRWYjs84fDQLGF8Yaxiq2bbn/mWDtvQ5W/LLjEsXMj+kzZmRsAXMMZtewbcTzsJ3H3xX12JUTcybRuvd2PTLeG9YxZLznZ1JUkTkjhMh17I4BH1h88NFsYB0SZn3Q7WaDmWmifBCNHj0aoUOHYqjVqZ/Wpg1+tzrtB2rVQoz1ME6xHnyBHrC2UkuXRlz58jhcvTo2NWiA2daDOuLnnzEkJMQYM8zOYY0bPvRYkJgpomaFEKujkpKavkoTH35neiDnJedjzjD7iAXl7rzzzsx9OBrDkWQWm7P5+OOPceWVV5rXOVJzz933oF+/fiZriJ+HDYvQ+ZsuF2LO0Pj6/PPPs2z33HPPoa91bn72TjgFwbmdzBkhcg+nOcNYZxvke6yOwqZ58xDz3nvnXXMmU1b8cterB/e8ufDFxqR3lr7/PvC2DvG8p5o3x+xRo/DIw49kmc5EM5fPBMY6Oz6zA8UV9phxyWLBv/76a8a7/AOZM0IEB1lMYeu7SxOEA3NbFi1ClNVGy0nc8U0cDyQlwHf8OLxjxsBrtUu8w4YZ+aZPZ4ADjh6Fz+qoe/v0gbd164DHcYrnjXvrLWyy2oR7duww8dBetels5gxhG+vpp582g112jGG7hW3M7AbUmLnNASp7n4v+dhGaNGmCQ1aMK+7kxJwpjsicEULkCXzI8QHtzJ6xa8/QKOH0prlWYzvToAkNRX+rEx/+ww+YYTWyV1kPr2316+NQjRo4UrUKjlbJqsjq1bGzTh38/u67mNuyJSI6dMCgXr1NBsmIkSONMTNr9mwznYm1bkytGethbrJmkpNMwWJeHx/IBUFOzBleG+8dGxHMOKLBwg6HvT1VsmRJU0jTOYrwrnVPnMWCH/rPQyZtltvwmDw+TbJmzZqdd+ZM7969zZxt3kN+tmyIsQPV0vosnNuVLVvWnJsNIP5NcB9+/jSQnNvJnBEi98hizljfPduc4Sju6tWrcbxFC6TlYCqpm8veNm9uRqi9DRuaqU1ZtqlaFS4rZvisY5vCnf37Z309gFKt8x5t29ZkxVxxxRVZ4gCNZ15nTuMyt2WMZ2zkKh80q+1jsYgwM3Bo5vA5w/dNc94fZlDy2cRpr8yy5Agtt7fF3zFmcRs+z/zhtTK2Ll+2HNOmTjPZmosXLTb3nlPJ2KnjaC9/zymnXLWGx7H346AB4ztjP7dznpuG1Lp160ztHF5ndp1HHovbcTDC/z2cSTTseVwn7KjyPnEaMq+Jo9X29uxo0vDic9xp9Athw79ryjZn+L1h24Ad8cPt2iE1B7WpfFZssL48gWUdk/jSrL8/K675rO+md/DggMdxKq1MGURZbR7GAS5QYVaPyqg7kxNzht+tL778MssKl2x/sX3EwcdA8Lhc5cnZzuK/uY8TxjFn5gwLpPN3/vB4NLvYpuWCD3YBdH7f+f/MEOd+zu804xDbe2YxDmtb7sNt+b4DwTjIzHZuy5jFY/I++cPPl58t27KMwbNmzjLb2/vN/G0mli1bZrJe+PwJxPlkznDVPl6js83Lz4b1LHnus2nFihXmuv1hTGbcY6znsex7wHMybvPvhrHaed68QuaMECJPcHYOGMT5IIiOiTUGSWCD5heED4/A4MEh6Ne3L/r06oUBXbtitPUwnNTqE0xp2SKLxnz+OQZ37my269unj+nYDwsLx6hRozONGQZhBnE2DLh84slT6Ss08XoYiHltvMaCIJA5c99995mOhH29HG3iPRoWFob69evj1ltvzdyW4gPtrbfeOm1JQWavcATa3u6Ky69A69atzQOUx+T2nLN71113ZTkeFcic6d69e5ZpUhSnRLEjwYcmH/p8aDE7hisMcM60vd3tt9+OT6yOHR/wfJ0PPI4a+Z9b5owQuYcdf9mYt80ZdkbYKWEj8+AXXyCxcuWAnRin0jp1gnv9evis765v5Mj06QWc3sTX+bNGDfjGj4fVqoXbimlpXbqcdgx/JVStiv3ffmvi9D+vvDJLrZlbb70NK1etNp26nMTmSZMmmTjqjCVnEs0bdnqc8FlAw4qZgIylNHT+8Y9/ZNnv4YcfRtOmTREREWFis79Jwv/n77mCyMUXXWwMoscee8x02GZY8e7NOnVMh46/5xK54637RdOGAwWM78yGrFevHkqVKpWl40dxVT4WImWWI80SPr8CdSBpuLOjwzoWNPDtzMmziYMi7OwRHpfPRRo2rJHBehqPP/545jQOyp6m+uOPP5pn+JmuRxRfnHHHNmfYTuDf576OHZFQrVrAuOCU1/pO+KzvTkCxIDnj29Ej8FltGq/1vfRYbZ5Ax3Eqyfq7jfzsMxP/aFY4F4bIiTnD7+vUadNMm8aOWddccw1q165tvjOB9uU+bBPZ3x+KCzUwbjmhUc2BLL7O79stt9xy2ja8RrahRo0ahQYNGmQpMMyYxcE9rszJNhwzD234/r602tF2m4t1ubgvDY1AfPjhh7jqqqvMthzkY2Y275kTxgnGI8ZNbs8M6euvuz7THP/rX/+Ka66+Bk8/9TS+sJ41NIMCZRflxJxhfGZxZLvmDDMtP/jgAxNzbfr3729ilX2M7MTj+99bxnDeDw4Us33K+G1Pz2d7loZahQoVTKymOW0PNuYVMmeEEHkCAxcfdvaDmo1gBudTVqP0yNFjWQwaTnGiKz5hwkSMtDoAw6wG4+DBg00mTd/u3dGvW1f075pV/bp1Q/8+fTDI6tAPHTrUNJzHjRtvRgU42mgXAGYAjzx8xGoon0J8QsJpxgxVEAQyZ/hAY+P8pptuws0332x+3nDDDbj66qvNA8lpevDfla3OFR19vicnTP3/3//+l7ktGxIcob7++uvNMfmT/8/z2dvYCmTO0FDhktjO7Tj3moXZeDw+uNiYZyOMo0ROY4jXyXPxffA9cR++Z/9zy5wRIvew4++ZzJndVicp1upUBOrEOJXavDncVsMayVYnfMN6uK1OgadMmfTXmXljNWSxczvAaaKzZyPNajT7H8NfMVZjf9fPPxtT/v6778UljqlIjHM0FxhzzjTa6oQ1tPyXWT2TuBQ3R0Gd8FnRsGFDE2MZ09i5cJoRFH/HmMW49vJLL5sOhXP0lJ0fDgQ8+uijJtZSNNJ5bU899ZR5Tzwmf894yI4E293sZN19192mE8Bt2BHyPzfjJF9j/GSngs81/3hPwsLCzH2gKcPOl/9xziReCzuphMflc4lGFAcK+J7tDExbvH52pHgedsj4HvNjJFkUHpxxx9+c2Wm156Lr1AkYF7KofHl4qlQJKG/btjwJfBs3wPvVV/CweHAOsgDjatbEng4dztuc4es0VUs9VirThOD3jAYNj+mfgUb4+0aNGmX5DrVo2dJkvjih+Upzxd6G3zMaBTY8N+8hl9ymcWPHKtsk4nXw//ndZCyj2WPDdvc777xj2mrclvvwmp3mhhOaMXb84DFffPFFkz1ow3vFbECa3TwX4wRNIu5jX499TTSraRzRuHbWRbTJiTnDjCIaJvZqTTwHzSn2H2xo3jBm2cfITjSmaLI4oeHCAUveFzvu2feA4ufBuMpYzevl84l/N3mFzBkhRJ5hdxBohNgPaxaIMwaN9WA085CtAMvAyPRpZmCw8cyRRT6YaBTQqBkyZChCQrIqdGioeZ1mDgtH/jppkhkV5UOEhg8ffsaYiYxE1MmTppHAYOo0ZvLS+T4bgcyZnIgPS6bScnUmmlpsLPjDh/g333xzWqaNv9jgp1ni/F0gc4ajNV9ZjSDnA9QpPrRojrERRkOMmTvOwnmBxJEZZ6qvzBkhco+zmTOb+vfEicZnLwrsZnZNSAh8R60OfHwcPMuWwztqNLzhYfBO+hXetWs5nwa+zZvh6dw5fZWVAMdx6ti7jbExpJ+J1++9825mp4FizGDHn6OgbCwzu4bxh+8lEHzdf6rnmUSDmdl+Npyiw4xEp5mcnXht/7zyn6aYJzsMdmeMzxWm7zPDxt6WMZH/Hyi+9+nTxzyjmH0SyCAPJHYOeF+YhchpTk74HGCxZP+Mn5yIHSbGbT4XOUJNY4Yj7M7aPWcS3xuzaGjMC2HjjDv+5szGoQNxpGn6ktjnq/MtCBzVsC429e1m4t/5TGsifE/M2nC2XfhdZwYaj+cP21M0MbkdTQXWq+HAo/8qTIwF/uYC27Y2PG/Hjh3x73//28QC53aBROPXhuYMM52dcY4mAz+TQDATyN6O8YnXz8wXG5q4bJ8zu8Te7mxi7GLmCeMk34tNTswZGtL+C0gwbm+2njk2XMH0kUceybLNmfTMM8+YIvM27INwpb+ztZdt8b3QbGIGOv++8wKZM0KIPMVp0LAByMBsDJpTp8zcWKYSchSDc+7Z4F24aJHJBuG8UqYe0qj55ZcxZtpTpqz/H2f9nlOAmCnDRj4bqBy9ZMOVxgeNHz4smVpujJmU5Cx1ZnhdBWnOMHOIBot/Gru/6OBzpORf//qXMXPee+89sxoTH2pncu7ZaWAD5OuvvzbL1LLzY4+A8icbFlzuul27dqhbt64Z3eBrbJCzkLI/PN6c2XPMCBAbB+wE2A0EjupyxJifGTuAHEXluT9q/hGef/550yD421//GGW65557UL58eTSz3junEfD3FB/0gUZWhBDnzpnMGbvmzPKJY7Gj7aeItRrMgToyWdSkCbzDw+Gz9vVFRcF3+HC6ThyH92QUPFbj1tuzJzz16gXe3yEWet/W7gssnzTerNpHU/eZ55/DZQFMDMYpNtRp0rAxzbjunxrPThY7QEytZ6PbaXawfg3jJeMgzWpmebC9y2cAO4w0IuxOFjtO7GSx0c1aXNyeUwHYKXjwwQczTRZ7O0715FROEsicyU40Z/icYlF0xlLGVMZEnotFjXlu6v333zfTrOxReoqmlXNUnPD9Ma7ydcZ3vm92XtjhoFHOuM2Oh/0M4Ogw3yfjP0fAGbM5WMIOJqds2Nvx3tSoUcNcE7f97LPPzEqBHOG3R8hp7vM5xudsQT5PRfAQyJzhQBnbLMunTMSWb9oh2rH60rnqfMyZOCvO7fz0Eywf/4uJf4yD52POsA3LaeZOY4LfT8YM/2wYvv9WrVplmiJsMzHrxn9qJTmbOcM2M01oOw5xcIvToNq0aWNiBb/r77zzjvle8zXW+bPJbXOG7UFmPT737HMmrjBjr54Vb/heGSd4PTSRaWKzfWgfizGKq3k669fkljnDAV6aXnbstMX4xYxt5740stnX4GfNz4hx+OH/psdutlE5aFm1alXzfngMDkwyu5Jx1X6+MBuccfdM2UcXiswZIUSeY3cU7AwaOu982HA+Lue7M7uFcYgONhuLfHiy4U7DZbbV6WcKIac9OcWaMvPnzzcZNxyFZGOXwZoPHM7/pfHD45uVmawA7D+VqaAbkmb+8tSpJuhz9PFMYr0BPug4akKjyq47cDb4fml8sVPD4rt84NrHY/0Zjnayrg3vZe1a6a+9Xvt1U8gyEOzc8T6zpgEb+xyF5j40d1h0k/ec5yS83/wcmGrPugV8QHLbKlWqmIcd3zc/K3sVA4rXxCkGQojcwdlJ4veXMdHuJDG2LunTB7veegtpOVg9xWN9z719esM3bQp8ixbBt2wZfNYxPBMnmDozbiuuBNzPIZ5nu9WBWDxggGnss0HNeN/+u2/x7PPPZdY58BdNY5oUNBoYIwJlC9K4yelqTeysMPYwW8/elp0DmjuMWXa9BnZCGG8Zs/xrbrG2A58/JDtzhuY7R3TZ4aABw3NwUIGxl500xlLGVA4y8FzOjgsNfBpTzuxGGiucOuqEcZWZinyd0wxoOjFW8znBa+OzkTVt7IEAZsawDoQdrwkHNjidwTbdeRz+Pz8n/u3wHvInOzXsrDhNML43dqD49yYE21Ym7qSmmzNs47F9x79D/j0tsjrRW997z6y26Q4QJ84q6zvjs9qHvogIeK14EnAbhxh3dlv7LO3Z03xnGf/YPmE85N8042NOzRlus8lqu3CKpP1d4U+aNRxQtGMNt+MAIbezvyc0PTko5W/ikLOZM7xO24Cl7rjjDrMQBAc5CWMaBzmZ0UKThvHIJrfNGb5H7tvh2w4m5tJgX2t9trwW3kdCs5YGkfOcNEmYdWTXuCK5Zc4Egufh9CXW7bL3o+HMtjSfIXwf/LusVLFSpiHN62CsZIal/Zzhe9pgfWa8rxwo5XY05J544onT6j3mFjJnhBD5gtOgYaOQD0Q+NNgYZSDnKAZHIhmP+JBh4GXDnY1rNgjZeHSKBg4f9pxGw0YtOx00IzgCyIrrND9oAPlnzFBCCFHU8e8kcQSbHQZ2DsyqROPGYcn33+NUpUpwv5JR5DeP5LI6SCcrV8bCzp0xY8IE06hl7KYBQTFrg2nvNB9oNNgdH3/RFKZZb08psjkXc4aNdhoMLM5rb8uOAzs2gVZz4vWxc+C8Jjb4WQyTBDJnOALLUW7WZaARzuPymcfnljMVnp8R3wt/x84Ar43GjS0aN8yatI9LMWvHCTtPdiYLM184NZjPVD7reHz+m/fX7qTwvbKGg/Mecmowf28fhx0PZmg6r8UWpx87s3nYMWXdN//7LIov/FtITUs1g2P8m2bbjN93Dqb9NnEi5lud5qgqVXJmDF+AaP5EW/Ft2bffYrr1PaTJwCxtxkHGw7j4OBMfc2rO2DBTz38aYd++fTO/2zweTVjWnLJf//vfLzNZNzSF/MmJOcMVM+3vJ00PZgVyQJNxgzHoTN+/3DZnnPB98vi8BsY4tuPtOMFrc8ZYxnaa2tzGJq/MGd6LiRMmZhZZ5n2jAUPjmv0HwkFiTotlIXb7uBwgcC7K4RRrOfrXN+O2eYHMGSFEvpHFoHG70k0a68GYkJiQadLwwcWRSxo1fIDyAcLUdX/x94xdfOizJgEDvr8pw+NTPJ+MGSFEccGOtRQ7SWxAM74yXrLRzAbvzN9+w3SrwbmyRQukWg3iQJ2b3FJiuXJY2qoVpoWGYtbMmaaBTEOFsZsjrozdvC6OwrIh7qxD4xQb8RUqVsQy6/rZMbA5F3OGzxd2QNhZsLflqDQ7kYGeETwPC3bS+LC3Z6eF5gUJZM6wkc9pSRxA4Os8rm3EODuAfI2GDY9Pw4TXTJPEFusbOI0Qyt+c4fQBe2oq3xOzFfn5sqPIz53Xxg4Pj8VtApkznBrmNJ/YkWEHznkttpjJY3cSKZkzwokdd/j3lZiU3nFne47fUQ60zZ41C1PDwrDY+r7G52Ra5QWIpvDq5s0xfdAg/DZjhvkusFPP62E85PeD13mu5szAAQNPWx2o7eefY8fOneZ1dvyZoWEbLowXN990szl3oO9JTqY1sTCvnSHH7yqn1vC7x2mFNAkCmT4kL80ZTg/jdHQaRVygglM07TjB8zljSn6ZM7y/jPH169U3NcK4PWMoF8lgxqQd9xh7mYXIaav2cWmqOxflcIrZhM7nCyVzRghRJHAaNHwg0jzhg4wp2HwA2SYNG8rHjh3H4SNHrUB72ARbpw4fOWIeRtzONmXYGOVxeDwel8fnec7loSuEEIUdO87anSQ2RBlbOQLIRjkbxXPnzcPkceMwtXdv7GzUyBgogTo4F6r48uXNdKZJ/fph8vjxmDd/vllan9fBTEeOCvP62IlgTGdmD+vD0GxxrjpnyyzP36pVlumd52LOcFSU9QNs04NGCmsMZDddlKsaOVdToVirgPDa/c0ZGhhcQteuSxMIDjKwU8baXPfee6/pAOSkqK+/OdO5c+fMDgbfE0ern376aTNqzGV7+W92LNjR4jacItbP+ixsc4udJU6RcJ7jXMT7QnMpUKdTFD8y444rPe7w+83vOb93NCvnL1iAyRMmYOLAgWZ6E+vBBIobF6ok6+9/t9WJn96jByaNHYs5c+eaeEBDgXGQbUZeH+PjubYTaVZw2p/ze1C9Rg38llFwnLGkYoWKmYYoV8hkjT3eh0CczZxhe5bThBgr7Ck4NEhpanCqDuv+MUuPqxYx85xZeja5bc7wHvGYzCSh2cLYQzODcdTfSHYqv8wZ9iM4bfOeu+/BX/78F2MQ8fpoIjnvP/sLNLJzWgg4kFg2gOfLbWTOCCHyHQZ3ig9Eio1EPiBpqtjTnRg4+VCPiYk1D1GOvmTK+n/+nq9zOwZH7udvylD2uSghhCgOMN7ZnSTGROfUJmbP0ADhFAPWnBo/ahRmdOyIjU2b4oTVwE999dWAnZ1zFY9zzOqwrP/gA0zv1Anjf/nFTEliPTFOcaBxQXOd8Zuxm3Hb7iDxWrkNizxyRNbZ6GdDnrVbuI3NuZgzNEWcJggb7uw4saN2JjjC6qxRQ53NnPnuu+9MLa5AMCuUmTfs2HC01nncs8nfnOH95D0KtK2/OCrM98qODe81YR+AxY8DbZ8TcfSeHR//+yyKJ3bc4feZ32t+v/k95/edf3f8rtDEGDd2LKZ37oy1zZrhqNVpT8nFuBNVrRo2NWmCGdZ3cMKIEZhuxbnFVrzjlCZOU3ROaWJ8tONOTqHBwOK3tlFC0Vzp3bu3iQfrrfNwGpKdOcKpiTSc2WYNxNnMGV4bByGZocai3P7bUoyLPCenXDEm2PEst80ZfqZcDYoLVOTETLaVH+YM+wes/UMDmoXbuS3fN98/zUF+1jYcrOBxaJw5j50TMWbzHtIwy+65cb7InBFCFBh2B8I2UmwxgDIVnw9Omi4UA6At+3d8nQ8Ke+TDlt04OJeHrRBCFCWc8ZUxko10TiHiqDFHV2lcsEAmV8XjtJYJXbtiScuW2PvGG0goV+6869BwP2bL7K5TB4tat8b47t1NfRau8MFCxGyQ0yDhdbAxzakPztFrJ6es1ydZ+7EQo535QbF+ChvXNueaOcPRUvt455M5w32zm9Z0NnOGtQ7segj28ZwZLywkykLpNIT8O0D+5gzrB9mFR3kcnpudHdv0sX9HI6hBgwanrfbETjOLHjvPwe1Zi8Eu2J6dWKiZn6met4L4xx1+r/g9Z9YCv/f8W2Fnn7WROI1xnPU9Wmh9d3fVrYs4K264zjPuUIxb+6z4tYzL8HfpYuIap54wznH6IOsTMvOacZDxkNdnm8LnStiwMJS8o2Tmd+aSiy8xmRhbrXMwXthmCI1l1iqhKe40B5yczZyx4UAlv+8dOnQwJgZrQ/E8zmwarpDElYSYIURy05zhZ8vMdsYbHsPe5uprrsEjjz5qDBs7Lviv1pTX5gz7Apwuy4wme1Urnp/PAdbJYp/BCY0yTsdixqJ9XN5Hflasf+aMcf5iEXaa3KyLmRfInBFCFCj2g9wpPtT5wHSKDzU+SO2HqVN2o94pNRSFEMUdO54yftJEYIOUo8YcPWZmCk0FzsNn0Vp2ZAYOGIDR332HLQ0bmo5SitVQZt2Gsxk1fJ3FPbl9jNWw3WR1BiJ++AGDBg40x2XBWa5OxIY2G9U8P+vNsP3JjhIb1nYcd8I4fmD/AdNBYI0FNqDZAWGNmPM1Z2iY8DWn6cHjcWTa//yE9+6nn37KUnPm6quuxgDrXpHzMWf8a9hc9c+r0LxZc3N/+BnZzy928vxXirLNGW7Da+NIub0kOKdRcKnYx0s9bjqO7HjwvbHDwuyWQO19dpy54p6zjgyX5A3UORQiJ/Bv04477BQzy83OnmFtKXai58yZY1agpHHLzLTwH3/ERqvDy2W2GUcYT3ISdxifmHUTX64ctjVogDHffmviGFdeY2YDV97h95PZgplZM9Z3jN9bXl+guJMTaDRz9Uv7O0NVqlwZgwYPRr269TKnNDFbjauyZUdOzRkbtnsZrxi7abxw9SZnfRfGN8ZcciZzhga9s53Mf/Oz4uqa9nb+5gzb3zTYnLGLx6KhwvPx3towrpcs+Yd5ldfmDP+2GKftbRjPWAOHUzYDwYwuTj3l6nX2Pvys+MzwN3LyG5kzQoiggg/JM8l+iAaSEEKI02F8ZOxkw9rOnuHoMUdWWfuFKydNmz4dYzIMmpD+/TGkc2dM+vRTrLca9UerVUNSmTIBO0e2Eq3Xj1SvjrVWI3pimzYIsRrJIVYHicej8cNpBZxGxZoTHLFlx4Aj5zQBmCLPWjOB4jivmaOTbOTbU5v485GHH8kyReBczBmO4LNxTwPF3pbmxpSpU82UWX842s7tnZ2fZ5991mQckfMxZ1q3bp3leKwZwc4Y36/zPmRnztDQ4vt+8sknM4/FaQ38bHk/+T6ZncSfdvFTdur84fmYwXDF5enmF8WpXqzbIMT5Yhs0/Ju2s2fsmlf8TtvTKtmpp0ETMnAgBv/8Mya0bYs177yDwzVqILFs2YDxxhbj0jErPm1s1AiTrO/U0E6dENKvX6YxM3XaNJNpwjhHUyEzayabbL2cwvfB77j9naH4Pa5bty5uuvEmY2zwd5z216dPn4y9AnOu5gzhddNEoMnNWjM33HBD5r5cvp9mLAlkztCYpuHizBakUUXDjFNG7e38zRka4jSEnNkmrN/FVeX8Y3h+mzO8X3zf9jbMmvnwgw9NpmQgGLdZM4ZToOx9aKhxKq2zNk1BIHNGCBF08KF+LhJCCBEYxkg2mtkxZ2Pe1ICIisKBgweNScKOCzswNGjSM2isjtKgEAzp0QMjOnbEuK+/xrRPP8WSJk2wunEjrGnUMFOrrUb/4qZNMfWzzzC2fXuTLTOkR0+EDB5iOlxjrY6XqfeweLExZthBOnjwkPVzJ0aMGGHm+9PU4IojPDc7PLaZwsY9Owtc9Yhp6nZmB6c4cbUhZ8cikDlDU4OFb2li8FjsFNj1y/h7e2lpig15prP/8ssY08kgvFdrrWtu2qQp7rj9jsxtqWbNmpmOBTkfc4bTDuxpARTNkB86/mA6j/yceA2sUcFaMmea1sTzcvUbZ+eC74mfZ3ZTtAIxb+48Y5TZU6GY3s8pVswOYueG95CwA0ejZ4313mm8tfqklTGQhPAnUNyJsv52Dh46ZIxhxgPWgcli0IQMwZCePU0cYTyZ2qaNiS+rrDiTJe40amTi0XTrO8/4NOL77zHE+l6EDBps/i5pNE+bNg0LrbjG7ynj3IEDB3HiRJS5Dl7PhWTNEH7HJk+eYlZQsr83NCDuLJlebNyOVyzUay/ffCayM2doIjHjhzGSJgin6DjNA06X+vbbb7MYJowJNBkI3yuLhtO4tV9nnHznnXeM8cGsJho8nGrJaUmc5mlv52/O0OjhPnamHsVYx8w8ZmLyXMzomTdvnonHzhiXl+YMt6EBZa9mRXHqFd+THbv84d8l/wady2Pzc6PZPXDgQPM3yhhrw5jMqXGhoaHms+D0UGemUG4ic0YIIYQQoohid5LsUWw2oGNjOb2J0wyyGjTsKE2wGrSjRo02jVBOS+rfrx8GWB2fUKsDNMLqMI1ob3WGMhTxTXuEduyIAT16mO04PYGjkaNG/2IaxiwAnNWYOYjjJ06YdidHt+3aAGzsly5d2tQAoHHBGiitWrVCtWrVTAq93fn521//hhdfeNFcJztXNuxccHTa2cjnCkVseLPYLY/F19kZ4D2gmcOVjOzzsyPFApLsGHz88cfm/MwcqWd1Apz1adh450jx6NGjjUlBzsecoenhzIixzRCaPiw0ymtgp8U5Gm7LNmf4PnhPn3rqKfz1L+nXx84Q68q0bdvWvAeKHbdOP3YyI+mcRsKODK/dObDBz4MdP2bP2Peax2JNC34mvBc81ldffYVPPvkEdevVM502GmXvvvtuxlGE+INAcYfZbjRI/A0aFgieOPFX63v1i4kfg604YuJOz54mvkRYf3vOuMM4NMyKRwOt74KJO1acYrwaacWtCRMmmviQ1Zg5gGNWR5qZH7wOXg875xdizhBeP7+3f780vbYK44SzSDDNAn5faA5nR3bmDM0kFvjl9ETWvWJ9LNa2sb/fjBnOaZ8UTV2aU4RxklmKzpXv+B1nXK1Tpw4+++wzMzXSv0YM5W/O8Fg0imj+2O+TRg+nVdFAYZxo2bKlidvObEcqL80ZTl1ymk8Ua2YxNtn3yRbjHOsQ8e+Tfw80kexpWuY5cPElJjOS+7Kelr0fYzLvFzOL+ExgfM8r/0TmjBBCCCFEEcXuJFHskLBjwlHfGKthmm7QHMg0aNgJYLbK1KlTTSYLs1tMZ2nwYAzo3990hPzF34dYr3M7diiYLcOOAUd4eTx/Y4YNYjbQuaoGawLYq2qcTTRS2Cn4/rvvzQiu01zg/7MDwU6Cs3PkFIs8siixTa9evdI7Vn4dkjOJHQiuusIpSVxtyeZ8zBleKwtKskNlj7AHEs/pf322OcPPkx23Zh82y3Y5WHbELr/scnPtNKs4Ys7PitfGvwXC98BR4TKvlTGdKNugOZt4r2neCOGPM+7YBk1ScpIxho1BY/39MS4wPvD7w3jBuMEsGsYRmreMK+lx5/TYw98zLvFvmXGK2TKMW4xfnDLlb8ww3jHu+RszzjhyrjBr5YsvvzS1SgJ9P2gYnG1KE8nOnGFmC+vb5GTJZ35vaZiy9oodo/gemZFIQ8OZFeMvxiFm6TEDx97O35whjLXMHPGvc+Mv+3i2QZOX5kydN+ucMe77i88Rmiw2/Hvh8Xh9gbYPJMZtFmWWOSOEEEIIIc4Zf4OGqd6su8BpPkzXtjtKrAXBqTLMduFoNuuwMH2bU2zYWQgfHuGnEdbvR5nXuR07RzNnzTL7r1q1yixdyxFyY8xkjFyzg8TV+Pj/HJHkikSc60+TxtnYZ+OenQOaE+wscMSyb9++JksmEGz0M7Wdo6AczXUaDDwOR3M5om5DY4MdJ2aHMEvEPr9tlvAn/5+/5/WxngGzWnjdvIc2NDY4bYH1Jux9OV2Lo7lnulbuw9Hs559/3hybHQv7enkMdmjYAaDhQ0PKeU32KlH8TNnBZMHTMo6Vn3IidsD43p0dJXa65s2fbzKKWDODo/7+HR6en/eSnSl2vNihZCdFiED4GzT83vP7zzjA7xG/H4wPjBOMFzRVGD8YRzLjzqhRJs74xx7GI77ObDB+l5ilx+w/xi/GMRozjDuMb4xzjHeMe/zu2td0IcYM4XE5HZTTCf2NCn5XuPIRC6GfDZopNKrtfXksZucRZvqwiDJjAY0Ffif94yTjBb+vzLT74IMPzP30h/eL323bMLFjCuMOYxwNZRolNEKYOcLXuN2LL75o7qsNP0d+Zg0bNDR1bLivf6zltTAGMr7Z2X80sFhA2RlzOCDgzNjhcbhanRN+njSA7ePzupkdyHtiQ9PHeQ3ZidvRqLdh3OPfGjOSaNDwWvi+/Y/H3/E1xmtmT9IUdL6X3ETmjBBCCCFEEcffoLEzaNhR4jQXFuvkaCun/LDRTMOBJgtHtGlq0KjhVCVOG7DF/+fv2THidtyejWnuz+PweDwuj2+vkGKPXFPs3HBUmAUt2XHgqK/dKGaj/56701ca6t27t2mM01Bh5yAQTLnn+bgCBzsX7GzYDWt2npjJ4iwOyfvB43H0lp0jTqvi+S++KL1uDRvjXN6aHRZeH7OAeK/8z8/3w+OyZou9L82PoUOHmg5oIHhu3g/eK057oLFj15bh+6ZhxalYvDfMDuB0I3ZKmAHDejmE75edT05huPIf6SvD5FQX/e0i3H7b7Vizeo05FuE1sfPKe8i6HUzrf/zxx7N0Utg5ZDYAl5PlFCf+XeRVB0UUDQLFHcYB/v1zug/rp/BvjoW3GTf4naBJw7oljCvpcefX0+POlCnm78+OO4xX3J9xgv1aO+7YhrAdd+xr4XVdKDwOj8/pj84piPyu8jvLVdBy8v1g5g9NEO7L7xvjkF1wnNdJg2bir7+aKUycxug8F6dUcZl8GtMhISHG8HJO+bThPWAWCr+3nFJp1+eiiUKzgvtyyhIL/trLadMIYvxlVp0T3kcaQDSKjeFzxT8y4wSnXzF2jBg5EnOsz8au6cJr5jU6YyIHBPieaHhwG/5kFosTGkE08fk6RYOEBpQzlrMGmbO+TXbiORo2bJixZ/r95d8jj8fi9G+++aaJv/7H4z3mfeE0UWZ9snbZmZ5FF4rMGSGEEEKIYoB/R4kj2RxRZkeJHRl2JDgNgGnwNFfYAOeKR7ZRQ7Ng/vz5meL/s2YEX+d23J6dLO5P44DHs42ZM3WQmLbPzhk7ABxlZqeL0484xWH+vPlmFJwdjjMVdrThsdgpYSOb0ySYUcLjUOzo8fdshPvD33F6AjuFPP+0qdPMPvYUCf6e10cjJxB8H6bjs2x55r7s4PCa+X7PBPfjqC1H+Hlv2dG03zdHqtlx4X1jJ3PG9PTX2CngtRLeV3aOaGCxY8QRay6fTSOJo+7cnuKoMA0eFia1i4bao+3sFPrXw+Dnw2wDThtgJ9n+POzz8zPnZ837SXMtrzoooujgH3f4veB3xjZo7Ow9xg3GD8YRmqaMK/wbDBh3rO/MckfcYbxiR57xyxl38iJjxgmPxxjF77z9PTHGkfWdpdmRXQyw4Xecxom9L+MQ74kNr5fvh++RJrHzXNOnTTfTjliQl0YX3+eZYAzj95bbM85wfx6Lsdfel6YD7z1fYwyk4UUDyh/GTX5m3NeY9xlxgp8PY4c9hdV+X4zHvE/OOM74x23t2MefnObmJNH6O+HnytcpxiC+V/792HCZdBp59jbZiefgdfjDZweXe+drjL/+x+M947XRM2Hc4+eeV8icEUIIIYQoJtgdJXaq2RinQcORWTbc2ejkahtsqLPhzfYhG8bsMLFBzE4QG6+2+P/8PV/ndjQxuB/353FiYmPMcXl8nievOkjFEa7sxPR+O0OII+hcaYSdVhpeNrz3/Jw4NYCZQM7RYKbm83MSIq/xN2gy405igunE03yw4w7jSE7ijm3IME5liTtWHPOPO4x3ijuiMCBzRgghhBCiGOHsKDlNGo6GsmNvmzQcveWoLrNA9h84YEaC/cXf83Vux+3ZybI7RzyenS1jd47UQcod2BllNgxXpaLRwjownK7QtWtXU8zZHvHlvzlti1O97FR9Ztlw+W6ODjtHoIXISwLFHcYHxgnbHGb8cMYdZsLkJO7YpgzjFwsP26aMjBlR2JA5I4QQQghRzHB2lOxODFO7OdrMDrvdWWKaO6cenIg6Ca7uxJoBmTpxwvyer3M7joBzP+7P9HUezz62fS51kHIHdkrff/99Y7LYxT1zIhYTZSFPFv7kFAch8pNABg3jBOOFbdIwjmSJO1acyRJ3LDnjjm0GM+4wfinuiMKMzBkhhBBCiGJMoM6Ss8PETg/rA5xJfJ3b2YYM5cyUoUTuwnvO2jpPP/V0ZiHinIjGTN26dU1NG3ZkhSgo8iPuyJQRhQ2ZM0IIIYQQxRj/0WxbdocpzZVmph9Q7AiZWg7WT/t3fJ3bcXt7X3WQ8hbeVxY8ZfFQLtvNZWofeOABswS3c6ldrrjC1aq4mlTz5s1NnRnW7eDnp89FFCT8+7Njj+KOEOnInBFCCCGEKObYHaUzdZhs2R0nZ4fIlt0h8pfIO9hZZQFVLinM5bs7d+pslnvl8rMUV28aOHCgWbWJK6+wpocQwYJ/rDifuEP5H4cSojAic0YIIURQwcYZiwBy6UIWtGTRylWrVplCf3xNCJH3BOrs5ERCCHG+BIopOZEQRQWZM0KIQg0fykxvPXHihFlGkUUSA+no0aNmGxaP4zxljrSI4ISfZ8+ePfHggw+atHyuMFK2bFmsW7dONRKEEEIIIUSRROZMIeDGm+7BipW/Z/yfEMIJU7p///13lCtXDnfddRduvvnmgLrvvvvwyiuvmNUthg8fjv3792ccQQQbLPT34gsv4u9//7sxZ/785z/jqquuwpgxY8xymUIIIYQQQhQ1ZM4UAmjOvPJKZRk0QgSA8+dHjx5tsiucRRD99de//hX/+Mc/jFHz0EMPoVq1aujfv7/JqhHBBc2Zx0s9bgpZ2p8fjZoRI0aY7CchhBBCCCGKGjJnCgE0Z4gMGiFOh9OVBg8enMWIyYkuu+wyPPvss+jTp49ZilG1TIIHTl1q2rQpbrnlFvNZXXrppfjPf/6DOXPmmNVJhBBCCCGEKGrInCkE2OYMkUEjRFYCmTPszJcsWRKVKlUy4pSn5557ziwn6tyO2RgvvvgiNm/erFomQQRXY5g5cyY++ugj8/m9+eabZsURFgnma0IIIYQQQhQ1ZM4UApzmDJFBI8QfBDJnbr31VjRv3jxjC5gCwCwm+91335mpTc7pT7fddpspPqvpMkIIIYQQQoiCQuZMIcDfnCEyaIRIJyfmDFd0crlc2LVrF7744gvceOONmduy0Czrz+zduzdjayGEEEIIIYTIX2TOFAICmTNEBo0QOTNnbGJiYjBx4kTceeedmdteeeWVZtrT7t27zTbMoPl10qTMKVGffPIJZs2ahVOnTmHs2LFo2qSpMXMaN26MQYMGmX2csH4Np0mFhYWhbdu2qFu3buaxqGbNmqFfv35YsmQJEhISzlrrhlk/mzZtOu14lStXxocffojOnTubKUC8Pn+4XDhrtCxcuBC9e/c2K1X5XwuLIq9YsSJjj8Bwyhczj7htixYtUKNGDbP/G2+8YaYedenSBStXrkRsbGzGHn/A+zlv3jz89NNPeOedd8y9477169fHl19+ae4hTTPntDL/aU08Hz/PY8eOZWwBxMfHY+nSpWjYqJHZhjVqRo0aZe4njxcREYFWrVqhdq3a5vXXa7+Ob7/9FgsWLDCfUXZs27bNrOjFz577nk08D1f/0pQrIYQQQghxvsicKQScyZwhMmhEcedczBkaFTRanLVn/M0ZdszbtWuX+frDDz+Mzz//HCEhIShdujSuveZaMy2K+9WsWdPsY3Po0CH88ssvxrhhjZvbb789czloW9dffz0ef/xxvP56ulmwZcuWM5oFPB5XomrUqJEpXuw83p/+9CdzrAceeAC1atXCkCFDMvZKh6YOTaLu3bsbE+XRRx/FtddeG/BaGjRoYPbnvaShY8OMIy5dzVWS3nrrLbPtTTfdZFa+4v6XXHKJyULi6lesC7Ns2bKMPWFMkp07d6Jbt27GkHnwwQdNlpI9pezyyy83dYGeeuopU09m+/btGXumL4/evn173HPPPWZbno/Tz2i62PBaaRbZWVD8TGlW/fbbb/j444/x/PPPo8QtJTJXfLr44ovN8WjSDB0y1Nxzvj8nzK769ddfM/fnyl7c92zifeFy7rxuIYQQQgghzoegMWfYSD5fFXWyM2dS09wyaESx5lzMGRoNIUOGmI6+ve3VV19tzIt9+/aZbdauXWsySuzXue0zzzyDp59+OvN3tv73v/+ZfciRI0dMdssrr7xy2naB9Jc//wVX/uNKfP3118ZEcZoihEuE0xR5+eWXA+7vFFeeYiaNDY/FY3bs2NGYFs4lqQOJBZT//e9/Izw83LwPGx5n2rRpxpS6+KKLA+7rFLNNCOMyl8OmMfPgAw8G3NYWzRoaT8yusaFx8vbbbxsjyN7uiiuuyGLgsDhwhw4dMg0nGk38nGgEcVt7P3/97W9/w7PPPGuyhZzZOjznxo0bUb58eWMiBdr3TCpVqhRWrVqlotJCCCGEEOK8CQpzhg15jrIaWZ0Bb1oavFYj15OUBI/VwDeyGs7e1FR43e4/ts1QUTdosjNnSGxsggwaUWzJiTnDOMGsBhoWnE5DQ8belss1s1Awj0P8zZnsZJsznM5CY4IrP9mvMbOFpsl1111nMjAo/pu/cxYkvuLyK8yUI065suH10hSpUqVK5nYUs2ZoRtjHoyHBDB5msLzwwgsZe8NMceLUKTvzxN73mmuuMZkm3PeGG24w+9rGzZ///GeTATJ9+vRMo4j3rGHDhmZbbsPrZkFl+xj8yeuhGcLsFk4lIsxAodn1yMOPGDOE+/Int6XhYu/L6+G+zFK5UHPGKb4nGiw8h/0++f7s13lcTvFyTpNizaE2bdpk/m3wvfKz4v7cnsficeysIYrZONy+QoUKJuMqzXp2CSGEEEIIcT4UmDmTxZCxxM4AOzjulBR4t2+Da+lSpM2YgbRff0XapElIsxruHqvT5LEa02Y7P5OmKBs0ZzNnyLFjJ2TQiGJJTswZZqGw7gprtrDD7eyo33///ZgzZ46pYULO1Zxh7GEM5bQedtbt12i6vPP2O2aazeHDhxEZGWnqqHCKUokSJTK3o4lDw4jXZ8Nrad6sOa6+6g8TieL0JU67sY+3aNEiMzWK2R40UWxmz56N2rVrZzES+P9jxozBjh07zL5r1qwxmTU0ZOxtaGqwNoxtVNEk4bQu20zifeV0I5pcvAaaJTSRaGqUvKOkmdJFOH1s/vz5ZtoS3x/3ZWbO5MmTzb3ivsxSoZnD905zI7fMGV7rE088gQEDBpjr5OfJe+TcjllA9957b5Yi0KyZwylitlnF98prYIYNz7VhwwZznLvuuivzODTEON2NGVl8JhX1gQIhhBBCCJF35Ks5w4arLduQMabM/v1wzZqFNKsx7bY6C56PP4a7aRO4rYax2+rIuBs3hvvdd+H58AN4vvgCru7dkTZiBNzr18MdG5t5HOfxqaJCTswZcuDAIWPQCFGcCGTOcJoOjQG7YOtrr71mjBT+zrkdpyzRiGGmCWMIOZM5w6wX1pIZOHAgRo4caWq00IxgLGNdGNZOsbel+fPuO+9i7py5WYrk8t80IWhIOI/9yCOPmOMSHo+GAA0X2xTh8cqUKYNx48ZlKfzLgsKM36tXr8Z6Kx7adOrUKTNrhvuy/g2v1TYRCA0QZrfQWHFey7tWrKVRYW9DU8V+jVlGNLiOHz9uXmeGDDN+WFtm7ty5xnQhfJ80iJzTx2h8TJ061VwzYZYJj0PTg+fjtdmcrznDzBZOwZoyZYq5Fp6DU422bt1qspp4DG5Hw+iaq6/JUsOGhYKZXWSbSaxDxOtl7R4+T5hFRAONtXfs89EE4lQ2IYQQQgghLpR8M2fYuLWzXIyZYjWa3aei4V6yBO4+feD6+GO43ngDngoV4HnlFXhefjmwrA6Ku1o1uGjYtG8P94QJcFsdA3dSsjmufY6iZND4mzOJiX/UNaAZ4y8hihOBzJmciOYFVwPiqklOApkz99x7L1p+8olZHYjmCM0DGhD8N+MN68Y4pxAxY2X8+PFZpirZcL+ePXsas8fenlNwuHIR4fG4KpTT7OHxOPXKaSZkxwcffJBZOJjmDIvxcqWkb7755jSVLVs28zwUCxXTaCE0Nmhq2dkkNDf4/zRF+P6Y/WJnHDlhvZnly5fjjjvuyDwuTRQemwWKWZSZWStnKqB7vuYM6+twilh0dHTGVunweJ999lkWc47H4/XbphwzfTg9zDZnXn311czPkJ8J3xNNn+rVq2ce47///a/JnBFCCCGEEOJCyRdzxjZmjCljyR0XB9fOXXBNmw5PmzbwVKkS2IjJiZhdM2AgXKvXwHX8ONwu12kmTWHHac7QmLnsshsxZeoc8/+lS1exOgy/mX8LURzJqTnDKUfsyNNEYXFfmiGBlpAOZM4w+2ZFRjaJP4w3NB1YP4XbsrYKa6pwFaYzwQyY//znP1nOwXMSHq9r167GULFfoznC6UyBzB4njHc0f1jg2HnscxEL6s6YMcMcj5knXCaaU3nsLB6aFzSWOKWndevWpmgxM19oiNhZOdyPWTmsmeOs70OjiCtO0eDglCpOc+I0KxofjNc252vOcEUqrhjF/Z3werhkN80Ue1uuFsVsGZ6bMPvo0UcezZyaxuXWuYoVzRcuv86aQjS4mD1kH4P3wJ7KJYQQQgghxIWQ5+aMbcxQbLinxcUhdc0apPXsCbfVQPeULh3YdDkXVagAV4sWSJ06FanHjsHFYsIOg6awY5sztjHDujL/+U96IVJOZbL/LURxJJA5YxdzpUlii2YITRRO+WEH/kxGRyBzhoaFc9qQE8Y1Z6f/n//8p6mh4qxn4s+kSZPw5JNPZjmHbc7weE2aNMliAtAw2LRpk3k9OxjvuKSzfzbMuYjTpyZMmGCOx/jNJcY51enmm242mSX+23MqEbNMaLRwmpIdcxmDmYFTsWJFU0TYLgzsFN8jzR+udOTMwMkPc4Z/H6NGjcKJEyfMNly2vHPnzlmOl51omDHzivdbCCGEEEKICyVfzBk20o0xw6lMM2bA8+mn6dOXcsOYoTgNyupQeKyOl6dfP6RZnSLWQnAaNIU5g4bmjNOYIRUrvo5Fi9JH8vlvZc+I4kogc4ZmDGuDsO6ILW7HwsA0ARiLzmTcFndzhuemWWLD62FNGZobgY7LbBiaNiwIzDo8zilFnLbE7CRO+2JhYf99aaLR3GEGSm4UBL4Qc4YZNLxWZ52cM4nTzPj5sdgzjy2EEEIIIcSFkmfmDM0QO2vG5XYhNSEBqevWwf3ll/BUrhzYZLlQvfoqPG+8gbSxY5F68KBpNBcFg4Z1ZJzGDOG/7//X4+bfW7dutzodT5t/C1HcCGTO+K/WdC6cqznDGMNpT8wO4bbnM62J5ssnn3xiXqMZwilXrJ9iv34u05qY6eJcgpsGCLNhevToYbJbzibWYeHUKCc0WY4cOWLqyHCFpXbt2pmpYfZ7pmhY1K1b19RuccICwLwmZtFwBSUuYf3vf/3brJjE/ThNisdhTR37WVQQ5gzr+fBvhuYaX+cS2lzJy7m6F3/3yiuvmM+HK3zR7BNCCCGEECI3yBNzxjZl2GlhBktKYgKS9u9BmtU5cNeuHdhYOZPqvAlv9y7w9ull/h1wGz+5WrVCyqyZSIo5lcWgsQ2jogIzZmjMkFKlXjQ/hShuBIM507Rp0yyZLjQqWDyWS0r7ww49a8o4CwKzcO5PnX8yr/N4/fv3z5JpQsOHU26yy8YhjG88Z4P6DTKnEdFYeOmll7JkppwvjKNcvYh1YliDpWbNmsY0sa+TxYLDw8Mzts4KTSe+d9Z26datG55//vnM/ShmOtFYIfltzjBrhkuCs2Cwfd+Y/cR6Mz/++KNZQpvFk2lw0STj6k/KmBFCCCGEELlJrpszTmOGjfGU1BQkHj6ExCm/wl2nDjyvvRbQUAmoOm/A17cXcOQAvEci4WnZMvB2fnJXrIiUzp2QuH4tkpKTitQUJyeHjxw12TNvvdUMa9dtzPitEMWLgjZnGFN++ukns1S0vT2zVZo1a45FixdnqaXC1Z3YuXeu+ENxqW9m0xAej8tQ01BxHo/ZMNzXfyltmhQsyOssbvzFF1/gphvTjQ1mptDA4DUyg8UugEsYF3l9hyIjzZLWc2bPyVwOm9fB43P56DWr1+DgwYNZ9uXS1zSZnKYUs4GYHUPjgjVcFlvvf/PmzaYWDVd+sqG5w8/H3o9iEWPbQMpvc+bYsWPGELNfo3h9gVaiEkIIIYQQIi/IVXPGNmYoGjNsECfFxSHRaiynWg1dUxcmgJmSRawfw3o0VufFN3gAcDySPQh4jx3JsTlDuerWRbLVSUg4edJ0CvwNGiFE0aCgzRnGPU7l4dQhmij2PldcfgU+/PBD8xoNj8jISLPqD7e79JJLM7fjlKWWVmzjdCL7eJxCxClC9hLWtmrVqmUMGvt4ixYtMqYLC/KWea2M2Z+MHj3aTL+xl4WmHnnkETMdicuB23V4OJWH18flp+vVq4cSt5Qw+xIaHKxz88jDj5gsEi6B7dyXxkuLFi1w4403Zp6jVKlSGDp0qDFjQkNDzf/TZOFUKN5Xe19mFTHrxt6P4spIfD/2ufPTnOH97tOnT+b0JYqfOadi2ddMcTsaOTTIOMWMzxY+V4QQQgghhLhQ8sycYWOYDeTkDRuQZjXqjTFD4yWAkZJFFSsirW9fuFf/Dt+paGPMnI85w/ozrqZNkTJjBpJiY08zaIQQRYOCNmcIa7J89dVXKFGiROY+NEa4XPP111+fuWIUjQQWz7VNE/58/PHHTa0XxicbxqmBAwfiiSeeyDwe9fe//90cwz4ej80aKTzms88+m7E3TJbL1+2+xuWXXZ65L40e1nZxXg/ND/7/VVddZY5Nc4nTlQinR9G44ZLSNJN4Hue+/DcNE6chxVWdmMXDrJkffvjBHJ8mCJcZZ70We1++h0sv/cOgojhti58lyW9zhlO1Jv06ydwf26Dh9XHqmX3NFKc9PfH4E8bI4jLi06dPN2aNEEIIIYQQF0qemDPMmmHjmI37hFmzkJZTU6VGDXisBr131y74EpPgO3kSvkMH4TsVBe/Rw+dmzlhyv/EGknv1QqzV4Gc6PhvotjnDaxVCFH6CwZwhzHz5/PPPzbmd+55JNAJefPFFjBgxwmRk+MOsFtY6ycnxWCel9CulM/ZMNyOWLFmCpk3fNwaNMyPkTLKnP40dO9Ycg4YF78Vdd90VcHunaNCwhsz48eNNMWEaFpze5DRXziSaRu+8846ZlsXrJvltzvCZwPv91VftjJFkb+Mv3keaNjSmuKoTM4NYHNjOehJCCCGEEOJ8yTVzxmnMsCFMM4Sp37FWQz+lUaOA5slpqlsXniEh8J04Dt+WzfCOHg3vyBGm3sy51Jyx5apSBYlWwzlq/35jFPlnz8igEaLwwyKz7GQze8Q2If7973+bQq7nw7Zt28z0H7tDTuOD9VCyW32JMO7RwPn5559Ro0YNPPjgg7jm6msyC8xSNGSYifKyFZ+4OhPNDE4BCjQ1hsdbt26dmbZkH48GhX0smik0CVg4uHbt2ujXr1/Gnulw2g2nIfG9VK5c2WznNDIoGhQ0fx577DGzDZe8Zo0YwljOa2vVqhWee+45U7TYeX6+L05pYuYP7w9NJk61Ioz/NHYaN25sDJMbb7gxyxQtnpdZKDSnuHQ3pzM5V4hiJhKNLt4rbs8CyzRDaKDY0JRjnRh7WhW3efqpp7FmzZos9W0I7yX/RmimcFv+ndCE4fQqe3oSlw+vX7+B+Yzs68yJHvj3A+f9tyaEEEIIIYRNrpoz7GDQ/GBDl2YIG/bRoaFIYUaMn3ESUNzum2/gnTgBHquD46lfH55PPz1/c6Z8eSR+8AGOWg366OjozOwZdjpkzghRNGCGBzvWNAhYNJfLWnPKyfmuTsRMil8nTTLHoVgbpUf3HqbmSE5gEVkW0aVJ0+S9JqhZo2bmsWhWcPrTL7/8ctaVl2wYSxcsWGBMmoYNG2Yei2YKa9pwBSG+7iwUbMOYTNPjt99+MzVjuIy1vT/F6TmfWjGW9VZmzpxpYrZzehXjJM2asPBwU2TYeX7el48++sgYJDSB+Dk44blpuvTq1QsfNf8ItWvVznJeZpyMHDnSmGGMy04Yo1lbh++P29OcYiaUcwoR7zPP27BRI7MNiyzzGvfv35/lPRBeC1eJ4nvltlWrVkUjaz/W1OHzivuwuDFNIxo3zASiGfTCCy9kXjNVtmxZsyIVM3poBtGcoUnFej98xvB+CSGEEEIIcT7kujmT5kozKySxo3D44EFEWw1z17ms0OSvCzBn3KVLI6VOHURu2IATVqM+Lj7OrB4lc0YIIYQNjSkWPbazYVgr6N133jXmjRMaMDNmzDDGGI0ce3tm5LDWjn/GjhBCCCGEEDklV8wZGh0UTQ82TpmhwtHnwyuXI6Z9u4DGSY51AeYMlVatGg5Pnoiju3eZ9HXWIuAorX3NMmiEEKJ4w2XMn3zyyUyzhdPFuIKWcxoVYfZUWFiYmcrFaXT29k899ZR5jvpn7AghhBBCCJFTctWcYcOUWTNMw2eBy0O/TUJMq48CmiY51oWaM5UrInJIH0RuWm9qUzD1nvUMlD0jhBCCcAoV6+rYZsvFF19sCiGzNpBzWlPp0qVNUeErr7wys74RV+jilCs+W/Q8EUIIIYQQ50uumTNmSlNaGhKTEk3qN5dS3TdjMk61ahHQNMmxLtCcSa1cCfuH9MeBDetMPQXWKbCnNvGa1ZgWQojiDYsXt2jRIssy5zkRixE3aNAAs2bNyjiSEEIIIYQQ50eumjOpaalISEwwGSossLhj0SIc/+oruF95JaBxkiNdiDljnTelWjXsGDcOezZtMtk8LI6ZnJIsc0YIIYSBzwUaLNWqVjMrV7EYMFdtsov+2mJGDVe84kpTnAbVtGlTTJ069bSlu4UQQgghhDhXctecSU1FQkICoqKizEokXFb2QOfOSCtbNrB5khNdSEHgV19FfJ06WLtgAbZv327qBRhzxmpIy5wRQghhw2cCa6VxeXMuc/7KK6/gnnvuwc0335wpe9lyLk/O1cACrZAlhBBCCCHE+ZBn5gyPuW7dOuzu0QPx1aoFNE9ypAswZ1LLlcOJ997D7wsXYuvWrYiMjJQ5I4QQIiB8lvH5wOLxNGqYbUlT3xaX8mZmKJ8jfN5xeyGEEEIIIXKDPDdntg8YgJP16gU0T3KkCzBnkipXxsFWrbBm0SKZM0IIIYQQQgghhAhK8tyc2Th8GCI/bBLQPMmRLsCciatVA9t/+BarlyzGtm3bNK1JCCGEEEIIIYQQQUeemzOrJk/A1u/aIb5cufMrDHye5kzya6/h8DuNsSpsEFYtWypzRgghhBBCCCGEEEFJnpkz+/btMwWBFy9ejMXDhmF7o0ZIee21gEZKtmrxMbxbNht5mjcLvI2faAIdrVkTa9q3x9y5c7Fy5UoVBBZCCCGEEEIIIURQkrvmjGMp7QMHDmDz5s1YunQpZv76K+Z064aTVasirXTpgIbKGVWmDDw1qqeL/w60jZ8Sre02tWyJGWFhxpxZu3Ytdu3ahaNHjxpzJiUlReaMEEIIIYQQQgghgoJcM2eoNFcaEpMSzUoXhw4dMlOJVq1ahTmzZmHK8OFY+ckniK5cOaChkpva0agR5nXpgumTJpnMnQ0bNpilvbn6BjN7mOEjc0YIIYQQQgghhBDBQK6aMy6Xy0wZio+PN0uQ7t6929SdWbBwISZPnIjJffti23vvIa5ChYCmyoWKWTnHatTAwm++weThwzFz5kwzpYkm0cGDB3Hq1CkkJSUZc4bGDK9Z5owQQgghhBBCCCEKklw1Z5iNQuMjMTHR1J3h1KYtW7Zg2bJl+O233zBu3DjM/uEHbH33XURXqXLuU5zOINcrryChXDlEvv46lrZujUkhIZg8eTLmL1hgpjTRJKJZZOrNpCQjLS0t85plzgghhBBCCCGEEKIgyVVzhtkozJ5JSk5CdHS0MUR27tyJ33//HYsWLcKUKVMQERGBcd27Y3nLljhWtaopEnxeqzhliAZPTIUKpuDw9A4dEBYSkm4CzZ6NFStWYNOmTcYk4pQmZvTYU5pkzAghhBBCCCGEECIYyBVzhtDosM0ZFtylEUJDxM6eoVFCw2T8+PGICAvDsL59MbxjR2xt2NBkvQQyXnKiwzVqYHarVhjavTvCQ0IwcuRITJ061ZhBnFLFQsA0iVgHh1OamDUjc0YIIYQQQgghhBDBQq6ZM8TOnqEBQiPEzp6hQUKjZMmSJZg+YwbGjh2L8PBwhPTvj1Hff4/ZLVpgU8OGOFatGpLKlMk2kyb11VcRXbEi9nEKU5MmmPjFFwjr1g1Dhw41xsyvkyZh3rx5phDx1q1bjTnEKVbxCcqaEUIIIYQQQgghRPCRq+YMDQ8aHzRAmD3DlZGiok7i4MFD2LFjh6n/woyW6dOnZxo0gwYNRmjXbhj7zTeY2bo1Fjdrhg0NG2L7m29ix+uvZ9GWevWw6r33MK9FC0z5/HMM//FHhPTpi6FDQzFq1ChjzMyZO9cUAeYy3lyh6ejRY6bWDKda0TSyCwELIYQQQgghhBBCBAN5Ys5QNEJo0MTFxeH4iRNmtaQsBs2MGWaK08iRozE0NBQDBwxAvz590K9nT4R36IAxX3yBcW3bZNHIr79GyE8/oa+1Xf9+/TB48GCED4/AL2PGmALATmNmz569JmvnVHR05gpNnHIlc0YIIYQQQgghhBDBRJ6ZM8yesac3MXPl+ImoLAYNpzixBg2LBI8ZMwbDhw83U5MGDhxozJc+vXufpr6WaMqEhIQgLCzMTGOaOHEiZsyYgQULFmTJmDlMY+ZUtMne8TdmZM4IIYQQQgghhBAiWMhVc4b4GzSpaalITEo0Bs2xY8dMDRgaNKxBwyLBzKKZ8dtvmDRpkllliYYLjZphw8IRGhqWRZwGNWLECPzyyy/GlJkydSrmzp2LpUuXYs2aNX8YM4cP4+TJk8aY4dLZTmNGtWaEEEIIIYQQQggRTOS6OUMCGTR2Bg2L80ZGRmL37t1mFScus71s2TIsWLjQZNJMmzbNGDWc8jR27LgsMobMlCn47bffTNHfxYsXm8K/GzZsMIbP/v37jQF06tQpY8xwWpWMGSGEEEIIIYQQQgQzeWLOENugoTHinOLEGjTMamE9GJopNFWY8cJMGhotzILhFKU5c+YYs8apefPnG0Nm+fLlJlNm48aNZkUmXj8Nn+PHj5sls2XMCCGEEEIIIYQQorCQZ+YMCZRBk5ycjPj4eLPM9okTJ8wUJJo0zKTZvn27MWrWr19vMmpowDhFA8c2ZGjqcAoT69gwW+bkqZOIjYtFYmKijBkhhBBCCCGEEEIUGvLUnCH+Bk1mFk1yUhaT5ujRoyb7hTVp9u7bZ66Jho1TNGNo5NCQoanDTBlm4XC6lDFlUlMyz2EbM5QQQgghhBBCCCFEsJLn5gxxGjT2NCdmtjDDhaaKbdLQaGFNmmPHadYcM4ZNFh07jhMnosx2rCvDKVKm6G9yslmRyd+YUcaMEEIIIYQQQgghgp18MWcIjRLbpKF5QtGgYRYNRYOFRk1CYoIxa2i8nCbr9/EJCWY71q+hIcN97SlMtuxzCSGEEEIIIYQQQgQ7+WbO2NgGjdOkoZjxQqOFdWloulDMrKFpw5/27/i6vyFjH4+SKSOEEEIIIYQQQojCRL6bM8TObLHlb9TYsg0bGjH2dCWnbDPGKSGEEEIIIYQQQojCRIGYM/7YBs25SgghhBBCCCGEEKKwExTmjBBCCCGEEEIIIURxReaMEEIIIYQQQgghRAEic0YIIYQQQgghhBCiAJE5I4QQQgghhBBCCFGAyJwRQgghhBBCCCGEKEBkzgghhBBCCCGEEEIUIDJnhBBCCCGEEEIIIQqQgjdnfD4gJQVITJDOIG98HNJio+H1eKzbZd0vIYQQQghRSLDabj63pVT4PAnWP+MsxcCXdhye5Ej4UvbBm7gL7vgdWeRN2g1f8n5rm8PwuU5Y+8Sm7+tJNMey/pF+bCGEEEWC4DBnYk7Bd/wocPwIcOyw5JR1T9L27kL078sRt3833CnJGTdOCCGEEEIEB1Z71uuCz50Ib1o0vKnH0k2XpB3wxK2F+9R8uKOmIu3oSKQdDrc0FGmH+iF5bw+k7euMlN3fIWnHN1mUuud7pO77CSn7eiItsr+1zzCzr+voaOtY06xjLoAnfoN1jp3wphywznncOncMfJ4k63Jc6dckhBCi0BAU05p8p6LgPXwIvsMHgEO7JYd8kfuR8Pty7BvSHTtCeyBh3y543e6MOyeEEEIIIfIfr9WAdcPnSU7PZkmz2rJJe+COXonUo1ORcnA40vZ3QurO1kha/ybilz+BuMX3InbeVYiZc9kFKXb+tdax7kfCiqeQtLEhUnd9hrQDXZByaIR17ulwx/4Ob/I+65pOWtcWb11jirlWmTVCCBHcFLw547UebscPA/t3Aft2ALu3SE7t3W490OdhW89vsPiDmtgZ3gfxe637JIQQQgghCgSaHp74bUg7Ohmpe35A8taPkLThTSSsehlxi/+F2AW3WLoBsfOvy9CNlqzfzb8p498XIh6Dx+K/rWMvoKx/L7zVOvcDSFhdBkkb6yF5W0uk7u2CtGMz4Unck55RI4QQImgJDnPmWGS6MbN3G7Brs+TUnm2IXz4XW7p/jfmNymJl64bYFdYbMVvXZdxAIYQQQgiRZ/istqonGd6Uw0g7sQApezojaesHSFz/OuJXvYK4pQ8gbvGdiF1YArELaJxYmnedQ9dnGCk357KsY/LYWc5j/Z7XYIyauxG/9L+IX10GiRvqIHlrc6Ts6wXXyWXwpkVZbXBm1FjvTQghRFAgcybY5TRnGr6GhW+Vx6rP3sLOYT0Ru30jfJriJIQQQgiRu7DYrisK7vht1o9ZSD3YD0nbWyJh3euIX1YKcYvuROyCEkg3Yq5GzNyrjIxJcpqJks+ad43jeq5J/511rXGL7rLalE8hYX1dJO/4FGmHQuA6OR+ehJ2AO5pvOv29CyGESMdjPQvoV+TTojwyZ4JdfubMvIZlsPDtilj5aSPsGNodCXt3wKMiwUIIIYQQF4gvfbpS0l64Y5bCdXQ4kna0N4ZM3NKHEDP3H0bG8DAmDKct+RkjwarMDBsaN+nvI355KSSsr4/kXd/DdWw0PHGr4U0+aN2DRHMvhCiO+Dxe+BJS4Nl5Au5Nhy0dgXvLUak4iZ/5Bn72h+E5cBK+eKuvTZMmH5A5E+wKYM7Mb1wOC9+ugOUfvYHtIV0RR4PGlZZxQ4UQQgghRM7wWf9lFPZNOwHXyYVI3tURCWvKIksB37n/DGx6FGIZk8YuMLzkASSsrYTkPT1MUWNTTNgUEtZy3aL44PP54E1MgXtzJBLbT0dCk1GWRiPho3FScVJT6zN/ewQSmo1B6i9r4N5zDL7U/Olry5wJdp3BnEk3aCpiefPaJoMmZscmE1CEEEIIIUTOoAHBTJmUyAlI2tQU8Sv+Z+q10JT5IzvGLsIb2OQovOJ74nuz3uO8a817jlt4OxJWPo+kra3Myk+sswOvBgBFMcHql3qjE+BaugtxtYYg5vke6Xqhp1ScZH3msWX6GnMubfYWeI/HwOdW5oxEZWPO2Bk0LBK8fUg3nNy4WgaNEEIIIcRZ4PLX3vjVcB3qjcQNbyJu+VPpmTKsIzOPZgWNmaJqyviL79F+zzcgbgGLCd+PeJo0GxvAdWQIvImsc5iQcfeEKKJ4PPCeiodr8U7EvTkMMS/3Qmzp3ogt21cqJop5xfrMKw1AQotxSJ24Dt6jsfCluZlWlfFHkrfInAl2ncWcSTdo0mvQcIrTqS1r4VWRYCGEEEKI02CmjDt2E1IPDkDy1neRsPoZmGWv513tMGQCGRjFSVwFKr0+Dc2qxDUvInlbM6RGhsEdv926iVbbXYiiiMOcia8fjpjX+iC2nNVprzxAKuqqZOnV3oitOAAJzccgNWIVvEdirL+J/I13MmeCXTkwZ2yDZkWrBtg26CfE7t4Kd3JSvjl8QgghhBBBi9Ue8rni4UncBdeJ35C4tS3ilz2B2PnXI9asaJSxBLXkJ65EdV16vZ0FNyF+5YtI2tEB7lOL4Es5aLXhuSCF2pqiCBHAnIlhRkWgzrxUtFSpP2Je6on4tyKQMmgJPFuPZPxR5C8yZ4JdOTRnqPQiwa9jS78fELdjM7ypKRk3WQiRf1gNVZ/bim1pllJzVz5X+rEpNYiFEOIs+ODzuuBJOoWUY4uRsLU9YpeUQswcrrh0FQrVaksFLRpYNGnmXYOEFU/BdbAXvPHrrMdRrHWblUkjiggyZ4q14mqFIKn7XLjXc9W6gpmJInMm2HUO5gzFDJplzWpj68DOiN68tsD+sIQoljBbzZMEX/IO+OJXwBe3JHeVuCH92Cn7rPPEW/GTRo1MGiGECITPmwpXzAYcW/0t9kx6FbtG/wv7J9yLqJm3IGZecaglk9v6o4Bw3KKSSPy9AlIP9ocvLYp3O/2mC1GYkTlTPFWhv5nOlNR9Hlzr9sObwKzAgkHmTLDrHM0ZauFb5bHik/rYPrAzTq1ZKoNGiPyCo4ep++CL/AreXa/Cu/NZS8/nnna9DO/uMpYqwLe3mqVa1rnawHt8ELzRM9LNG2PcxKVfixBCFEes+OdOPIS4XaNwcFZ97BrzJLYPvw/bwu/BjpH3Yd+Eu3D8t1sRPfcWh/Eg5Vw0aCwtvNWsbpW8rTk8J8fD5zqhZ48o3MicKV6qaKlcP8RWHYT4j8chdcUus1qX8ScKCJkzwa7zMGcos4pTq/rYMaATotetgDeNUyI0qiFEnuLzAMlb4dtTG96N/4R3w0WW/p7LuszSFRmy/r35dni3PwnProrw7m8I78GP4DveB76YafAmrAVcUekZNkIIUQzwpMYg8egyRK3rgv3Tq2L78AewLexOS/dgW/j92Db8fuwYcR/2jbsLx6bfJoPmQmQKKF+PuMX3IGl9eaQe6A1P/Eb4vJpWLwopMmeKj2jMlO+P2CqD0gsAT1gHT1Qs8mvJ7DMhcybYdZ7mDGUMmpZ1sa3P94jbtgGepAQZNELkJaeZM5c4jJS8EM2ai+Bd/9c/RMNm64Pw7qoEz4GW8J0cDsQvMRk98HAZVMUAIUTRw9SWST6M+H2TELnoI+wc8yS2Drsd28KZMXN/QO0bm27QnJpd4nTjQcqhuLLTtYiZ+w+rvVoKybvawXVqAbwpx9TmFIUPmTPFQ2Zlpj6IqzwQCc3HIjVipVkyGwVszBCZM8GuCzBnqIVvVcDy5rWxtcfXiNu20XpYajRDiDwj382ZM2g9DZs/Wf/+O7xb74NvV1n4jnSGL36Z9eA5acXdNF5s+jULIUQhx+dJgyvhEBJ2DcSBaa9g+/A7MoyZwKaMU7tG3YPIyXcogyYXRIOGqzolrKmMlIMR8KWdsj4cZW6KQoTMmaIvGjMV+iHmhR6IbxievmQ2jZkCnMrkROZMsOsCzRnKrOL0YS1s6/0dYjasVg0aIfKKYDFnNlyeIU6BYnbNpfBuugG+HS/AF/k1fHE0aRKt65VBI4Qo5FhxN/XkJhxd9iV2jnoQ24fTdGG2zJkzZrLI2n7nyHtxePIdODVHBs2FiQWDr0fsgpsRv+wxpO76Ft7k/dZnFBydHiHOisyZoq9yfRHzfA/ENwhHSq/5cK8/ZH3uwROjZM4Eu3LBnKFMkeAWdU0NmlO/q0iwEHlC0JgzTtGguTRdvKYtd4KFilm02Be/EHBFy6QRQhRKfO44xB+YhsiFH2LnL6Uy6srk0JRxiIbOrpH3mgyak5ridIHKWNFpwS2IW/IvJG9vBXf0QuvxyGm1QgQ5MmeKtpgxUyb980z6cSZcK/bCF1twKzMFQuZMsCuXzBnKLhK8rX8nRK1epiLBQuQ2QWnO2KJJY10Ppzzx55Z74d3fGN4TQ+BN3Jh+7UIIURjwueFJPoLYneE4NKc+dox6GNuG3RnQeDkX7R59DyIn3YGTs2TQXLhYi+ZqY9AkbWkK14kpgDs64wMUIkiROVO0xZWZagxG4tdTkDpnC7xRcUEznclG5kywKxfNGcpMcfq4DjZ2+xbRm9fBlZgAnwwaIXKHoDZn/LT+b/Buug6eHc/Cc+gLIHGV1d+JkUkjhAhqfJ4UuBP2IG7nEOyf+hq2D78L24aVDGi2nI+MQcMpTsqgyRXFzL0KcYtKImnjm3CfmACY5baVvS2CFJkzRVOsM8OfNQYjodV4pM3dZsWjaPhcwReLZM4Eu3LZnKFYJHjZh7WxrtMXiKJBk5xsPShl0AhxwRQmc8aI9Who0lxrXXNNeGPnWA8qNZyFEEGK1wV3/E7EbeuF3WMfxLawW3MlY8ZfLBLMGjQqEpw7okETO/9aJKx6Dp7jY+BLPZr+vBQi2JA5UzTFJbMrDUDCx2OQOm4NvAmJ1vMkOPu+MmeCXXlgzlDMoFn2QU1s6NoeJ1YuhTdZqzgJccEUOnOGyigcvNHS9lLwHesFX8rejDckhBDBgzt2I06tbY8dEfdhW+gt2BZ2F86nxsxZpSLBuSzWobnB/Ixb8m+kHBgMT/LBjE9ViCBC5kzRVPn+iKs9BMlDl8JzMi6okxJkzgS78sicoVgkePlHdbC51/c4vnRBukGjBBohzp9Cac5QNGgyCgZvexjeg5/AG7co400JIUTB44pZh5O/f4s945/B1qE3550xkyG7SPCx6bcpgyZXlGHQzLsO8SueQ/KernDHW+1+IYIJmTNFS+X7IealnoirGYKU/ovg3noEwb4ojsyZYFcemjOUqUHToh429+qIE8sXw5OYlP6ZCCHOnUJrztjiNCdLW+6GZ/+78MavsOJBcFWxF0IUL3zeVLhjNxljZu+vpdNXZMqDqUxn0t6xd8mgyTXZBs31iF/xPJJ3dYI73mr/a2RQBAsyZ4qOylmfW5m+xphJ+mYa3GsOwJeUZoWb4I43MmeCXXlszlB/FAn+BqfWroYrNlYGjRDnQ6E3ZygaNBfBu/kmePY1gTdhpdVY0RKoQoj8x+dJstokWxC9/jvsGf98QPMkP7Rv3F04/tutiJkngyZXNO96S9da7dunkby7K7wpR6x2pyvjUxeiAJE5UzRUsT9irc8urtogJH03A6652+E7lZjxIQc3MmeCXflgzlCmSHCz9CLBp9augjs+PuidRSGCjiJhzlBcdptLbv8N7n0fpBs03tSMNymEEPmAzw1X3FbEbPwBO0Y8FNA0yS/tGHEf9k+4Cydm3hrYbJDOXcaguR5xSx9DyoGwdIOGz1AhChKZM0VCMWWsz6zSACR+Mg6u2dvgiy88M0NkzgS78smcoewiwet/aI3jS+epSLAQ50qRMWcoGjQXW+/jCnj2vQdv3NKMNymEEHmPJ2Enojd1xc5Rj2Fb+L9OM0zyWztGphs0yp7JTbFI8I2IW/wvuI+GA2lHMj59IQoImTOFX+X7m88tofkYpE5cB09UrPW5Fp4ZITJngl35aM5QNGiWfFATG3/+AkcX/KYiwUKcC0XKnKEyMmi23AXvobbwJe/OeKNCCJF3eJIOIXpzd+yb/AK2DrsdeVn4N8digeBR9+Lo1NtVfybX9EeR4MQ1r8F1dCTgPpXxVyBEASBzpvCqYn/ElLE+L+szi387Aslhy+Dedyy9AHAh6svKnAl25bM5Qy14qzyWNquFjV2+xPHFc1QkWIicUuTMGSqjSPCO/8F3rKf1kOOUR8UDIUQeYMUWxpjY7YNxYHoFbA+/I1+L/55N24ffhz2/3G0MGi2xnVvKMGgW3IKkDbXgOjbGepQWjtoQoggic6bwqlJ/szoTCwAn954P1/oD8KYUvlkgMmeCXQVgzlBcZnvph+lTnE6uXgZXbIwMGiHORpE0Z6i/W+/nKnh3vQxv7Fyr8aKGsxAit/HB605E0pF5ODCjCrYPvwvbhpUMaJIUtPaOudus4BQzL5DZIJ2XWINmwc1I3PAm3DHL0p+nQuQ3MmcKp2jMWD/j3gxFUvupcC3bA19cshVHCt/0D5kzwa4CMmeYPbPo7QpY3KQq1rT/EKfWLFORYCHORpE1ZyjrvWy61rw3X8ouNZyFELmKz5OG1Oht2D+zDrZH3B9UGTOBdGDCnTg5u0Rgo0E6L8XMvQpxi+9B0tZm8Lli9JwR+Y/MmUKnOP5kxkz1wUj87Ffz2flikjI+0MKHzJlgVwGZM7Zo0ix+rwrWdfwExxbNhidBI+ZCnJEibc5wehMNmuuQur8XPEkHMt60EEJcODRmji77AtuH34ttYfcgKOrMZKOdo+7FocklA5oM0vnqJlN/Jm7Zw0g7NgM+V2zGX4cQ+YTMmUIn8/lUGYjEFuOQNmE9fLHJgLfwJhPInAl2Wfckfvm8THNmbr3SmFc/v/UqFjWpivWd2+LIvOnwxCdanVBl0AhxGkXanLnc0qWW/gb39pesxss4wB2T8caFEOL88STsRszmntj1S6lCYcxQ24enT286PuO2ACaDdF6adw3iFpVE4sb68HIAwJuW8RciRD4hc6ZwqUL6ykzxTUYhdeRqeI/HW59h4S7DIXMm2LVnK5LWLMb+8N5Y374Z1n31foFo/dcfYnOnNjg4OgTJO7fBp/ozQpxOkTZnqIzltTddDfe+lvDE/Z7xxoUQ4vzwpMYgblcEDs2sFvRTmfy1Y8R92D/uLlMcWPVnLlDzrkHsghJIXFcdrmMTrOep2/rr0ECgyGdkzhQOVbJUoT9iX+6N+LdHIDlkCdzbj2Z8iIUbmTPBrt1b4N68BnELpyNq8iicmDSy4GSdP3rWr0jesNLqg/KhKYTIQpE3ZzK0/m9wbX4S7qODrBheeOf1CiEKGJ8XCYcXI3J+E+wY8a+ABkiwiwbNYS2vfQFKn8oUu/A2JK6rhrTD4ZrOJAoOmTPBr4xVmWLL9kNclYFI7rcQri2R8KakZnyIhRuZM4VBu7ek3xveo4LUwV1ApPW3cvSAFby4ZrxGNITIQnExZ4wuhXd/PfiSrfgkhBDnis8Lb1osjiz/HDt/eQxbh90e0PwIdnF6087R9+LEb7cqe+aclbGM9vxrkbi+JtwnZ1j9gsK39K0oQsicCWqZ4r/l+iLm1T7W/w9EUscZSFu7F96k5IwPsPAjc6ZQyeoE0agpKPHz2b8TOLxP5owQgShO5sz6v8G77T/wHe2c8eaFECLneF3xZjrTnokvYlvYXSgMdWbOqOH34+DEkoiaqdWbciwunT33n4hdWALJW96HJ3aZ1baMs/4y1LYUBYjMmaAWP4uYV3sjtuogJLSZBNfS3fBGJ6T7CUUEmTNSzrUnI3snUuaMEAEpVpkzf7fe43Xw7qkBn+tU+nsXQogc4HUlIfn47zg0+w3sGPVfbAu7N7DpUYi0c8S9ODz5Dk1vyolozMy/AXHLn0HSzo7wxK2Hz01jpuh0sEQhReZMUCumjPVZ0JhpNQGp0zbBezIBcBet9qfMGSnnkjkjRPYUK3OG+ju82x6BJ3q2FRO0zL4QIgf4vEiN2YFjq3/AzlEPYvvwQpwx46f94+9E1MxbTzcjJEusLXO9pasRt+guJKytgZR9/eCO3279TbCOodqUIgiQORO8qmipykAkNBuD1IiV8B6JsT6vomfoypyRci6ZM0JkT7EzZy6Gd/PN8BxoDV/aEd6A9PsghBBnwOeKQ/y+Cdg14XlsG3ZHxtLZgc2Owqbdo+/B4Sl3IGaesmeyaB7rylyPuIW3ImHFw0je8i7Sjk6EJ+VYxl+FEEGCzJngFFdnKtsPCU1GISVkGTzbisbKTIGQOSPlXDJnhMieYmfO8P0xe+YhIGmj9f45+imEEGfGFb0OUavaYGtoCRTqOjNn0N4xdyNqlmrPpBf7pfjvGxC36E4kri0P95H+8KXutZ4XaRl/EUIEETJngk80Zir2Nz+T+yyAZ0fRNnVlzkg5l8wZIbKnOE5r4qpNm26AL2qk1es6nnEjhBDidHxuN05t6ovd455AUTRmKGbPHJl6O2KL9cpNN1rv/9p0zb8JiWvKInV/T3gSrXakJyHDyFcbUgQhMmeCS5zK9Jp1/1/uhaQuc+Batx/exKKzMlMgZM5IOZfMGSGyp9iZM5dbutTS3+GJ/A6+5F0ZN0IIIU4n+dhyRM57B9vDuTpTYHOjsGt7xH0me+bk7BLFaGlt1pO5DjFcfYk1ZRbegYQV/0PS+teReqAf3NGL4E05aLX5UzP+EoQIUmTOBIXiqlg/y/cz9z+22iAkfjYRqSt2wVPEVmYKhMwZKeeSOSNE9hQ7c4Zi9sxf4d3bCL6E1dY9KNoPTSHEeWDFBZ87HifXdcKeCc9ga+htAY2NoiKu3HR02m2InsMMEhbBLYq6BjFzrzIy9WQW34+ElU8jcV1NJG9vg7TIIXBHzYQ39bDV1tcUJlFIkDkTHGLGTNl+iK022KzMlDZtIzwn46xmttXOLuLInJFyLpkzQmRPsTVn/gbfjufhi5lixfSinW4qhDh3fN5UpEWvw6E5b2DHyHuwPfwOk2FSVLVz5H04MOFOnJrNwsB27ZXCr7gFtyBuUUnELb4P8cv/i4RVTyFhTWkkrq+OlO2tkHagL1zHf4MnYaeeBaJwInMmOFS2H+KqDELCR+OQMnI1vEdjrc+meAz+yZyRci6ZM0JkT7E0ZzKmNm25A77jfTJWbRJCiD/wuuIRt2sEDs2pjb2Tny02OrX4WcSvLDpKWE0jphaStjSB61A3eE9Ohi9hgxX3j1vtwrj0Z6AQhRmZMwUrFv+t0B8xZfoivnEEUkKWwrO7eNUzlDkj5VwyZ4TInmJpzlA0aP4GX+RXqjsjhMgK2wpeN7xpsXAnH4cr8WixkTv5KDwpRUfe1OPwuU5airYed/Hp2TE+V4Ypoymtogggc6ZgVa4vYp7rjrjXhyC5+1y41x0C3MUrtsickXIumTNCZE9xNmfW/xmuPc3hjl2fcTOEECIDthdYj8r66ZMKrYQo8sicKVhV6I/Y8v2R3GUO3GsOwBefkvHBFB9kzkg5l8wZIbKnuJszuxvDHbM042YIIYQQQhQiZM4UnCr2R1ytIUj8agpcS3bBF5NULPuaMmeknEvmjBDZU8zNGc+uqvBGT8+4GUIIIYQQhQiZM/kv1pnh6kxVBiH+o7FIm7sNHuszKA4rMwVC5oyUc8mcESJ7irk549v+P/iiwtLjuhBCCCFEYULmTP6rHKcyDUD8OyORHLoc3oREqx1ZfPuYMmeknEvmjBDZI3MGvqhQK65b8UEIIYQQojAhcyZ/VWmAucdxNUOQNHAh3EdPFvv+pcwZKeeSOSNE9hRzc8a75S74jnW14ror44YIIYQQQhQSZM7kn8r3Q8xLvRD3ZihSBiyCe3MkfGlqP8qckXIumTNCZE+xNWco671uvBq+I59bcb34VdcXQgghRCFH5kz+qJx1T8v0Tc+Y+X4G3Gv2w5eYqr6lhcwZKeeSOSNE9hRrc4a6FL7Ij6y4nphxQ4QQQgghCgkyZ/JeFfsjllOZqg5CUofpcM3ZBl9UgvqVGcickXIumTNCZI/MGZkzQgghhCicyJzJc8WUse5npQFIbDkOrtlb4Y1LSvcDhEHmjJRzyZwRIntkzsicEUIIIUThROZM3qp8f3NP45uNQerEdfBExVpNZ6vtLDKROSPlXDJnhMgemTMyZ4QQQghROJE5k6eKq2SpQTiSQ5bCfTAKPjf7kxn3Xhhkzkg5l8wZIbJH5ozMGSGKOSkpKVixYgV+++03TJ82DTOmTy/Wmmbdg6kz52Ha8i2Ysjcek/clBJVmHEzE/CPJWB2VjD0J8TiVloYUtwcer9p4ohgicyZvVKm/WZ2JBYCT+yyAa1MkfC6tzBQImTNSziVzRojskTkjc0aIYozXatMdPnwYrVu3Ru3atVG9WjXUqlGzWKta1Wqo+mZDVG/TFeV/3YVy0yNRbsZhlLV+BoMqzzqCOguO4cMVx/H9poMYtDMKkw/EY9WJZOxPcCE6LRVun+pBiGKCzJncV4V+6cZM9cFI/GoKXOsOaMnsbJA5I+VcMmeEyB6ZMzJnhCjGJCUlYeXKlfjvQw/hhuuvxw3XXoebr7+hWOt66x7ccEsJ3Pzcq7i0x0JcHLYDf43Yg7+E7w4a/XX4Hlw0Ym/m/5cctx/V5x7FT5tOYkbkMRxKTEWKxwuv2n2iqCNzJlcVx4yZV3ubWjOJn/0K97qD6UtmizMic0bKuWTOCJE9MmdkzghRjDl69CjCwsJwd8k7cevNt+COErfhzttul0qUwB0PPIx/fDsWF4fvwEWjDhgzJFh0sUPm/yP24LIRe3D9L/vw2KSDaLLwGGYciEesRrtFUUfmTK4q5qWeiC3XDwkfjUXahHXwxSar/3gWZM5IOZfMGSGyR+aMzBkhijFbt2xB609a4ZabbsZtt5TAXbffIVG3lkDJe/+Fa5t3wyVDNuKi0QezGCLBposi9uJvEXuMSXP5iD0o8cs+/G/aIbRYHYV5R5LhYdtdiKKIzJlck7lvZfoiofkYpI79Hd7D0YBbseNsyJyRci6ZM0Jkj8wZmTNCFFN8Vptg1apVeOP1N3D9ddfLnHHq1hK4++67cVfjFrh80OqgN2ecokljpj1F7MUd4w+g7sJjmLgnHpGJaXDJpBFFDZkzF65Klir0R8yrfRDfZCSSQ5fBveOIubfi7MickXIumTNCZI/MGZkzQhRT0tLSMHfuXJQtUwY3XH8Dbpc584duLYF77rwD/6pVB//otxgXjdof0AgJdl0UsQf/HLkXr02PROiOaOyNT9WqTqJoIXPmwpSxKhOnMsXVGoLkAQvh2ngAnsSkjBsszobMGSnnkjkjRPbInJE5I0QxJTo6Gr+MHo0nSz2OEjfehJK33hbYqCiOupVG1e0o8XwlXN5ldkDjo7CINWlYNPipKYcQuj0GJ5LSTNaUEEUCmTMXpvL9TMYMs2eSfpiBtLV74U1Kzri5IifInJFyLpkzQmSPzBmZM0IUUw4ePIhePXvirttL4o4St5pCuAGNiuKqO+7Anffej79/Pym9nouf6VHYdKn1Hp6degj9tkQjPlWFgkURQebMhalCf8RVHYSEZmOQtn4vvAkqAHyuyJyRci6ZM0Jkj8wZmTNCFFO2bt2Kdl9+heuuvhol70g3IwKaFMVVt92Ou2+5GVd8GYGLhm0PaHgUJrEGzVWj9uK13yIRvi0WLrdHGTSi8BPAnIkt1xdxVQIYEVJWcSpT9cFIbDUBqZPWwxtjtQVVl+qckTkj5VwyZ4TIHpkzMmeEKKasXLkSH77/Pq664grcWbIk7rrDUiCTorjqtttw943X4aqWfXBJyEaznHYg06MwiTVorh+9D5VmHcaiI0mId6kjJgo5tjmzZCeSGkUgrmx6DRWnORNfeSASKg86Tfx9FrOiOIl1Znhfmo1B6vCV8B6Jse6l4sH5IHNGyrlkzgiRPTJnZM4IUUyZPXs26rz5Jq6+8krcSWNG5kxWZZgz17z3PS7tvwoX/XIooOFR2MQpWtf9sg/Nlp/AttgUuDVSHvQwwyklzY2E5LSM34hMHOZM3NsROFWpP6Iq98PJqn8ouuoAxFYdeJr4+1NV+xsjJ5ACmhpFRJz6lfDeSKSELIVn69GMmynOB5kzUs4lc0aI7JE5I3NGiGKI12rLjR8/HuXLl8e1V1+jejOBlGHOXFv3M1zac1GRMmcusXT7mP0Yty8ap1LV4Q92XB4v9h+LwcqthxCTkILElDRNS8vA5/HAfSoeiUu2Y/s7A7C+2s/YYGlj1ey1uVoXbK3WFbur9cCJKn2NjKlj6VTl/oiu0h9x1Qamq6qlomLacNnsStZ7qxWC5H4L4dl2VP3DC0TmjJRzyZwRIntkzsicEaIY4nK5EBo6DM899zxuvv4GmTOBlGHO3FirOS7vNrfImDMU68/8bfgevLvkGFaeSMn4qxDBCs2Zycu2ofa3o9Cy3zSEzvgd2/YdRWpqasYWxRePx4PoU6eweslytHvzfTQsUx2NXquO5qVfz1ZfvNYAXSu8j4iqn2FmjQ5Gy6v/iLXVf8LG6l1wsHpvxL41HPENw5FYeyiSqgzOYtAUSqOmoqXX+iL2pV5I6jIHrnX70wsAiwtC5oyUc8mcKTA81vck2gp4B4/H6rYHMzJnZM4IUQxJSUlBt27d8J8HHsTtt3DZ6ADmRHFXhjlT4qVq+EeHcUXKnKFYf+aO8QcwZGcsUt3Ws1AELTRnxi3cjFdaDUGFtmGo8/0vaN5zMn4evciYNlv2HzfTnoojNGdOnjyJ+fPno0aVavjfE0/imSf+h5efei5bvfb0C6j63Guo83IlNH6lmtF7r9RA01dq4sNXa+Oz8g3QuVJTdKnwPrqWbYp+ZZthcpWvsLh6R6yv/rPJuDlWox/i3xiKxKqDjXnjVDAZN+ZauGQ2iyVXHYTETycgdflOeKLj0/v14oKQOSPlXDJnCgw+SNfsOIxuY5dg4uItWLH1EI6ejIPbXTwfnkGLzBmZM0IUQ+Lj4/F1u3a49ZZblDVzJmWYM7c+9SqubDeyyJkztlquOoFtMcrACGZsc+alliFGldsOQZnWQ1Dly+F4v/skdAifh1HzNmDxpv3Yf/RUscqooTkTFRWFuXPn4tWyZfDgg//Bf//7Xzz++OPZ6rHHS+FR6onHT9Nj/3sCTz77NEo/8yLKPPOSUdXnX8OHr72OjuXfRc/yHyC0QkuMr/Q5plb7GtMrfoWFlTrg96qdsb1adxyo2gtHq/ZFTJUBwVGE2DZmqljX8MkEpE3dCE9UrJkSJi4cmTNSziVzpsDgg3TSsm14tfVQk4b6xeBZGDFrLVZs3o89R6JxMi4JbmsbUcDInJE5IwocPplYlDQuKdXETpH3cKT5kxYtcN1VVwU2JqRMc+a2Us/hyi/CiqQ5w+lNZWYdwZi9CRl/GSIYcZozr3wSgmadhqHJ96F4o93QdKPm0yGo2X4EPuk3HYMmr8CC33dg28ETOB6TgFRX0R4UzGLOlH4V//73v/HQQw8FNGScojHz0GOP4IFH/3sGPYz/lnoUD5d6zIjb/++pp1Dh2VdQ6dnXUOP58qjzQmW88UIFoxZl6+KnSu9jWJVWmFzlSyyt9gN2VuuOI1X74njVfjhhKSazds3A/DNpKg1AzKt9EFuhP+KbjUHKiNXwHo21bpyetbmFzBkp55I5U2DY5ow9ylHaepi+bOmNDqPx48iFmLp8Ow6eiDWV9/ngVFG3AkLmjMwZUeB4rfgXn5yKJZsOmKKX8Umpiot5zOHDh/FRs2YyZ7JThjlz+7/+hX+27ouLRhc9c+Yvw3fjrnH78f36aHj0fQtabHOG7UgaMX1CIhA+PAI9Bobjk5/DUO+bYajQZghea5Vu3lT8PByfDvwNv8zfiO0HTyAuMQUpaS6rC1f0OuTna86cqx4t9Rjuf+Qhozsffhi3P/wIbn34IVz38L1GpZ5/GlVeKYdGL1XFx6XfwPcV3sXAKi0xodqXmFetAxZX+x6bq3fFkarMYBmAhCqDEMOiw8asycP6NTRnyvRFfOMIpAxeAs+u4xl3TuQWMmeknEvmTIHhb8683m4oKlkPztKthqBcm2GonJGK2mvCMizZsNekmIsCQOaMzBlR4NCcORodj0adxuG9rhPRdcwSLFi3B0lJSTJo8oj9+/fjw/fflzmTnRzmzFUte+HiEftOMzcKu2jO3DB6H5ovP4ajydb3LePvQwQXgcyZESNGYHjECISGj0DIsAh06B2O938YhupfDLW2YzZNKCp9EY7634/CN6GzMNVqk548dQruIjaVJb/MGYpToYxKpetRS4+Ueszo8SeeMGKGzX8eewQlH/0P7njsP/jfs8+iYdnq+KZsYwyo3AJzq3XAturdcKB6bxys1tusCmUbKblu0nBlpgrWMd8YiuRuc+FeexDWH0DGnRO5hcwZKeeSOVNg2ObMy8yaaTUE3/QKR+d+4WjTdRgafRuKKp+HokLbYaj9zSi812Ui2g2ZibCZa7Fq2yGcilfl9HxD5ozMGVHg0Jw5fCoeNdqPRNnPQlHT+vlulwn4MmQmImavw/KtB3EiRn+jucmmTZvwdqNGMmeyk8OcubJFD7MEdSCDozCL05ouG7kX1ecfwKqoE/DJnglKzmTOODUkLML8/uf+4WjXPQzvfBeK6l+GovxnQ1H1y+Fo3HkcPu03FYOmrMLCDftwxIq5RYH8NGfOplKWaNg8XOpRPPDYw/i3pf8+UQpPPf00Sj/9Aio+WxqvP1fOFB1uV74xBpT/CPOrfWemP3HakzOLJldMmor9zXSm5C5z4F5zAL54rcyWF8ickXIumTMFRqY5Yz1IX2s9BD0GDUdERAQGhUagc//haNdzOJp2HGbmC1f4bAhe+zQU9X8Yiy9CZmHg5BWYsWI7Nu87hsTEpCKZhho0yJyROSMKHKc5w0zDclbnoyIzDVsPRcNO49B28EwMmLISM1fvwqa9xxCfkGga5OL8Wb16NRrUqydzJjs5zJl/fNwDfx1e9MwZiqs2vTDzACYdOGl9FzP+QERQkRNzxlZExAgMDYtAlwHD0b7XcLT8KQwNvw1FpbZDzP5vfDcarftPR6/xSzFpyWb8vvMwjhTi2jTBZM4EkqltU+rRLHr8qSdR+vmX8Mbz5dG6TF38VKEphlRogYnl22Jple+xs2o3RNUcgPgagzMLCccFMl+yE42ZmiFI+HwS0hbvhC8mKeOOidxG5oyUc8mcKTACmTP+D9Beg60HZ89wU9it7tdDUfXzoaZTUqHNUDTuNAY/jVqI6Us3Yf2uw4iMikNiSlrG0UWuIXNG5owocJzmDGNmvfah+KjzMOvnUFRjXPyMq5KE450uE9CZNbuWbMLanZE4eDzW1KoR587KVatQr25dmTPZqZiYM3xfpaYewpAdcTJngpRzMWf8NSRshBkUbPHTMNS3YiqnPZW3Yiozat78dgS+CZuL4XPXY8mWA9hz5BSiEwpX9nawmzOcBmUXFXYWF2aWDV974n//wzPPP4fXXngF9V6qhK/LN8bwSq2xsEZHbKrRFXur9DBZNaxTwyLCtgIaMlQFZstY21cbhISW45A6ews8J+Os5q4GNPIKmTNSziVzpsDIiTlja3hEBAYOHY7Pu4Xhre/CUM16cHKJRBYR5igya9MMmroKq7cfQoz10ExKccHl9pgOjbhAZM7InBEFjtOc4TTQT7uEmUzDkNDh+KpHON75PszqUISmx8VW6XHx3S4T0ffXFVhmdSii45ONec24qBo1OUPmTA5UjMyZhyYdRLdNMfAU8NcnzfoOJ6W6JD9xJbuRczeclzljixk1w8LSBwWbdAxDza9CUdY61qtWTOVx63Ycgx9GLMCsNbusmJpkFqzg5xHsbc1gN2fOJBozzKL516PpRYY5DYrLeD/3zLOo9UJ5vPtyDXxZtiEGVW6JJdU64mDlXjhVpT/iqwxCoiUz9cnPmOH/c8lsUwD4/dFIGbUS7lMxVlNXGfh5icwZKeeSOVNgnIs5Q5mHZnj6CEevwRHGqOGUJ3ZCXms9FBU+D8Pr34xAy96TEDF7PdbvP4Y4jRhfODJnZM6IAieQOZMZF4czRX8Eug4YjlY/h6Fu+6HGuH7Viovl24ahVvsRaNZ9AobO+B1b90YiKVk1u3KCzJkcSOZMvvP7jsMYM3+T5CcaM1+GzLogc4aKsBSWEVP7DkkvIvze96HpKz1ZMZULVtRoF4EmP43FwCkrsXz7IUQlBPd0mMJqzlDMnin1eHqRYf5kYeH7H/0v7n7kMdz2yH/w3ycfR60Xy+Pbsm8Zk2ZS9XZYU+MnHK7Wx5gxSVUGI6FKxvLcLP5bvj9iy/VH/FsjkTJkGTy7j6cXAFb3L0+ROSPlXDJnCoxzNWecCrcenKxN023gcHzfOwwf/jAMr7fjw3OopWGo13EMPug5GZ1GLcKExVuw9cCJjLOKc0bmjMwZUeCcyZxxiub1gKER6G7F0o5WXGzeaRje/DoUFa24WO6zUNT5/hc06zkJP49eiElLt2HHoSirTarRwjMhcyYHkjmT7wz77Xc0+GGs5Kd6P4xBtXYRF2zOOMWVnlhEuHfIcPzYlwtWhKFxh2Go1HaoOccbHUajSfdf8W34PGMOrd11GInJqUGXnViYzRl/0aDhtKeHHnsMDzz2CB56/FE88eSTeP7JZ/DU/55BjRfL4fPX6iO8Yissr/6jWe2J2TQmc6Z8P8S82BPxdYYhuc8CuNcdhC/Fpb5fPiBzRsq58tic2RV5Cut2HZECaPWOSJNyfz7mjFPDh0egp7Xvd32GWx0WjnAMQ+2v0h+cVb+KwHtdf0XHiPn4Ze46LN28H/uOxyAhVbVpcozMGZkzosDJiTnjFONi78HD8b0VF9t0ZYr+MNT4cqgVa0NQxYqLTbtPwg9WXBw5ey0WbdiH3UdOIT5FmYZOZM7kQDJn8p3uY5emZwy3CkGdr4dKfqr7dSgafBNqjOpAsfF8xZg6MDQCP/Ufjrbd0pfkftM6H2vTVPw8HI06j0e7obMxaMpK/LZqJ7YePIHYIMneLkrmjL/sejVcmvvuR/9jpj29+swLqPNCRbR6tQ66VfgAUyp/hXVVOuNg1d6IqxmCpO9mwLVsD3xxyiLNL4LDnDl+GDiwK73jv3uLlJfaRQUwXnKiPDZnwmeuw3fD50sB9G3YPDTp9usFmzNOceS49+AItOsRZnVGQs2DusrnQ1H206Go/HkoPh0wAwOnrcLstbux/WAUjsckmBoMIhtkzsicEQXOuZozTjFFn6PInAr67neheP2roajUZoippVC5bSha9pmKvpNXYsYaq0Nx4ASORicgzaW4KHMmBypG5swjkw+iz5bYoDFn+B3mlBvpdH1nKTQ8d80Zp5i93X9oBL7tFWYWrKj/TagpIsyaX69a8fmdnyeg67glmLpqBzbvO45DJ2JNza+CyqgpyuZMINmrP/338cfwwosvoGmZ2uhZ4UNMrf0N1rccgl0TVyD+yKmgy3AqyuSPOWN9oD6rM3+a3JZc1hfw2EF49++Ad+82eHdtlvJQvp2bAcr69zkrj82ZFlajlw/RVzIMCOl08WHGkYeegy/cnHEqzHowM6Pms67hePPrYWaVJ44a87Oo1m4E2gyaibELN2F3ZJQpIpyc5oaHxqrIiswZmTP5BKc6Bir0KLlM4UmuElLj6xHnbM44FW7FxS79w9HipzDUaT8MFazYa8fFyl8OR8t+0zFiznrsPBRlCmymWHHRXUzjIs2Z+jJnslcxMmeemn4II/cU/GpNtjlT88uhpj5KoO+5lL9ilk67HuGo980wVGzDdm2IqftVoW0YmvWaggFTVmHNzkhExSWZeJ5emD3jA80HiqM581+aM5ZYs+bpp55GhRdfQ6Oa9dGiwzfosmgeVh85hOjkJKRY/XaPTJo8J+/NGetDdCcmIGH/njMqfvUixC+aka6FUl4qddUS+LZsCGy+nE35ZM5wqdOPOg2TAioMH3UOM+migR56FyLOF2Y2jZ2KyqVn01P7h6LMZ6Go9EU4an8zEu1D52Dqyu04FB2X8cmJTGTOyJzJJ7YdOBGw0KO0CaPnbcSgqatN4fMLMWcojvqGWnFx8LAIdBkwHC1/Sp8KagzzT0NR0YqLDTqOQsfhczFt1Q7sPxlbLI3r33//HQ3r15c5k52KiTlDvTZ7H+YcOWqy2AoSmTPBJ7swe0hYhCnM3vrnYWbBCjum0qSp+fUItO4/HaPmbsCmvceM8Z1fFDdzhkovJJz+70ceL4VHy5bFA80+wFW9O+PhcWFovHQWum5cjRl7dyEyKRFunwZn85K8N2esRkr8rm3Y3Oc7bOjcBut+/BRrf2idVe2bYe1XTaU81rqvP8DhUYPgWr/S+tC3BjZgslM+mTMNvw1FvyERUjZihyHQQy83xAcnOyM8T9eB6cskcr5wlc9DTQpqla+Go/FP49Fm8EzTAZq7djciT8Ypk4Y4zBnftqvh23qJpcuKkS4GjjaTOZMPTFm2LWChR2ks6lt687tfjDFzoeaMLXbsaF4zPb/LgHB83SMMzX4chmpfhKLcZ0NNcc23rLjYasAM9Ju0EvPW7cHhqDirCVQ84uLOnTvR5N13Zc5kJ4c5888WPXFRRGBjozCLhtNVo/ah0eLD2BEXW+CLusicCW7RpLELs3N6FQchuYJeem2aMCuWj0GznlPw0+hFmGw983ZEnkSyK2+NmuJozjj12Csv4a53G+GKn7/FX0J64ApLt4T1w2NjQlFv1mQM3rIeK48cwoH4OMSnpRWbZ1x+kufmjM/6I4/esBrLWzfE4ncrYcFb5TG/cbnT1aislMdaaN37vQM7I3XdsvMrvpxP5gzn+QcK4lLBaGhY+oOzXc/haN4pzBSPq9J2CMp+Fmqq77fsOw3dxi7BhMWbzbKVR07GF9/aNF4P3LFbEb2qNg4tuAUH5l1t6dpipKuxf9PH2Bd9DAfiYs5JhxLjzYhMsOtESrKZulLQnQ5Op2G85BQb1kXxL/Qopate+1B82ys8YGw7X0VERJi4yOml7XsNx8edw9Do21BU/ZzTnoai9rej8Em/aVbHcDHGLdyE1dsjcSw2EWlWe6iocujQITT/8EOZM9nJac606o2LRh0IaHAUZv1l+G7cOmY/2q6JQrzLlfHXUXDInCk8Sq/3NRw/9A1Hq5/D8LbVF6hlfW402DmN9P3uk9BxxAKEzVqHxRv3Y//RGCSn5v7fWLE1Z554Ak8+/zweeqsBbvzhK/x5cHf8aUhP/GlAF/yp/8+4xPr/EuH98eKEEWg8awp+3rgacw4fwNGE+KBoExUlgseckfJWMmekXBCX5O7ULxyf/DzMdEb44GShPdbCeaPDKLQfNgfDrQfnsi0HTM2H6IT0jmxxwcS7w1sxO7QO+re/Gz2/vBW9292O3l8VD/VtXxI9wj7AT6uXotu6leek/ts3YsCe7eizZ0fQqq91fRMiDyAuNa3A0/Vtc4Y1UL7oHhaw0KOUrtxYJjY7hQwbYaaCtu4yDI07hJppT+n1aYagZvsRZlWSkQs2YMW2Q1ZcjMap+OQC//vJbY4dO4YWH30kcyY7ZZgztz30KK5sMwgX/XIooMFRmEVz5tHJh9BvW2zGX0bBInOmcGpI2Ah0GzgcX3YPx1tWTOUAROW26TGVqz1xUHDQlNWYv24vdhyKQlRsItysY5oLcbXYmTOlSuEJ6+cTzz2HR1+viTu++xJX0JgZ2hP/N7iHpe6Z+tOgbvhLv59wqfXzoQnhaLJ4FiK2b8LWmFOIc6WpHk0uIXOmuEjmjJTLYnX/H/uGm9o07IxwNZNXW4XgZeszfL3DKPwwYgFmrtmFA1FxiE9ORarLA29BVwfMY/hQ37FjB5o0aYL77r4bt996G+4qWTJwQ70I6l/33Y/b672Bf1gP9H+G9j4n3TspAvfNnogb504JWpWYMxnVVi3CgcSEAjcdbXOG37vcXgZVOn9xymnnfsPR9Icw1PgyNEtcbPjjOPw4ciFmrNqBo9HxGXHRXSTiYkxMDD5r3RrXX3NNwNggWcowZ2596lVc2W5kkTRnLhq+B3UXHsP8I8Gx7K7MmcIvTrXvMmC4yabhlKf0BSuGmKzRGu1H4MshszBpyRYcOHzCLFjB+jQXMs2+uJkzTzz2GJ586ik8Ub0qSn7dBpf1/9lkzPgbM6dpYFf8I6Qnnhgfjq/XL8fCY4dxNDkJqV4WcJZJcyHInCkukjkj5bLY0EkvlhmBXoMjTG2a974fZh6aTEMt12YYqnw5HA07jUOPcUuxdNMBnIoLjgZbXuE0Z0reURK33Hgz7rj1NtxRonjo3nvuwU11a+Ovg7rjz9aD/Vx0o/WAv+O3CSgx69eg1c2zJ6HS6sUyZ6Rsxbg4NHwEeoekx8W3v0s3rznliXGx6ldWXPxxLPpMXI5FG/bheHThr9GUlJSEDh06oOTtd6AkTWl/Y0IqFubMzb/sR8/N0YhOKfgpTUTmTNGQ3dbsOyQC3/XmFPtheL3dMFPvi1PsK38RjlrfjDSDgrNW7zLT68+X4mTOPPHII3jy6afxePWquO/Tj3Bp7874kzFfzmLMUAO74s8DuuIfQ3riwdFD8PTkUfja6l8uOX4EiWnB8f0vrMicKS6SOSPlofjgDBkWYTojnfoxvT/MpPczDfVVq0PCh2aTrr/i27C5plO5btdhJCcnF7lCYv7mTImbbsadt91eLERz5v5778PN9d7Anwfx4c2He851/bhwlPxtAm6fPSkodWuGOVNR5oyUQ9lxsdfg4ejcfzg+65peR4ErEjIusjbNe10m4uvQOQibudbUpolJToWnEGbSpKWloXfv3njk4YdR4sabTEwIaFAUZ2WYMzdXbIQrOk8vUubMRZZYDPj1+cyaSQqav2GZM0VLXFV0SFj6whjdBkaYKb3vfh+K6l8MxcufhKD61yPw9k8TTDYNF6xgYfYTJ2PgOof6R8XFnKEx8/TjT+DxKpVwX6vmuK7HD/hriNUeowKZMf4a1M3oL5Yup0lj/e6/E8Lx7rK5GLp7C5YeP4Jkt0ya86FomjONymBew3Tx3zQmAm5XnCRzRspHcUUT1mD4vFuYyaap8zWNmqFmdKNRp3H4euhsDJy0HLNW7wSXBI5NTMn4KyjcBDJnAjbSi6DSzZn7cXP9CzNn7pg9KSglc0a6UA0MjcDPA1hHIQxNO3JVklCzKkn5tsPMqiRfhsxC30krMH3lDmzedxzR8YUn05Cxj4WSX37pJdxw7XUyZwIpw5y5/o2WuKz7giJjznDVqUutn7eP3Y8B26NxMDF4OmQyZ4q2uFgFBwPf/Hqo+ZxtsYDwx1afgjUQ90ceQ2pqasZfxNkpNpkzjz6KJ159Ffc3fQdXd/kWlwzpib+wAHBOzRlbg7rhT/1ZNLgLLrP2LTlyEF6dPhZt1izGulNRiEpNQap1TzXVKecUOXOGBsTCdyphoXWuTL1VAQsCbFusJHNGKgBx6Vlm07AoZ8ufws1KT9U+H2LmDPOzZjZN97FLMG35dmzaewwHT8QiKTm10GbUyJyROZNfyJwpvOKqJEzP/75PuFmOmyYNR35p1LA2DZfk/mnUIkxashUb9x5FZFQcklKCe8lSNrynTp2K6tWq45qrrsKdAWJEsVeGOXNNo69waZ9lRcac+VsEl8/ei5rzjmJ1VBJSrOdgsCBzpmhJmTMXqFKl8Phjlp54AqVefBH3N26Ia777En8e2BV/GtoLZoUmf/Mlx+phVna6yNIN4f3w0qwJ6LR1HaYfPohdsVbbXlOdckyRMmcWvFUByz96E2u+/gC/f9ciXd82x/KP38TCtysW7wwamTNSEKjnoOH4tEt6UTd+1rYqfRmO5r2mYNhva7H34NFzGuUIJmTOyJzJL2TOFB3RqGnXIwzvWJ2Mihmr35VuFYIKn1sdj64TETJ9NdbtOIgT0TRpXHB7gtOkWbRoEd5q3BhXXXEF7mQhdCsGBooVxVa2OfNhF1w6aB0uGl00zBlmzdw78QD6b4vF8eTgWi5e5kzRkGrO5JIefQxPPPIoSj3zDB5s1BBX/tgefwrhyky9rHaYv9ly7vpzSA/8c3h/3PfrcLw4fxKenDMB76yaj2E7t2LriZNIcrvNik7KocmeomPONCqLRU2rYc8v4YjftQ2px44g5chhJB7cix3DemJJ89cxr8FrgfctDpI5IwWBZM4UXcmcyV9kzhQdcTR4WEZ9Gq5K8pkVIxt9OwyVPw81tWlo0lRrF4FW/aabz51TQYPRoFm3bh1atWwpc+ZMyjBnrvxsCC4eugUXj9h3mtFR2MQ6M/+aeAAd1p5CbJrX6nhl/DEECTJnCr+0WlMu69ln8Eit6ri88zemoG8gk+W8NLAr/hnezxgzT82ZgOfn/YrnLJVeMBnVl/yGFr8vQcS+bTicmAhXkA4wBAtFxpxhfRmaM4dmTUbqyShzXp/bA1dCHPaOHYqlLerInJE5I+WzNK1J5kxOJXPm3JA5U/TEziNjJmvT9Bwcge8ypj2xngKzaWjS1Os4xtRS6DpmMX5dshU7DhwzxdWDgd27d+PHH37ALTfehDtuu11TmwLpjttx2Tdj8LfwXQHNjsIkGjN3jduPT1acwPaY1KAcDZc5Uzg1JGwEug1kfa5wvNUhFK9/NdQsMEFTpuLnVnuy7zQMmrIa89ftxY5DUYiKTYTb7TbTKy+UImvOPPqoWTL7sWqVcXeblrh4QJeM4r+Un9FyjuJUqMuG9MTdY4biyRlj8MK8X405Yxs0zKKpsGga3l45Fz22b8CSE0dNLRoRmCJnzkTOm4bUmFMZZwfcSQnYN34YlsmckTkj5ZtUEFjmjL/5cjbJnDk3ZM4UfQ0KTV+K+x3rmch6NPy8KWbT1P9xLLqNXYIVm/ciISEh46+iYDl27BiGhAzBf/71AG67+RYtqe3Uben34vZHn8ZlnaabIrqBDI/CItaZKTluPz5adhyLjiReUKZCXiJzpvCItbj6hAzHD33DTZYMV7arZX1upVsNMQV+3+8+CR1HLEDYrHVYvHE/9h+NQXJq7tcxKZLmDI2Z/z2FUpUq4N/Nm+LGXp3ObWWmM4imzF+s9ttlQ3uh5OgQlJo6Cs/PmWDMGKc5Q/HfL1qqsXQmftjyO2YeOYSDGW2pYDR2CxKZM8VFMmekPJSW0k6HD/WdO3fi/abvy5zxM1/OJpkz54bMmaKnwp45k5iYiClTpuCF55/HzTfcaMWEWwPGimKpW0vg7jtuR8nytXBFz/m4eGThnNLEJbMvG7kXd4/fj2ZLj2PxkUSkuoOrzowTmTPBLU7n5POLqy591zscH3VigfT04ugVrXjHVeya9ZyCn0YvwuRl27Aj8iSSXVb/Iw8pUuZMKUuPPYYnHn4Ej5cvhweavYcSP32Ly0N7m/owgQyXc9GfrLbb34f2xu2jBuPJ6aONMcOsGac5Y+vZuRNNDZqnrZ80aNpuWIHR+3fjQHwckt1ueHO5T1mYkTnjVKOypyvQdjlRlmP4HSfLa47f56Wsc8mckXJTbOjYRdp6WR0JjvAyS4ZppxzpKNdmGKp8ORwNO41Dj3FLsXTTAZyKKzxLw54PNJv27N6Dj5o1x50yZ85JMmfODZkzRUdFpeYM49+yZctQtWpVXH/d9bjtlhIBY0Wx1K0lcM/dJfGfhm/hyoHLcdHogwHNj2AVTZlLLP1j1F7cN3Efvll7Ctujk5FmtfGDGZkzwSfWkDHxLiwCXa141/rnYXij3VDTdnzt01BUaBuGml+PQOv+0zFq7gYz5Z11ZPKLImXO0Jj578Mo9fRT+Pe7jVDi5w64IrQP/hzaC/8XcrrZcq7685CeuHrkQDw14xeTFfPS/ElZpjQF0jMZJs1L8yebYsFhe7ZiZ0wMklyclpbxIRRzZM7YalQGc+u9cprmNXjVvBZwnzNoXsPXsh6jfmlzfeY16xoyXzO/z6dsHpkzUi6LpsyPfcPxUedhqP3VUNNJfLVViFkK9vUOo0zV/JlrduFAVBzik1OR6vJYjfeiHXk533n//v1o06YNSt52G2654cbADfUiKJkz+YvMmaKjorJaE1m7di0aNWyEG66/QeaMU7eWwJ1334sb32mPvw9eW2jMGZoyfwnfbXTtqH2oOnc/Jhw4jJg0jxUDg3/VFZkzwSc+r9r1CEe9b4ZlxLsQlP7Eindtw9Cs1xQMmLIKa3ZGIiouCUmpLrjcnnzttBc1c4ZTmh5o8hZu7vwNLhvcHX+hMeNnspyvLhnSE7eOGpxjY8aWPdWJGTaVF0/H95utZ9zJKJMVlRt1gwo7xd6cMeaIte+SptWxql0zbPj5C2zu3QGb+3yHjV2/xKov3sNi67gLTKZL9iYNjZyF1s8VH9fBhh8/xea+32NDt6+w6qumWPxBDfPeV7R5y5xndfuPrZ8fYsWnjfLsnmSRzBkpF8QaCJ36heOTn4eh0bfp84ErZXQm3ugwCu2HzcHwWeuwbMsB7DlyCtEJyQXeic1vIiMj0aFDB9x1xx245aabcBdXLQnUWC9ikjmTv8icKbxibQUaMt9nTFuq2z4U1b9IT+Wnuf3WT+Px06hFmLRkKzbuPYrIKJoyaYViGujevXvx808/4fZbb8NtN5fAnbfdHjBeFDvdWgIl738AV1nPy0uGbQ16c4Y1ZVjw92Lr542j9+HVmYfRcf1JLDwWj5OpKYWmRoRtzrCdwoUJpNPF6UQcbAsUq3JDzLBmHcJve4WhWadhqP9Nerxju/HVVkPwzs8T0HXcEkxdtQOb9x3HoROxSLTiXUF10ouEOfPoo2bZ7FLPPouHa9XCNd99gUsHdMFfhvS84DozRgO74ophfXDnuGF44rf0AsA5NWZsZRo08yah6pIZ+Mzqm844fABxablfR6iwUazNGRozS5vVxsZOn+HgmFAcXTIXJ9etQPSWtYjZug6n1q/E0UUzseeXEKz/8VMs/rBmQIPHHMv6/dKP6mBzjw6InDoGJ39fah1jPU5uWIUj86djh/WFWP11cxyc/It1zDk4tmwBDlvXuiOsNxa+U9GYJ4GOm2uSOSOdp4aGpc8HbtdzOJp3CjMrLlVpOwRlPwvFGx1Gm6r5LEw5YfFm/L7jMI6cjDcjHcWVo0ePomfPnrjj9ttx44034q6SdwZurBcxyZzJX2TOFD6xlszPA7gCSRiadkw3ZWjIlG9rdVh+GIMvQ2ah76QVmL4yvZMSHV/4poFGR0dj2rRp+Pf9Viy48SazchOLAxdncXpriRIlcGupZ0wx4IvDduBvI/YZ8yNY9f/tnQV4VFfXhT+oe78aVqTUvxpuLXWhAqVKvVChSv86tFCDQgUp7iQkQYq7W4K7u3sgQEgCcWD9d53MCZfppCQQmUnW+zz7CczcuTZz9zl7nX32uebvbbhn1E48P20vmi3Yi6Fb47AxNgmJTp8+kLDizONf9cZrPwbJvOz1H4NNny6725CwsH7G33FhiCbtQvFRq7TaWWm1ZEJR/49h+CFoCnqOWYCJCzdi7c4oxCQkeb61vCXgxRkKM+Udq1EDdz9fF0WbfYvzOv1h6sMUyo46Mz3bmZo1ZQb3QeXxg3zWl8mq3efY4+FjjEAzfs8ObHf6WIkmY6pgZtEUWHGG28/66Hms6dQcB+eH40RMtG+xwXkt6dAB7Js9Fas6/IKZDZ91Pu8lpNSvhfB3n8ba7m0QvXwJjsef2qE6npiE2E0bsGP8CCQ7D/yJ1LS5k8nOMSNnTUFEwzoSZxysOPP2L8Ho2qef7F+MIxG+GsTsMM4HDg7tb47TtkeYqSXDhvVZ1j/4qg+ebRaGBn8OQ+Nek9Bz7CJMW7oZuw/G+u1qDbkNG/XQ0FCULVsWRYsUUeZMJk3iTNaQOOP/Zguld+wVhj+cIOXbtmkrkDz3XZCpJfPyLwPRsM0I/Bg8FSGTlmLR+t047AQoxwJ4+mdKSgrWr1+P2rVro3z58rjnrrtR8Z5yBdp4D+6pUh0V6jXETcFLcdPgrSg7dDvKDPEP43LYt47YgXtG70CNCdvw6ORdaDBrH1qvjMakXUewMzoOyQE64NJ34hK81WqIzMveaDXY1LF6+MveeMJpQzr3Pvs2hLWz+oRwYYgwM+W9sePvGjTvi9pNgswxOJj3wV8j8UvodAyYtgJLN+3BUcff+VsAHujiDGvMVK5eDRWefQY3fv4RzuGS2UZYYV/rVKElq8bVmS5w9kNhpuLYgag55dSVmc7UWCyYhYKfjBiLRotn4u/tm7AxJgZxySk4VgAFmoIpztSv5fz7Maxu2wzRyxee4hhOHD+G407nggZX5/tEUrJzHYux7Ldv0q7BiikUZpz/c+rS4ZVLcSI52fMJB2e/aftKxjHHkpOTnH0yXSvteBJnTsWKM+y4smK7zJeF4LM/QsyIhK/G8WzMFKX0rBTC0Q7WknmhKYu0OQ3rt8Go/X0oXv55AH5yAomxC9ZjV3Ss55sTbg47Dcq48eNRoXwFlCxeosCk9UucyV0kzvivUZQJcnwpV6+juP1ui7SaXPSlLJRet1kY3v5tCDqPmIeZK7Zhf/RRz7eaP4iNjUXv3r3x888/o+n3TfFjsx8KtDX9/nt81/wPfNdrDL6dtQ/fzonyK/th0UG0WRmNkE2HMStqH7YdOYJYpy+b4se1jTILs3kHz1gl8zKKI8zUO1txhnV8OE0zKCRtqianSTX8NRhPNz7p7174oR8++HMIeoxZgHnrd+HAkXjPt+OfBLQ4U6kSqjh9z0pP1cLtjT5AkbYtPMV/2c/6p9iSVTu/TwcUDeuGSmMGpK/M5EtsOROjQFPN2efDM0bjo4Uz0Hfzeqw6dMgINAVNnil44owRQWph7pdv4MDcCBxzGiE3ifv34vDaFYhZuxzHD0SdFGhOnDBiyr650zHz03onj+3sj/Vkdk4chqSDzvZWsHA+dyzuKA6vW4lDKxfjyK5tSDUZMyd/YhJnTsWKM484jYWp2i77h3GOLtNCO/QK89lQnqmFhPZDh54c2Q3Fqz/2xZMmkEj7Lp77oT8a95yEIRGrsHn3ARw+koCE5FRlymRAfHy8KYr57JNP4cZSpU1auy8xI7+ZxJncReKMfxqFmT+6huHDViF4oWmw+X5sofS3fxuK3wZEYMLCDYiMjvMUSk/Nd4XSWRuHy2pTpImJiZHRYuMQczQBh5OOOXbcrywm+TjiUpzvLPU4ko4fQyoHFh3LD79KZvywqKzsVIuNTzICzdmIM2bVpZC07OoPWobgxWYuf+fs9/WWg83CEJMXb0J0XDyOJCSb78Pfl0wOWHGmYiWzZHa1Rx/BPe/VR7FWP+DcPuxf/VNkORMr1KcDrujfHZXHDsT9U0dkqzBjjTVoKNLUnDYSb8+bit6b1mHt4WikON9JQaLAiTPcjjVe1nb/A0e2O9ft6WAfT001Asr64A5Y/MtnWNryS2wO7YLk/fvTpyGdOJaK+L27sOzPZoj44DlnX4+b61ngXFvs2tU4lnByOlOq03nfPmowlv3eBIt++Bhruv6GqCVzneOcLHQkceZUQictQ4uwGTIf9kvIdHzQbqRp8CjStO959uIMs2Q69UpbJeSDlsFm/vGz33GEN8gs4fpN9wnoMW4hpizdjPU7D2D/4SMFupZMZklOTsbOnTvx9ptv4eYbb0LxArJik8SZ3MWKMxRRv/8r5B9FHmUnLTtS9v/Nevftb7INv27TFw2aB5vV657+Nk1Qf/Gn/qa2woDwFZi/bhe27I3GobgEvw9QhBD5F2ZFDY1YfUbiTJ+Q/maa5ud/9sWbPwWlFzN/6tsgvPpLf/wcMg1h05ZjtmthiEAicMWZiqbWzN0N3kSZls1webc22ZYxY4SZsG64ZXgIak5Nm8qUE+IMjQINl9t+YPoovLdgBrpvWIVlB6OMQFNQWs0CmDnjbPfR89g1aTiSog94tnIexoR47HE63vO/bWCmPHGf879pgAML5iIlLs6zlePQjsRhy+BQzPk/Z39vPmpq0Cxv+RWSD0SZazWkpiJx13Ysbv4lIt6vY5bNnvfVm9gxIgzHObXJg8SZU9m0+xCWbdor82GLNuxGl5Hzz1qcYZE2Zsi06ByGb9ow/TRtGWw2znWb9UPDtiPRst8MDJq2DHNWb8e2/YdxJMk1VU+cFo4aHzlyBF9//TXuuP1/KHrttT7FjPxmEmdyFyvOMLutnvMMexd6lKXZGz8F45eOoT794Zlav379TKF0ZjD+1DEM//dHiFm9ru53FGTSasl82XUc/hoyywmAVplaMvtijiLZ9hGEECIPyYo4wwwZ+rs23dP83Rd/hpjakLWb9DGff6XF3/i623h0HDYHo2avxpKNe7D38BGTFRiIBKQ4U7ESKrEA8MvPo9Qv3+HK7m1xXp8OTt/qn0JLVow1Zrhc9lVh3XDTsBBUnTjEiDI5Jcy4jTVonggfg3cXTEf79cux4EAkYp14pCDUoClg4sxjRqSY/dkrOLB4jhFaLCmxh7Gh55+Y/cmLJiPGZNi8XwdbBocgYX+kZyvnoU1MwN6IaZj/7TtGdOEKTsyKSU04OYfyePxRxC5f6Lz3ctq5Oced+3+vYmu/rjiWlOjZSuKMyDxsSEfNXXdG4gzT7LkEdrseYfi1Uwg+adUX9X7gnOAgx/rijZaD8XGH0fh94EwMn7UGa3dEeY4qzhQ27u3bt0e1ylVQ9JprUbaUb0EjP5nEmdxljOMPfBV6lA3Bm4692mIQHv2qj7Fv2oT49I1ZMdZWYLYhl4Rt0z0UP7YPMctgP/d9MJ78NsgU1+QS2F91n4CuoxZg+rIt2HMg1oi1QgjhT2RGnGFxX77eulsofvgrBO+1CMbzTbnCXBDqNg1Dgz+G4puuY9FzzEJErNiGvYdOxlSBTECJM8yWqVQJlatXxz3P1kbpFk1xOYWZoA4m28WX4JIVozhzVUgX3OoSZrKjAHBmjVk0j4SPxitzJ6PF6oWYHxWJA4mJTv8rf8efBU+cafAU5nz1Ng6vXmayZQwnTiA5+iBWtm2GmR89B2bXcH9mBaaef+Lo7u1p2zlQXIlaPAcLvnsf015/GLM/rYd1fToa0caSHHsYkbMpujxrRBGJM+Jsyao4Y+YCO4EE00879uqH79qF4JUfgjzTIILw9HchqPdzf3zRaRT6TVmO5dv3IdZPljHMDzAgGzlyJGo//TRKFituhAtfgkZ+Mokzucu6HVE+Cz3KVuHv6SvNSnL0c2crzlDc5up1vfqmjRx/8WdatiH98OPfBOOZ70PxVsuBaBk2DeMWbsD2gzGqxyWE8GsyEme4MAT9HVeZ45RQrtTJaUsPf9nH2S5tYYg3fx2In4MnY6zTJz146BBSnTgvPxEw4gyL/5YrZ/5doXZt3PL157jM6XudE9wxW4SZ//Rsh3MdKzawFypPHIKHZozKVWGGZldx4r+fiRhrBJqZ+/fiYFJSvp4aXCDFmblf10fixnU44RFKuFpTYibFmePJyYheswwLm35oxJm5n72CLWFdJc6IHCUr4kxYv37oERRmBJl3WoTgOadhZSHhR53PUpz56K9RTuCyEIvW7zLFfeMTU0wtGdVAyD7oU+hXP/7oI5QtUwbXFy3mU9DITyZxJnehT/BV6FGWYgpPstbBCz/2PytxJjS0H9p0C8Xnf4bgtZ/6eurIpE0lq9M0DF90HW+ml23cdcAU2ExMTs3z34UQQpwOX+JMaFg/tO8Rii9bh+CNnx1/xxWXvkrzd898F4pvekzEoBkrsX5nFGKPJjr+LiVfZgYGhDjD4r9cMpvTmZ54DHc2+hDFOv6OQqf0q7zElqyYR5i5qm8X3Dp2AO6dPgoPhY/5h3iSW8YMGlrtmWkCTfi+PYh2r46czyiA4syTmPvFG4hds/xk5oxDcswhrGzXDDM/qOvs62Th4PVBfyF+707PVsycScKBpfOx4PuTmTMbgjqdIs6kHIlF1MJZ5nwkzojsIDPiTEfWP+gQik9/74vXfwxC3e+CzKpLnL7U4PfB+HNgBMbPWYXlm/Zg94FYHE1ULZmcJDExEa1a/Yby5cqhRAEoCixxRvgLFJr3HIrDCz8NyLI4w2VhGahQ3H6/RbCp51PbCVK4CkmdJsH4ovNYdBm9ABMWbzRTQCOjjyA5RbVkhBCBgxVnbN0y9hs/+DXYZFjXacIsmbRi5l92HY+eo+cjfMkGrNsZZRaGCNRaMpklMMSZimlZM088hjsaNkDx337Ehab4L81LaDkDK+Ts65KwrrhldH/UmDYSD8wY7VjuZs14G8UZZtG8MHuCEWgi9u9xfsf5s0hwwaw58+nL2D8/AilxsZ6t0gSVjSGdzHvT33zMbEuhZse4wUg6dLIGB2vL7J462lxPWs2Zl7Cm+5/OcTjXMu0ncswJymLWrsTcRvUwwzkvbidxRpwNvsQZFqVkLRlWzf+hQxg+bNnXNKxmdPebYFN34fvek9HDaVgnzF+P1dv24ejReNVAyEWGDRuGus/WRdFrr/MpaOQnkzgj/IWsijMslN6pVxh+7RyGxm25LGxfvNCUU5d649lm/fDhX6PQqt8MDJiyFDNXbMPmvYcQl6hpoEKIwMQtztCMIOP0LZ9tGmayq5uHTsfA6Sswa9V2bI88hKSkguPv/F6cYdZMpcqo+sD9uPP9+ij+azNc3K1N9kxl8thl/bqh7Kh+qGZWZsp7YcYaxRlOdXp17mR0WL8c6w4fzpeF9guYOOPJiGn4LLYO74fEqH2erZyHMSkRUfPCsazll5j10fPGFv/0CaLXrThZ7Nfp8KXERGNDcHuPiPOoc8y6WP5nE6QccvZ1PO0HwmtO3LMbK35vgtmfvGQKCy/+4SPsGjtIqzWJMyJdnHEaUQYbP3cMxR9dQ51Aoq9ZJeTZ74LxdJO+ePnngWjYZgR+6DMJIZOWYuG6XWbZVpE3rFu3Dk2aNEGxokVRtlRpn6JGfjGJM8JfyIw4w5pc3YP64a+eYWjZKQSNfu+LV38MxjONg/Dkt8F47ddB+LTDKLT+OwKj5qzDhl0HkOr4YSGECHSsOPOI4x+fbhJi/F2jDqMdfzcTo52+5prt+800zYKIv4szVStVQtX77kOF1+qhRIumuKh7NgkzPduZv5f07YIbh4caIYR1ZrwFkry26s55PTpjtFlmu9emtdgcG4P41FRTTiC/UCDFGdadWdqqMWI2rcMJ28E+fgLHjxzFXic4WNPxF6xybNekYUhNTEj/wk84X378rm1Y9MNHCH/vGZMVY2rYfPU24teuxImEk0Ewpzntmx2O1Z1bGvFm8989EbtlvbkfFokzIrNYccaOctT7IS3VnoHHk437mvoHHO3oOHwuZq/YijjX8u8i70hOTkZISAj+d/v/UKr49flaoJE4I/yFjMQZUyg9jMvC9kfb7mH4qnUIXv8pyNTjeuzrIDzlBCkv/dQfn/41HEETlmDt1t2Id7XrQgiRH2CfkiIMl/3/ous4BDv+bt22yAKVIZMR/i7OVLv3XlSpWwdlm32N87q18fShvISWrFrPdijcoy3O7d0Btw4Pwb2Th5qVmfxRnKHd5xiLE788ZzL6bF6HjTGHkeTE6PmFAifOzGhQK02oeL8Odk4YhsSD+z1bOjgdOtahSYk9ZMzUkXEJEIlR+7Fj9FDzWSum2EycLQN7IGHfHs+WDtyX4+SS42KMCJN6NA7HvX44EmdEZvEWZxhMcIrTK83/xm8DIjB23nrsjIoxhTA5Hzg/KciBDL+H+fPno2HDhrjy0ktR5vrrfQob+cEkzgh/wZc4w2mgvYPD0Kx9KN77NQTPfx+cVij9qzSf+n6bEegycj7mrtmB6LgEU5OLhdLlS4UQ+Q32KbfvO4wFa7kwRKL8nQt/F2fK1a2NG777Eud3bIVz+nDJbPahvMSWrJgt/hvcGTcOCkLViYONMONLFPEXozhz77QRznmOQr25UzBg81rsiDlsvrv8QAEUZ5zt69dytn8cS379Anuc7ZNd2xuMczrVQSUe2Iddk0dh/ncfpu/D/uU1zfv2HbNCEwWXf+Ds7wRXw0lI9Ow7DYkzIrNYcYajuxzp+L7XZPSfvBTzV2/Hlr3ROBgbr5R7PyUyMhKhISG4oUwZ3FCydL7NnpE4I/wFtzhDEfuNn4Lx2R99nb9BeI6F0r9lbYVQvNdmOP6guD17FZZu3I2d+2MQl6CR45yAtc7YceZfBoCywDUR+PB75LQlDuiJU/E7ccYsmV3e/K345JO44bOPcHHH31C4d3tTuPc/vb3ElixYIZrTX7soqBNuHhyEeycOwYPT0rJSfIki/mJ29SZrjRZFYNj2Tdjl9M3yA/lGnOHy16z/sn3M3ziybRMSD+w3gkr87h3YENIFsxvVOynO2O0/qIvlv32DHaMH4PDaZUg6uB/H4uNxLCUFx5IdO3IUiVGROLxqCbYND8WSX7/EjHeePvW4LuNS3HumjsbR7Ztx4kgcTiQm4Xh8AuL37MShlYtxaNkCMzXKInFGZBaKM4s37EG7IbMxYtYazF+7C5EHY5Gaj9L48itME162bBleeeUV3FimDEoVL+FT3Ah0kzgj/AW3OMOsGK5a9wyngX4dhLd/H4omvSah+5gFmLRoE1Zt3Yc4p63PLyNu/kqi01Yt27cXPVcvRxunL/TXsoUFxjo6fcjuG1ahr9N/CmTrt30jBu3YhBG7tmBi5E7M2L8bSw8dwLbYOBw6moiElFQck18UAY7fiTNcmemecqhasybuavgurvvzFyPKZEedmUI92+ECZz9FBvZCxfGD8MiM0XiYBYCn+xZF/NFYG+ex8DH4dvk8TN67EzHJyaYPEMjkI3GmlhE5VnVqboSUHWP+xvbRA7F9ZH8safkNZn7wnKfezMnPmClJzvnM/+pNrOn8q1mZaf+sqYhaPNfY/vDJZh9rOvyMeV++kX4c9z6sMRNn5rvPmCLCm8O6IGrGBByYG+7sbzo2/x2EVd3/wLaRYTjmLgh8+BD2hE+QOCNOCzs80UcSzMiubnvgwYY+ODgYFcqVM+LMDSVL+RQ4Atkkzgh/wS3O1Po2GC86f99vMxxNe09CvynLMG/tTkQdPurZWuQG8SkpGL91Ex4aPQjF+nZB0aBOKBLcOd9bccduHhSEShMG4yEngAhkezxiLGrPHI8XZ09EgwXT8eGiCDRbsRCd163C35s2YtKenVgRfQDbjsTiQGICEiV4igDEr8QZZs2wAHC16qj48gso0+J7XEZRJYjCDPtO/xRcsmQ92+GK0K64bXR/1Jwxyjzn/rIyU1asytThqD1rPJqvXoRZUXtxxGlvAlmgyT/ijLX6aVOWuBS2MeffpxM+uA2Xu+Z2PEcugc2lr2dTNOH7bz6alnXzb/uh+PHBs2ZqFTNyaHM/eQkzP3oRk+s/g5mNG2Jv+HgcTzmZQsjMnh3jhyDivdqnPcezNp6fxBkh8gRmz2zevBlvvPEGbr35FpQsVtynwBHIJnFG+AvslEVGx6H+70PRsO0ItB08G+HLtiA+Pt6k84vcJ/XEceyOP4p3Zk1GsZCuKNzlD/yne5t8b5c6AdDNw0JQ1QkeOMKbn4wBUfnJQ3GPYxUc41SIRotnos3apRi+cwvWxkQjxunzUqQ5pudOBAj+JM5UYdZM9eqo/MJzuOHHxri0W2tPxgz7TV5CyxkYa9YUHRKESs6z/EjEWFPDxZf4EQjGVZyYQdN4xTysiT6EhACeWZD/xJkzNYoj6QIJ/9ZCePr7pxFOnM9R3FnVsTl2ThxmbE2337C89Y9Y9ucPWNO9taltk3ok7hRB4+iurWZZbn7eO6sn203ijBB5BgNCrtwUGhqKxx55BNcXLWbqz/gSOQLVJM4If4HiDGvHzF61wxS9jItPUqF0P4ABeu/Na1BjRH8U7vqn89z/M1jIN9aznRFnrgnrhrvGDDB1EXwFFIFstt7DfU5QZK+v2tQRxmpFjMP7i8Lx8+pFGLdnB/bEH9XzJwICfxFnqpQvj6o1aqDiS8+j7E+NcXH3tqbOjE9/c0bWHiWG9UVFz8pMgTSVyZfRD/Eanp81Hi0dv7MxLsbzjQYeEmd82SlCTSbMiCuPY8uQYMRt3YCkQ1E4smMLYrdsdGwDjuzchqTog06P8WRn/kRCPA7Nm4GF3zbI+vHOxJz9S5wRIu9gx3TXrl1o3Lgx7vzfHfkue0bijPAX2DLx+4mNTzL1uoT/wCkvX80LxzUhXfCfHm2dZ987YMhH1rMdSg0PQWVP8OMroMhvxoya6lOHO4HSSFO74omIsXhj/jR8v2I+BmzbiPWxMUjWqkDCj/EHcYbCTI3KVVC5zjO4+evPcEnnP3FOUEdkx8pM/+nRzog8xQb0RPnxg8xz6+8FgDNjVizm8t9vzJuKYbu2Yq8Taweir5E4kx1Wv5apN7N32jikxBz2XHnGUJiJXbkYG3u2NoKJz31mt0mcESLP4UolEydOxBuvv44SRYrmq5WbJM4IIU7HseMnMGL7Fjw5cUTa1B9fAUSgmxMAFXb+XhbSBXeO+9uz5KvvgCK/GoMkXjenGvDvY+Gj8boTMP28ejHG7N6OjbExOJqa4vlVCOE/+EXmTIUKqPTMU7j5sw9xZdsWKNyngzGzOpO3v8mseYSZ83p3QJH+PVHB8U33Tx1hhJn84p+s33k8YgyarpiPaXt2ISb+1JWSAwGJM9lgnP40+/062DlyAOI2MXPmIFKp1jGN2lgKjiUkmNWZ4vfsQPTCmUaYMct75/R0JmsSZ4TwCw4ePIg+vXujaqXKuL5Y8Xwj0EicEUJkhh1HjqDdqqUo2q87zmHAQPMVTASqOddznhNElR7aF9UmD/UZRBQ0u8+xalNZd2ck3lowDe03rMTsqL04kJTg+VUI4R/kuThTpQoqPfggbvqkIa5s0zxtueugjkbw5b99+pzMmOOXznX80tWO3600diAemjEaD4UH1spMpzMrzvBv3Vnj8eeqJVi6bx8SnDg8kDJoJM5kk0W8+zQWNHkXa3u0we7JYxHtdDwSdmxH4q5dSNi+HbFrV2HvzEnYGNIJC7+pb4SSXBNmaBJnhPAb1q9fjxYtWqBokaIofX3JfCHQSJwRQmQGZhAujIrE6xETcWmPtiicz6Y3MYC6qG8X3DVxsBElClrWzL8Z70flKcNMRs2Hi8MxctcWxCQnmXpE6lEKfyBPxZkqVVC5RnXcVf9tXPHbTyjUO02Y8eVnsmrn9O6A/4Z1w+0jw/BEOJfMzj8ZM95GgYZF2F+eOxldNq7E5rjYgOqzSZzJRgt/x7F3n8GsD5/DvM9fMyLMkp8+xeKmH2D+F29g1icvOu8/7So0nIsmcUYIvyExKRELFy5EnTp1UKJoUVMg2JfgEUgmcUYIkVkOJSRi7MbNuL1/L1xIf5GPsmfO57SBft1R0wkQfAUOBd3s6DaFmhfnTDSrO9GnJh/X0tsi78lLcaZKjeqo8szTuJxTmdL7Uf/0MWdipsbMmAG433n2WJclv4vG9DP0MZxOOWbXVsQH0OpNEmey0+qzsO8T5i8FGIohXCY74r1nnP871+28brJluJ33Z3PaJM4I4TcwvfLQoUMYN24caj32OMqUKm2mOPkSPQLFJM4IITILn5/tsbH4bN4MFO/XPd+IMxf0YT2HHrhr7ECfAYMszUzg5BGv6syagKYrF2BOVCQOJyd7fiFC5A15Is5UqICq1auj0vN1cctPTXCh40sKZcOS2cziO8fZh8mYGR6CGhOH5KsaM6czZujVihiL5qsWYt6BfWZp/0BA4kxOmRFqToo1eSLIuE3ijBB+BTsA0dHR6NmjBx55+BFcX7w4Spe43qfwEQgmcUYIkRUSnH7ErP178MTEYbicK5EE+PQmBkL/DemC24aHmswQX8GC7FSjQMN7xZWdvl4+FxP27sSBpETPL0SI3CfXxRkKM9Wqo+KztXHLV41wpdN/OofCTDYtm806MzcNDUaV8YPwgKcAsK9nMT8a/Quv97W5k9HNiWM3x0QjNTXVDJD6MxJnCopJnBHC72ADsXv3brRq1Qo1qlc3y2uXCdAaNBJnhBBZhT6ww9plqDo8DBdSnAngDJrzHT9W8u/eqOwEQZw24CtYkP3TmEXD+hAc5f5i2RxMjNypDBqRZ+SaOFPJsYoVUa1CRVR++knc/tlHuPavVijct1O2CTNcMvuSvp1RcexAPOA8X/RLBUmcodG/8JobLZ6Jybu24mD8UYkzEmf8xCTOCOG3bNiwAS1b/Io7b7sdxa8rghtKlvIpgPizSZwRQpwJUYkJ+GXRHJQO6x7Q2TNX9O2C20f1Sw8GfAUKsozNZht9smQWpu3bg0QnfvD3IErkP3JNnKlYCVXKlce9DzyAuz54ByX++BmX9G6PwsEds0Wc4bLbFzs+6YahfVFjynDjkwpicXJbHPiZmePRcvViLD64X+KMxBk/MYkzQvgtTLNcvWq1EWhKlyiJEkWKmgwaXyKIv5rEGSHEmXDc6UvM3b8XH8+agksd33FWy8XmoRUdHoYKk9OCIF9BgixzxilOby2YjplRkYhLTfH8SoTIHXJ1WlPVqrjzw3dRnMIMpzMFdcQ5PnxL1o0ZM11QdliI449GF4gCwP9mRjCfPgqvzJmEgVs34miyE8P6MbkuznDJaYoEbmNdlulvPy7LYaNIs6XH7xJnhPBD4uPjsXz5cvzQrBnuueMuM8WJy2zfeENZn2KIv5nEGSHEmRKbkoxxO7ag9tghuKB7WxQKkOlNFJLO690eV/XrjrvGD8K907R09tlalakj8MCMcQjashYHkhI8vxAhcoccF2cqVHCsIirVrIly9V7GVS2bmSmd5/bpYLJdzlqcdvZ1ad/OuHFYCKpNHlpgM2a8jfVnaoWPwQ8r5mPmvj1GoPHXDJocF2fgdGBjNqzGkpZfYfKbtTDxlYf/YfO+fQcrfvsaa1o3keWktfke+0eEIXXFImDzGt8CzL+ZxBkhchQKNCtWrEDT775HjSpVcX3xErieRYJvuMGnIOJPJnFGCHE27Is/igEb1+AeJ6i4OKhjQNSfYTB1oRMI3TKqn5k6oCDo7CxtatMovDl/OuZG7cURZc6IXCbHxZmKFVG5Rg3c9XxdFPmxCc7t0jpNlHHMl4/JilHUvjS4E8oM7oNK4wcpi89lXFabGUSvzJ2EtuuWYWtcnN/243JenHFIjIrEtjEDMe2L+hj18iMYXqfGKba6c0scmDICcXMmI262LCctafFcnFi70rf4cjqTOCNEjkMlnwINM2iqV62KYsWKoVTJUijrQxDxJ5M4I4Q4Ww4kJuDHlQtw25C+OJ/Bij8LNM65nRfUAdf83QtVpgwzAYDEmTM3jmzfN20kXp83FSFb1+GYfKzIA3JUnPEIM3c/VwfXf93IkyHIPpAP/5JFK+wYRe0yg4NMAeCajk+SOPNPe9CxdxZMx6S9OxGdnIRjfhjL5oo4w2AjOf4oNk8YgelfvotRLzx4ijizvV83pKxZAuzc5AT/62U5aVvW+hZeMmMSZ4TINVgk+Pfff0eF8hVw7TXXmmW2/XkVJ4kzQoizJfXEcex2+osNZ09Fyf49HV/iv+IMz41LZ98zqr/p8EuYOXOzKzbVmTUBHTasxL6EeM8vQojcJcfEmUqVUMXpz1V6+kmU/LoRzuneOvuK/zp2kcmYCULlsQNxv/MsSZjxbTWmjcCTM8fh19WLsOzQAb/MzssVcYZQoElNTMDeWdMx54fP/ynOrFrkqYPC6TaynDMfoktmTeKMELkGiwRv374dwcHBKFeuHK67+mpcX7SYT2HEH0zijBAiO+BI5sID+/F++CRcE9TJ1FDwFZDkqTnndFnfzrh5eIjJ+PAVBMgyZ7x/lacMwwPhY9DF6afSv/rjaLYoGOSIOONZmanaI4/gjk8a4pq2LVA4qINv33IGdkGfDijerzuqFOAls7NiDzv35uU5EzF4+xbsS/C/ula5Js5YkmMOY9/C2VjeqSUmvfE4Rjx770lxhsG/L1FA5h8mcUaIXCU5ORk7d+7E0KFDUadOHZQtU8az1Lb/ZdBInBFCZBcczZyyYyvemToOl/TukLbEth9l0VzknFMpTh+YNERB0FkYM2ZYZ6ba1OH4de1SLDt8EMnyrSIPyQlxpmqVKri3xr245523UOq3H3GZ40MKMWvGy6+ciV3YpwNK9O+J8qP7m4wZCTOnN7tsf/v1y7E+JhrJznfuT+S6OENSjsbh8Oql2OD8oMa/9yq29++F5OXzJc74u0mcESLXYUfh8OHDGDV6NBp9+ilqVK2KG0qWQqniJYxYc2MZ/ygWLHFGCJGdHEqIx+htG1F30khc6viIwn4k0Fw/wAmGxg00RSY1nenMzAozj4WPwTfL5mHewf2ITVEBYJG3ZKs4wxoz5Sug8r33osIbr6D0L9/hym5tcH5wRxTqw76Pb/+SWTPCjOOLyo3qj5qeguTWfD1zsjSj36nu2OdLZmLkji3Y7fTp/Ik8EWcMKclI2r0Ly3v3xv6Jo5Q5EwgmcUaIPOP48eNYuHAhWrVsiVqPP46bbiiLUteXRBkWCy7lWzDJTZM4I4TIbqISEzB820Y8OnoQrg7qhMI92uWpQFO4d3uzTO09nlFqBUFnZhRmWPvhiYix+GLpXMyL2q+VmYRfkG3iTMWKpsZM5SpVcXedZ3D9L01wefc2poh4oT5nP6WJdWauCumCu0f2w/1TVGMmK0b/Q6sTMQ4/r1yA+QcicdyPYtq8E2eIcyOOHzmKEzud4zPwNzVnfIgCMv8wiTNC5Cms3RUZGYnhw4bj2dp1cGPp0ihZrLgRRvK6WLDEGSFEtuP4vKPJyRi7ayseHf03rrBTnLwCldwwW3Tzf8NDcR9rpLg6+7KsmV0y+/+WzMHcqH1Qb1L4C9kizrD4b7ly5t/laz+DG778DOd0+cPUmcmOjBmu8nSu87f4371QeeJgTWU6A6M4w1pXb86fhhFO+5KQ4sS1fkLeijOEAf6+3WlBv8QZ/zaJM0LkOew4HD16FNu2bUOL5i3McttFrrkW1zlGgcSXcJIbJnFGCJETUJROcPocI3ZsRu3xw3ARs2dyW6BxgqGL+nRAycFBqDp5GGoaccF3p1+WsdmMGVqT5QswOyoSycf9q96DKNictTjD4r/3lDN/Kz3xGMo0aojzO/7m+BD6EvZ3vHxLVs3xRef3bo/iA3vh7vGDTEFtCTNZNyvOPDdrAjpvWIlNsTEmQ90f8A9xZr/EmYAwiTNC+AVm9bvUVOO7hw4ZgkafNkKFChWNQEMrVbIkbrwhd2vRSJwRQuQkBxLjMXjLerw4eXSuFwm+rE9HlHGCoYoTB2t1pjM0W/iXwkzTFQsxc/9exKYke75dIfyDsxJnzFSm8iZzhsLMHQ0b4LrffjDTIdP6Or79S1aMwsy1oV1RbnR/1Jw+Cg9ImDljY92ZJ8LH4MslszDWiW0lzlh4I5Q5ExgmcUYIv+PQoUOYO3cu2rdvj9defQ2VnE5BiRIlULRIkVyd6iRxRgiRozh9jsiEoxi+dSNenzwa1wV3xrn0Nbkg0BRhAeCxA3128GWnNwozFGVqzRyPn1cvwpyofTicLGFG+B9nJc5UqIAqFSqiysMP4c7366P4r01xcbfW2VJjhnZ+7w64Lqwb7hgeipqTh+HBGaMlzpyFsaA7syCZPdNu3TIztYmDn3mNxBlZ5k3ijBB+CbNo9u/fj+nTp+PXX3/FU089hTtu/x/Kli6DksWKoXSJ683y2zlZOFjijBAiNzicmIDwnVvx9uSxKNO/pxlJzkmB5uLQrrh5VD8jMGj6QNaNmUb3TRuJ5+ZMQksnAFoXcxiJTgAshD9yNuJM1UqVUPW++1D+zddQokVTXNStTbYJM+eZjJk0Yea+yUNNnRlfz5ssa8ZsPtYP+2LJLGyKiUGC05/O6+LAEmdkmTeJM0L4NVT8o6OjERERgWZNm6F61WpGnLm+aDGz9DYFlBtKUaTJ/owaiTNCiNwi5dhxbD1wGA1nTjHTjc5jAJPNAk0hxy+dG9QJN43pb9LfJcxkzVjTgcIMRa26syeiw4aViEyIV/Ff4decjThT7d57UfmF51Cq1Y84r3v21cU6p3d7XNW3M+4ckZYxQ2FG4kz2mBHdnb8N5k/FgK3rsfvIUSQ77UteInFGlnmTOCOE38M5s0lJSaZzsXjxYrRp0waP3FcTN5YqbQoHX3v1NSh+XRHcUDJ7iwdLnBFC5BbsffAZ3BBzGL+sXIA7hoegcJc/8J/ubbJNpDk/uDNuGTcQ1T0jq7469jLfRmGGI9L3TB6KtxZMx6AdW7A7Ph7H1G8Ufs7ZiDPl6tbGTU2/wpXd2+LcoI4465WZHF92rmP/dXzRTYODUG3iYCMkSCjOPqM4w7/PzhqP75bNxerDhxCf6sS4eYhfiDMnDuzHid07cGKXE/Tv2CjzUzuxa2va97RvD72XxBkh/BiKNPFOZ3jHjh2YM2s2enTrjg8aNkTN+2rizv/dgaLXXotrrvxvmlDDTJqyZX2KLpk1iTNCiNwmyemLbI6LQfCGVXhqzGBc4fiSc7KhUPAloV1x0+j+pk6Kd2de9u/GOg4MeB4NH4Ovls3G9H27sS8xHinymSIAyJI4Y5bMTisAXPHJJ3HzZx/jqk5/4HwjzHTAf0whYN8+JjPGKZtX9e1ihJnKEwbhfmZ5zBglsTgbjUIy/z4yYzRemTsZEfv3IiaP62H5hzgTfcgJ+PemBf2RO2V+aiecBtZ8Twf2S5wRIoCgULNnzx7Mnj0bYWFhaNWqFd5680089sgjuPuOO1G8SFFcddVVuL5YMSOynMm0J4kzQoi8gNM5I+OPYNiWDag/fTxu6t8TF/Zsl7aak4+A53R2aVg3lB0Zll6LwLszL8vYqjr37F7n78vzpuCPdcsw70Ak4rQikwggMi3OVKyEyuUroHKFiqj88IO484P3UPzP5rigT4c0Ycb0bXz7mEyZ48MuD+6UJsyMH+T4olESZnLQKNI8Fj4Gg7Zvwq487uPlvTjDAN+5CYg5LAsUi4s1opoQIvBITk7G7t27MXPmTISGhqJJ48Z45qmnUKFCBZS/pxxuvelmlL6+JEoWK44yzl9fRvEmzU6KMyw4fPutEmeEEHlDwrFUzN6/B9/MnYEqw0JxZXDHtAyaLGTRsPhv2VH9jDCjqQOZN5stw9Vj3lo4A103r8WGuBjVlxEBR6bFGc/KTJUefAD3vPkqSrdshsscH1IoKBuEGWPtcE2/7ig3dqB5rh6OGKOVmXLQWB+LAlj7dcuwPCoKR5JSPL+I3CfvxRkhhBB5Ald5YgHhNWvWYMSIEWjevDnq1q2Le+66CzeWKWOEmrKlS6NUietNUeESRYqaLBuKN8yUSVsBqrSpX0O79eZbUOz1emniTBbtmqGhKD1xOEpNHumXVsKxYhJnhPB7ohIT0H3Tajw4aSguC+qIc3u0RaHTCDQq/ntmllb0N02cecgJIL9cNgeT9u7EoaQkz7chRGCRWXGmSsWKqHxvDZR3+jw3/NQYl3bNviWzaef17YTiw/qi0tTheCRirISZHDb6Mvr9b+jDtm/H/rh4zy8i95E4I4QQBRhOeUpJSUFCQgJiY2PNktwUayaMH49u3brh448/Rq0nnkClChVx+223oyxr09DK3GCEmZLFS+Dq/16F/152GYpcfQ2ufPYpnNPljyzbRYODcen4Ibh0wlD/tPFDcfXE4Xh2QYTEGSH8GC6Dyqk086L24ptFM3Fjvx64uHsbFGKxYB9BEE3Ff8/MKk8ZhipTR+DFeVMQumUjtsbF+sVStEKcKZkRZ6qUr4CqNWqg4kvPo+zPTRz/0haFz7K+zKnWHmVHhKb7I/mk3DHe52cixqLL+lXYEBPj+UXkPhJnhBBCpMP6DZz6dPjwYTP9iULNgvkLMHXqVAwfPhxBQUFo3749Wv76K5p+9z0+a9QIr732Gl547nm8Wu8VvPrrz3hpwvCs29zpeGnpXL+2ekvn4ecNq3EgIVGrjgjh5xxJTcHawwfRb/VqvDZtHEoN6IX/sA6NVy0aFf/NmnGEmbVlaC/OmYQWaxZjcuRu7E2IR/LxY567L0Rgcjpxpkr58ri/Rg1UefkF3PD9V7i4858ozGlMZyvOMLuvRzsU7t0BN7DOzMQhRixQFl/uGtuB31YvwSqn7cgrJM4IIYT4VyjYMLvmyJEjJrNm27ZtWLduHZYvX4758+cb4WbihAmYMnkypi5ZjCk7t2Xd9u3B5AP7/N4WHj6ExNRjqocuRABw7PgJHDqagKl7duDHJfPw0NghuCqkC87p3gYXOMHU1WHdcPOIUBX/zYSxpgzvU/WpI1ArfAy+XDYX/bZtwIroA4hz2gch8gOnE2eqV66CanXr4NavP8PlHX9H2lSmsxdmzu35Fy4N6ogi/Xui6oTBqGlqoChrJjeNwjOzAb91fFv4vt04mpo3fk3ijBBCCCGEyLdw+ub2I3EYuGUjGoRPQKW/g3DHoGCUG9Uf1ScNNZ1yX531gm68LxRlWIfn3mkjzfLYb8ybitZrlmL+gX2ITkoy4r0Q+YWMxJkqVaqgWrVqqP7YY7i10Yf4b9tfcU7vDigc1NG34JIFK9SjHS7t0xFlBvZCpTED8YBHmPH1TMpyzmxW4DsLpiNs63psddqMvEDijBBCCCGEyPdQSDicEI+h61fj+yVz8MLsiaZDzowQrtYhkeakWWGGwQrFmbrOvfpx5UJM27sTqZq+JPIpGYkzVatWxX0PPoTy9d/Gf//4xWTMUJg5h4sa+BBcsmLn9mqPIv26o8LoAXgifDQenqEls/PKOK3p2Znj0XzlIszeH+n5VeQuEmeEEEIIIUSBgMVqE1JTsOfIUUzeswM/r1yIJ2eOQ7nJQ40Qwc45hRpfHfeCYBRkeA+qOPei0pRhqD1rAv5YswQRkXsQGR+PJCd4FSK/kuG0pvvuRaUXn8PNLX/AZT3boZDJmMmeIsBXhnXDLcP6osbEIXh0plZmykuj73vIuf/vLZyBQTs2eX4VuYvEGSGEEEIIUaDgimuclrMuJhoTdu9Em3UrUH+eE5CFjzaZIsymoVBRELJpeI0MSmyWDGvKNFwYjo4bVmPa3t3YHBeD2ORkU8NHiPyMtzhz2y234M5KFVH+lRdxc/PvcUX3tjiXxX+zaXWmwj3/QokhQag4cQgenD5KBYDz2OgL6QPrzZ2MoK3rPL+K3EXijBBCCCGEKJBQcIhLTsHG2BhM2LMdHTesxOdL5+AVp3P+RMRY01GnaEGhxldnPpDNCjKsJ8PsodfmTcHXy+eh+6bVmBa5C1vi4pCQoqWxRcHBijNc6OCh++7FnXffhTtrP4WbGn+OK3v+hXNYADibhJlCzn6uGdgLd4z7G/c6z+ND4aN9Pqey3DX6xLqzJ6DLxpV5sgCExBkhhBBCCFHgYU2aPQlHMTNqL0K2rsOPqxbijfnT8PTM8Xh4RlpGDUWa+5wOPEdYAymrxp4vp2zxGngtj4SPMdOWGiyYYZbEHrB9A+Yd3I8DiQkq9CsKJOmZM1On4tH77kX5xx7Grf/3Ea5q3yptKtPZCjNcMtv5e26fDrgitCvumjDIPI+sMaOsGf8wijPPzBxnpnPuOXrUZFnmJhJnhBBCCCGEcMEO+e74o5i6d6cZQf1o8Uw8MGO0CaAemD4qTejwdObtv60A4t3Zz22z5+E+H3t+PHdeB+2LZXPQa9NqzNy3B5EJ8ZAcIwo66eLM9Ol4rl493NWwAa5t/QsKB2dTjZkebVG4d3tc0a877h7ZD/dPS6txogLA/mOc0vpE+Bh8t2weFh7Yj8TUlFwVqyXOCCGEEEII4cUxp0Oe6ARrsclJ2HkkDnOiItFn0xp8uWQWnp8zEQ85HXgKHpWnDDMFhSs4f/NyChTPhcdmMd/yzvnQeD587+GIMXh57mQ0WTbXLBO76FAU9h49grjkZFPkl9cqREEn9Vgqog5EYcbMmXjkp+9wTatmOK97ayPOZMfKTLRL+nbBjcNCjP+gWOr9HMvy1uhDH3O+m08Wz8SonVsQl5QocUYIIYQQQgh/gB1zZtIcSUnBnvijWBsbbYSa4Tu3oePGVWiyYi7eXTgDL8+ZhGcixuIhp4NfccowI9bQKN7kxApQDCK4opL7OI/MGIXaEeNMQcuGi8LRbOV8dN20BmN2b8f8A/uwIfawyZKJT03FMeeaNH1JiJOkOs/FvoPRGDt3Ocr36IiLOv+BQj3amvowhXwILVkxFv+9LKQLyg4LQbXJQzWNyU+NfpXLmb81bwq6bliJgwkJuVp3S+KMEEIIIYQQWSDFs9rTprgYLDy4D1Mjd2HIjs3otXEN2qxaim9XzMenS2bh7fnT8dKcSXh21ng86nT4q08dbkSUszEW8uWqUs/NmoCX50zGOwum47Mls/H9igX4a9Uy9Nm0FsN3bsH0fbuw5NB+bDkSZ1Zbyu3aCUIEGqnHjmFfTCzGrFyH/4X1wnk92pqpSL7ElqxYoZ7tcHVoV9wyPARVJw2RMOPHZqeC1p45Dt8um4vI+KO5ulKdxBkhhBBCCCHOAmagHE1JRVR8AnZEx2Ll4UOYE7UXY3ZvNcWFO65fjh9XzsfHS2bh3UURqL9wBt6YP93Yq/Om4eW5U/HSnCmnWD3ntdec9+x2DRaG4z3ns42WzMYvqxaiy4YVCNu2HuP3bMO8qEisPhyNXdFxOJCQiITUVGXFCJFFKGDuP3IE4zevxx39s0ecKezYxUEdcduwvqgxeaipMSNxxr+NNbr4Hb0xbyq2xMUaMT63kDgjhBBCCCFEDkGRhFOIklJTcTAxCXvi403GzdJDB4zNPbAP0yP3YNKeXafYjH17Mf/A/vTtth6JNZ+NTkpGcuoxHFcmjBDZSnaLM5wOdVHfTig9OAiVxw7E/VOHS5gJALPF3l+aPcH4Xk4DzS0kzgghhBBCCJHDMI+FtQtYfJdBIEdjacnHj5mivCw+7Da+luzaLvXEcfNZ7kM5MUJkP9krzrQ3xX+tMHMfhRkn4Jc44//mLc4cTcm9FZskzgghhBBCCCGEKNBklzjD4r+F+3TAdQN7oqLNmHGCfS2ZHRhmxZkXZ09A+L49iE5MzLVMRYkzQgghhBBCCCEKNNklznBlp4tDuuCmEaG4f+oII8pY8xYCZP5nVpx5YdZ4jNuxBfuOHjFTU3MDiTNCCCGEEEIIIQo02SLO9GyHC4I64fpBfVBxwmA8FD7mH8G/zL/NijPPzRqHwZvWYkdsDFKOHfP8SnIWiTNCCCGEEEIIIQo0ZyvOcMnscx0rPrAXKk8YrPoyAWpWnKk7axx6bVqNddHRSEjJnaLAEmeEEEIIIYQQQhRozkqc6dkO5/dub4SZ8qP7o+aUYRJnAtQkzgghhBBCCCGEEHnE2YgzFwZ3QvGBPVFudH/cN3kYHpj2z6BfFhhGcaamY09GjMWvqxdh0cEoHJE4I4QQQgghhBBC5DxnKs6c37sDivTvgbtH9UdNCjNOYK/iv4FrFGdoj0eMwdfL5iBi/17EJCd7fiU5i8QZIYQQQgghhBAFmjMRZ87r3R5XhXTBbUP74r7JQ/GQpjIFvFlx5rHwMfh0ySxM27cbh5OTPL+SnEXijBBCCCGEEEKIAk1WxZlzKMz07YybBgeh8vhBRpiROBP45hZnPl48E1MjJc4IIYQQQgghhBC5QlbEmXN7t8d/g9OEmSoTBmsaUz40Cm2vz5mMCXt2SJwRQgghhBBCCCFyA29x5oJurVGoe5t/ijN2ZaYBPU3GTM1pI0wB2Xudv7L8Yfc5RnHm1dmTMH7PdokzQgghhBBCCCFEbuAWZ+4c2AeX9miHi3o61qfDKXZJUCdc27877hwzAA9OG4lHnSD+YU5pYraFLF8Yv8/HwkdLnBFCCCGEEEIIIXKTY8eP4+DRo5ixbQtqjRmCe/4ORrlBwSg/JOQUqzpyAB6dPAIvzZ2EN+dNwdvzZfnR6s+fis8Xz8T0yN1arUkIIYQQQgghhMgNjh8/jqOJSVi/7yA6r1iMVovn+LQOqxYjaMsaWT63YMeG7diEtTHROJKS6vmV5CwSZ4QQQgghhBBCFHhOnDiB1GPHnWA8GbHJST6N7x1NTZEVAEs4loqU48ed34XnB5LDSJwRQgghhBBCCCGEyEMkzgghhBBCCCGEEELkIRJnhBBCCCGEEEIIIfIQiTNCCCGEEEIIIYQQeYjEGSGEEEIIIYQQQog8ROKMEEIIIYQQQgghRB4icUYIIYQQQgghhBAiD5E4I4QQQgghhBBCCJGHSJwRQgghhBBCCCGEyEMkzgghhBBCCCGEEELkIRJnhBBCCCGEEEIIIfIQiTNCCCGEEEIIIYQQeYjEGSGEEEIIIYQQQog8ROKMEEIIIYQQQgghRB4icUYIIYQQQgghhBAiD5E4I4QQQgghhBBCCJGHSJwRQgghhBBCCCGEyEMkzgghRA5w6NAhzJs3D6NHj8aYMWMwaeIkRO6NREpKimcL4S/wu1q6dKn5rmiTJk3Cpk2bPO8KIYQQQgiR80icEUKIbOb48eOYMWMGHnnkEfznP//BOeecg6uvuhpDhw41QoDwL8LDw1GvXj3zXdGuvfZatGrVyvOuEEIIIYQQOY/EGSGEyGYozoSGhqJKlSrpAf/5552PkJAQ7N+/37OV8BeGDRuG6tWrp39XhQsXRuPGjT3vCiGEEEIIkfNInBFCiGyG4kxQUBAqVaqUHvCfe+656Nu3L/bt2+fZKn+yYsUK/Prrr6hdu7ax999/HyNHjvS8658MGTIElStXTv+uaN9++63nXSEKNnFxcZg4cSLqvVwPdWrXMc9169atsXbtWs8WgQuvbfLkyXjnnXdQp04dvPzSy+jUsRPWr1/v2UL4A/Pnz8cnn3yS3q40adLEZKcKIUR+Q+KMEEJkMwVZnBk3blz6dC7af//7X/z000+ed/0TiTNCZMzevXvxV7u/cMEFF6BQoULm+XjuuecwZcoUzxaBy8aNG/Hzzz/jiiuuMNd2/vnn4/HHHsfAgQM9Wwh/gN/Hddddl+6f2bb26NHD864Qec/Ro0cRER5hpkTTp9DGjx+PyMhIzxaZ49ixY1iyZAm6detm9vHHH3/g77//RlRUlHmPJCQkYM3atWjbtq3ZpkWLFgjpm5aZbbcRgYvEGSGEyGYKsjgzfPjwU6Zz0b744gvPu/6JxBkhMmbbtm2m8+9+Pp588km/zYhjce8JEyaY4t7M+FmzZg3i4+M9754Ki7a/++67p1zbrbfeit9//92zhfAHevfufcp39L///Q/t2rXzvCtE3rN79240a9oMF114Ufrv9IMPPsDChQs9W2SOxMRENGvWDDfeeKPZx2WXXYZ7773X+CoKQIQiTHBwMIoWLWq2Oe+881CzZk0sW7YMSUlJZhsRuEicEUKIbEbijMQZIfILgSbOvPrqq7j88svNeTJz77PPPsPmzZs9757KokWL8NFHH5mi7dye2TN33XWXAn8/Q+KM8Hc4FfLTTz895XdKXzR9+nTPFpnjyJEjqFSxksnis/u55JJLTPYYs2fIjh070Lx5c1xzzTXp21SoUMEIOBR3RGAjcUYIIbIZiTMSZ4TILwSaOPPoo4+aot48TwY1tWrVwsqVKz3vngpHoDl9oESJEuYz3P6tt94yK7gJ/0HijPB3JM6I7ELijBBCZDNnIs5wiW02rF26dDEjvS+//HJ68UMWqqRYwBWgli9fnmGKvmXPnj2m9suPP/6IV155Bc8++2z6vnxZw4YNTVFMdgos/PeChQvRuXNnfPzxx3jhhRfMttwXz4WdZY4681xSUlLM/zk9gNd85ZVXpl83rWzZsqccb/DgwelLip84cQIHDhxAREQEunfvjm+++Qav1HPOuU7aOT///POmWCc7IpyiYDsnvuBc6+joaCMQMZhs0KCB2QfvH/fxww8/mOXMt2/f7vlEGhmJM0whZoFj3gO7L94H3o+wsDDs2rXLswch8i+BJs48/PDD6ed58cUXmxpY9Ju+SE5ONoEO6+eMGTPG1IjgtvQjwn+QOCP8newSZzIzrUniTP5G4owQQmQzWRVnWBOha9euqFevnvkM5xGz+Kb9LFPtS5YsaeYUU2To1rWb2U9qaqpnD2nwuKy3wIJ0Tz31lGncL7zwwvQinhkZxRMKEFYw2bp1q5nPzI5FxYoVce211+K8c88z23JfpUqVMktPf/fdd0ag4RxnrqRx/fXX/2PfvoydCnYu+DlON2BBO4oezLjhdbrPmfeNxTpvueUWI4507NjR5yox7LSwiF7Tpk3xxBNPmO3t1Abui/vg/eCoOgvsufElzvB8eA84is57wM/zdc7t5v24//77TcDKYwqRn8nP4owIDCTOCH8nu8SZzBQEljiTv5E4I4QQ2UxmxRlmjVAIoZhSvnz59G3/zSgO3HHHHWalCqbk81iEQg3/zyVGb7rpJp+fzchuuOEGdOjQAQcPHjQiR//+/VGtWjWf27rtvvvuM9tSZGHdBk4N8LWdt7HDwewVHm/QoEGZ/hytXLly+Ouvv0y2jZt169aZVaGY/munNGRkDz30kOdTafgSZyhYeU/P8jbeNy4bzusQwp+JjY01fT0Wp5w0aRLGjh1rCuaycO6cOXOMQBwTE+NzpY+siDNcRWTnzp1YtWoV5s6dazLyeBxrDFQo6NLvcVv6wIxg9goDHp6fPV9mBE6bNg2LFy82mWu2+CVXlJowfoLJfrn77rvTz5Mi9z333GNEXX6e+5k5c2a6sO2dOcNtKHBnlDljs/M2bNhgro/3MqNrc0M/Td/K62EAZT/H85k6dSoWLFhg7rM7e9EN7xMzFHmdnKLFaVf2uPbYzPJj1uS/3VNeL30nz4PLU/O67b3l9fP3MHv2bPP+4cOHPZ86Fd5zvm+/21mzZpnjct+bNm1KPze+z/+7g0Xv6+By2PYamLXEDEr+drwzJDMSZ7gvHtv+rrkf/kb4HfN79f4ehMgp+ExkhziTGSTO5G8kzgghRDaTGXGGnVQ2ohRmbr/99vTtKCww46NIkSIoXrw4ihUrhquvvtpkk1jRgcUrr73mWtPo2ylO7Eizk12mTJn0/TAwYePNfdCuuuoqsx/3sZgyW6NGDQwYMMAEZwzSOG3HbsNjcZoSs3l4PjTukyLIgw8+aMQZdsopuFDM4DEoINnP07it/SyNgRLvA4MrrorCa+W58rq5b/exmKVy6aWXnrI/BobsiLvhyBKFG7vNRRddZO6b3Q+PweKgvH6OrLvxJc7QeO28P1zClefkff9ozFDyPhch/AX6ori4OBMwU7x8/PHHcc3V1xh/xN8vM8KqVq1qxFUG076WYs2sOENfxAwViqfM8KN4617+mMbsNX6WgQVXFqEP9BYTeM70ZwzWP//8c3N+9nz5/JUpXQbPPPOM8SMUeXm+w4YOw2WXXnbaLEH6pooVKpp7QihUUOi2NWe4zeuvv24EIW8oBHBZXAoAX375pZlq4A6OKIrTH7Rs2dIID1Y4t4IOxRx+7oEHHjB+zZ4PMxGZ3UOhl6KTN9wP7y2FDooU9evXP6XNsMfmefNaeI70yd73lefPTEX6O9YBox+kb7zg/LQszXMKn4MrLr/C+EKeJ6eR2vvkhvvnIAA/y89RyA8JCTGC1ffff4/bbrvNvE6fy3aBq9gQXgcFKm7Xs2dPk5XIlbHsNVx6yaW48447zRRS+nNes72H3uIMr5/3mfeE02Efe+yx9O+Cvp+C3J+tW5vvwQp4QuQkmRVn+GzSv1GgpLBIY9+Lzyfhc8vfPgVKvsft3FkzJCNxhj6GzyxFXg4a2WNE7o00mdHcr7d/d8P3KGjyfOgb+azbc+S+2G873X54ffR39nO8Vr5m/Rjfs/vlPtnm8Jy9M8Hd8J7wffoPfp73w33/7H54LF9tSqAhcUYIIbIZNkKnE2fYADKQoaBgxQyKARQAGERxVJONDjuyrJPCoIrv2f2xWBw7wswYIQyg/u///i+9sabQwQyRUaNGmQ45O7GsWcPimHYf3JY1Xtio2Y4wO+R169Y17zPQYQf8zz//xOrVq835UFAZNnw43n3vPRMkUJxhQ8iReV4bO9FukYT2/vvvpzeiNHYc2LCzIeUo5/9u/58JFFgTZoQT8HHaEo/DbTmqzJo47v2xE9KpUydz3RYGhG5RiNfAIMSeM0e0Wc/nqSefwjNPP+P5VBoZiTOcpvX111+bDg9FK36n/B7c29x5553/mCYlhD/A55md7LZt2xohgT7BLfLS+G/6EgqgFD1aNG9hnhc3mRVnWLCSzzHFXAqyFFztKkjW6Ad5DhSI7q95v8l4YIfbYs+ZfonZERRH3YUx6ZO4DwbgPA6DfHbMGcyfTpihcRsKAvRXhOIOgxz3eXL6JP2SN/QBrEVFoZvnxetz30t7bfSZL730UnrWBgMRTlG4seyN5jtwf47nw2PzcxTKPvzwQ/MZN7wfDPB4Xpz2yXvrLYDz2JzCxXPjtE62H96iBP0q64JRtLbnz2O775v9PfB9imL0q95BE+8Z/SvFbn6GQgj9JH8TFLF5Lnyd10oRjUErob+nkM3fIrfjddhtaTwPXhdfZ/YTa4cxECPe4gwHITi1lEKXFc3d95T74e/j7bffzpHMBSG8yaw4QwH266++xs0332x8BY01ZtjHIhRp2K+i4Mj3mMXL6djMSLRkJM4w642CJAXLF1980RyDwvOtt9yKN9980/hJ2wf1hr6X/SU+d5yyTn9z2623mX4Qz4OZwlUqVzHPFM+P2/qC2Tsc4LPXRp/JbEQKKuxrsT9In2GvjYN87GNmtKIeoeDCPiz7YI0aNcIjDz+Cm286ef8oTnM/FJWZ/RfoGXMSZ4QQIpvJjDjDDnv79u1Nw2K3YSNKgYKNK8USwo4xRzDYYLLmjN2WHVGKL0zxJxRpWKyXHWK+z84ts1LYuaUQQmO6PVPB7T7YOWcQ5IbZN2yU+T47uVdfdbXpoPN8CYWYg4cOmY4ExSU7KmrJympNvDY22OEzwk0wwcaZozLsnNiRDwZR7FC498eGmPfJTevWrU/Z5umnnzYj3IT7YmPNc6VIs3DBQvO6xZc4w2lmzGqiOMbvgufEDhFH693bMROAdW6E8Dc4GslMCgbD3tlnvuzcc841QmnzX5obwcQ+g5kVZ7iN9T+nM/ovBs8s+M1pLBYKt8OGDTPCAP2Tr8+6jdMx+VzzGaY44RYafBn9cLl7yqVnhNAnUgx3b+P2HRb6V2a2lC5dOl0EyMh4DPoPKzqNGDHCZNS4hYiM7I033jCfsVBg4dQfFoinqHK6fVBsochD4dw7+4fX5K7Hczrjb4bZTwwurZhF+HvgPeL3x+34nTNw4//d50eBh2I27x2vg8I/fzfc7+nuIdtCto+2vfQWZ6w4x2O4X/c2ikBfffWVpp6KHOd04gz7hRS+OYjGbDk+K/RX9FsUJ6woTiGCv1mbBc1nmr9jt3jhS5yh0MFMNQ7AUdh2+wv+LXJdEdPPoTBEgdVm6hD6KopGrHtIkYfHpvhKkdP6VD6zfO6YEUdxhX1HCjHesF2gaGrPi4tS/PLLL0aw4cAdBWTr23ltfIYpIjHbktMsvWH/lwOUFF84GEax6PLLLjftlT2G3Q/vK9s73s9A1jYkzgghRDaTGXGGDS3Tuu3oI40NHkdn2Ti7MYKI07n84IMP0gvTssHklAGufEQ4KkpRxQZHTPvmak08HkUQppVS9KGoYY9HY0fBDTsSDATs+2xEOYLDFHKOJvP8/i1NPCvijBt2TFhvgKPvDCgZCLGjQWOg4d4fOw7eohIzadwddXZUeH/ZqWdwQ3GJ98AXvsQZfpbCjBveR+6LgYgdueZItr8vFS4KHhQU2dlmMG59Bn0Ng212kiko0jididvY7BT6qccfezTP5fsAAB3ASURBVNxktNiMicyKM+wQ89mg8X1OT+FzymeYfodTlChaWKHICjQUhK3Po1jL58nWoeK5059wRJT74Dmz+DjFAU4NYjYcxRn6v99a/WaOxePb8+RzSl/AjBS+x4CmZ4+e6T4sM+IMt+3Tpw+qVql6ynYMgOgnrJ/iKnv8LGuCMavDCuz0ZQxo7OfYLnD02N4X+mAK6xR6ec/c0AcxsKGvt0ES988pTJxaxHPnveGKdO7r5v2jT2TWjYWBDzNZGBwxgHn1tdfMd8JRe55L48aNTRvibpN43vT9bhHeW5zJyNziDANXfndu8Y7fLc+D58/r4PUwQONrdzhBGO85fw/EW5yhMSDjb4Dnwt8ZjffBeyodf4sU/63YKERO8G/ijM0IbNOmjXl+7fv0u/Xfrm9qJNlsD/7lc8Dn1G7H52bjxo3mfeJLnOE29K//JmrTv3OxBH7WLViyn8hnzO2nTmf0V3xu6Q/csI6gu+/LvijPyz0Q6csoQNEHee+PfU76Bl+f8WW8Rg5Ocqql7W8HGhJnhBAim8mMOMPijRxF4EgE3+dfdiL/DXbyGWjYfdK4T8KREKaW21oG7DgzQGCmB0eiKeJQrHEX+mUn3DsDxXai2VDa7Wjs7HP0l40k98fztynnbrIizrCzzKCM2SwcAeeoMUfM2ei7pzJ4my9xhsUsGWS6R3qYHs/6B+wgcf8cuaUo5i1++RJnmIrrC9bJYH0IjnZxO95DBmhC+BMUO7kCmxUs+Tzx2ae/YMeeggONHWEuC8/A3j5zFB2YtWCDhcyKMwz+OdWS/oPiBrPrrDjAzD1On2Tn27tgOYNwGyhwihKzaTjqy/fYoedUHIoDHOnlOTO9n0IxRRo+095ZEe7skNOt1pQZcYbH+/CDD3HhBSfrTXH0lj7CvV+eO+vkcJojsxatGEz/594/BRg74kwBjG0C6/38+MOP5jtzQ9/EKQ32s/TL9H1czcVm5jDbkNOFON3AfRyKcHaqBOH3yMxJikFciY4C3P6oqPQRdGYtcT/uejZsR+iXOaXAwv14izP0ufS99Le8//x9cBtmAPD3xoDN/b3QOLreq1ev9O+PYhZFNp4b2xn3lDdf4gyF8bffetvcc/7OmN3DabxPOce1bQCNNdWYfSlxRuQk/ybOcEoffRWzUmyfj76ZQiQz3OzvnJypOEPj757T/LjCJKc3MoumWtVqph6XzVajn7/5lluwaPFiJHpEak5RYh+peLG0+nxsA3hu/DwFXYq27E969z8pvvKZc+MtzlijL+aUUvpjnhv7XN5iEH0d+5Bu2OeiD6XoRL/LQcz7Hd9BH8PzorFt8+6zUgCnKBuISJwRQohsJjPiDOuYuBsSpmNyFPPf4KiLdyFIK86wY81VMzgq4u6YZmQcdeS0KHZaveG8ZWarUHhgQ+7eH//Nhp7zlzm3144OW7IizrATwuCBoo97tPZ05kucYQef13LTjTeZEVneb+/PscNBgYojMQwWbWf9bMQZGv8vhD/BOf4MDFiLg79RBtJ8ptkJ9zYKDOyA22eQHWYG+nYqS2bFGcJnisE+pw1RvKUg4y7cyNorXIbfvS8KQTaln9vaKTx8j+fNjjzFCFsby2b0ZER2izMUneij3NswePKV0u8LChTuaTy8Hqbp02fRb/N6MhIOmDXjDsAYLFFod39/1hhc2e1ozCJhVpI39H28j/x+vIt+0tztFrOcmDlJn2nxJc4wcGLbw8EA3lNeFwcMaBTU6Hfd18F2hUKRd/uREd7iDP07p2B4xy88/x49e55yv+nb2R5LnBE5SUbiDAVPCo30ITZrkH6ZfpAiM58VN2cqzvA3z+343NN/8fmmD2e2L58Bd5+FA1ddHV9sM+Lsdg/c/wDeevMtU7Nm4aJFRvRkf5awr0Zx3e6DxgFG7yXtfYkz9A/cllPkKXZTrKKo6s7SplHc5SCkGz7TfXr3MaIMheUBAwditeOP3PeNBe9ZY8e9L/otTikNRCTOCCFENpMX4gw7ngyI2CDZDkBGRoGFI9JsKN3p6hZ2pjlSyrR4jsCwIff+/CUXX2JGOfr16+f5VBpZEWc4SsoGlSM97s706cyXOMN7zs4I04M5vcCd4m+NI7vMLHrpxZdMB8EGeRJnRH6Do7EUX202DJ8vPsd87r2NI44czbXP4NmIMwy2GcizCDELeT/4wINGMLXHsoKve19ucYbTWNgBt9OaeE581liTgBk09DfuLA5fZLc4w2DDXUOBxutjgJQZvIMoBma8HhYN7tq1q+mD0+f6glN+3L6Rn6Vw5f7+rLnFElpG4gx9Hwt6MrPmueeeM1MA3Ptxfz+ZFWcozHDaLIMuKzbZWmf8N32y+zqYQcC2IrOCibc4w/vH7CRvoY7H47LkHHyw2zIo5PQ3iTMiJ8lInKF4weeYz64d6GLficIBs3i9f5dnKs7w3xQs2a/iPtgnorFfyHPg4JTdlufCZ9Jm1nE7+iAK4MzEo/BhV1iyUHSnP7H7oDHLmdmSbnyJM3ZlT54Ln1Hul76Ci1S4t2Nmjvf+uD0zi/ZF7jOfYRvDc3HfN567tx9n35VTmwIRiTNCCJHNsOE5nTjDkW2m99v5wWcyreniiy42DR7hKCzrtbCTzGOx48xtGXjZLBK+xgaLQQ6nMnCKT0Z1WPg6AyZm47CBY+fCPSXK7u+FF14w12Q7yZkVZ7h/rsTEDoXtSDNwYyrtL06nY/CQISZAorEwr3t/vsQZwkacnQrWOOCIFIM+TjlisGnvAQMEptZyhNdOy5I4I/Ib7EQziHcHxJk1Zp7RF7EjTDIrznA7jrhSyOAzxuCCqfvuQNmXucUZBisMrlmDxWbyMKChsMr9UUjgsfn804e6pwNYslucod/1FsU5jdJ7emRGMLWetX3orwv9Jy04owBC38f9UkSjMM8RdneNGN5PZii6j5sV434HDBjg2VuacMbA6bXXXjP3kQIYhfF/q1GRWXGGhTr5XfgSQHiPeUz3fjlVytdy5RnhLc4w0PQesbfQR7t/c2wHOeIvcUbkJL7EGfZn+PywkLh9zWaQMGvNF2cqzvCZYPawLXZuoZDBvhbrjdlt6U+ZycNBQm/Yf+J+6PMplHOaqXv6kN0HjYNgnILoxpc4Q/9n+74W9tfYv6QvsoIwpy1lNEjJ62AGEn0BM/FYg9GeF80u4W+N95lTJAMRiTNCCJHNZEac4egGR0/cWS4smsZR4SQvwYSdSqb7cw6tLe7JgIWF5caOSRsZ5f6efurp9BoTFBuYEs/Ah404Cz5yRSOOPLNBpjDBxjEzMGBgjRnWB2Bg5D5njoByxNQGKpkVZ3h8CkTu7di5YA0cb9GI6bbu7TISZ9zw87xnTHfl9bvr2LBgJOs+2BWoJM6I/AbrQrl/z1kxipkUNbOSOcMRV2aBeHfeM2NucYa+jr6EzySL+LKD7S0e8DlmvREKF5xyZEVWS3aLM/Q19DnubehXMguDJa5I1+jTRqamlvXRbqNQwiAoNCTU3HfeB/pcZtd4b5tZY8DizpxhbQhmymRlCmlmxZm77rorQ6Gf957X5t4v6wVRXMssZyPOMOBjlpDEGZGT+BJnSl5f8h+1UFi7hQNpGXGm4gz7Ypxq6S0asz/KqUGcumq3ZX+Uq39aP8Zt2M/jefEaKOxagd0ObPmyzIoz3ttYOF2V/tpdh4fZRm448Mc+IbPfKOpyOhj7c3bqa0YmcUYIIUQ6mRFn2MFt1KjRKY0rA45WrX4zIxe2geVowd7ISFM00y0gsPPJhoojCYSN8qWXnFyilA0xRyWyClPe2WCy40xxw50ey/oBLHbpLuLGUQ+OgNraAb7EGYpKHCVi55iZLdynqQ3Qo8cp27FzwUCN++LxuC0bZQZ97u28xRmmtHJVE4o47CDZ5bgJ7yOFK3aIrKjE0WIGKXZKl8QZkd9gIM4Or02jZxo7M/XcI40ZGZ9XirjWB2VGnKGv4TPl3oZTNSlGsGik3Tcz97w71W5xxkIfQT/E91584UVUczrk3J/7uaNx6hQzbdxktzhDwdi7iHFWMmcIt6Xw3rNnT5NFwlFs7tMGJbQLzr/AjGbTn1I4ZzvAQMV9XAoNHI13f18ZGUfn6Rfpd+kPWXPIFoxn+0Ghn/6b98f9Obd4kx3iDP2vd22J3MyckTgjcgNf4gyztmj0v/Y1ih5c2S7ak5noTXaLMxZOebLbeosz7DPR57F4tnvw7XSW3eIMje2FG/ob1tPiffw3ocjbJM4IIYRIJzPiDEd7ObrNDroVVNihvPqqq40AsthptChgsGPLBub2227H+eedrB/BBpQre1BMIcyG4QizDcYoNvB97sNtzBbhFCgen2no3nP2KQJxtJa1YCiecCUlNo4MYpgay/RUihv2PBhscRt2KAiDQnf6LI2dfxaxZADG5bLZieG58DVesz1nUw/GOTanAVAIYv0YBkZsZN378xZneE1Mc2Wnh9OvOJeb943HYIDD0SB+F7Z2Do/DAIniE5E4I/IbXP2Ho4s2SGVHn89GZrPl3GRGnKHoQCHGvQ3F52nTpp2Svs90edYfcG/nS5xxQ98S7vgNFtZ1p8DTKBTTT7nJbnGGUyCZ1ejexha2PBMoOnOZcy5RzSKXvB7rA9ke0JdR6GBbwSmo9j0aRQ760KxAH8/MJrdozvtCPx3stEk7ve49AzS7XXaIM/TPFIbc18F2g346s4KJxBnh7/gSZyiuUmhh38T9OkVYZv2xr+hNTogzFGfdWXhucYbPBf0R/YEVSfj88N8U0nketh6Vt7Ce0+IMz40Z1vT79n2eO/3SNU4/zl0ryzsjUeKMEEKIdDIjznAbpruzZosVO2gUPK5wOr0MOtjgMCWW77uXiGZDzQ4zhQcbbK1atcpkh1gBgh1+joC6Gy8aaxxQmOCIcx/nHDe4GnzCosPsaLPzzs/zPNg40yhqsFG0YhLPg+fPTrnt+DLjhkGZvR6au4glpxSxkCM7+Bw55Wg4r43bcb88rj0mt+Ux7PvWvMUZdlp4TN5jNtDssPC+8Xj8y2O7AyDOTWaDb6dtSJwR+Q120rmyjxUy2NlmNh2zxXwFBP9GZsSZZs2a/SO7hAIHs9rcxzsTcYa+hfthDRyu9uT2q7wu+iw32S3OMBvQvU8agzAGFmcCr4c+k6IVAzQGbnbqFqc3sZYCr5e+vfG3jU2tGntcBkP0XVmBwR6zi9wBDn0rvzNmJnoLdtktznD/X3351SkB2FX/vcoMHtiMy9MhcUb4OxmJM/zt/vbbb6e8zqw1LkzgXg3Jkt3iDJ8/TpF0L8nvFmfoa+jv3IN79A8sKD7Q8df0EXZwj/7b7oOW0+IMBxA5Jd/dB2T/r6HjI8eNH59+XjRfK0lJnBFCCGHIjDhDuB2nA7z++uvp6eanMwoObPA5Is0RWAvTUiky3HbrbeZYvj5LYyPHhpcNP4s4ckTTvdwgR6G9hQpfduEFF5oOuvdqIMzKYfBAkciKON7GkWEGRRxR5Tzisjf8e7oqG253zRhvcYYBJ//v/TlfxtRY1sBh1ozNGpI4I/IbnELD58y90hp/+19//TVmz5mTLkwSjqoysKDY0rRpU1MAl1khNmjIjDjDNH36E/c2LOTN59xmbjCrjgFJsaIngw6aW5yxqzUxe5BTh9z9U/o4riDHIMT9eR7bjVtIob9jMU4KLAyEaLw39toyI84wC8+7oC33yYDDLfrQp9AvU3ymGMGgh+fcvVt383/6GQY6Nnhi9iL9J4UGO+2B/v29994znyUM7NzXy+1Yv4VBEv2eFRy4Pf8/02lPWJT5g4YfYMKECenv8Rrc2T8UsSnWzZ492wgkFL6Yfck6ZZxea7fLDnGGsF1xH5/+nnUtWMeMbQbhefA82X7wt8uldvl9EYkzwt/JSJzh75jZwJz2abM72DfiimP0XfQRbs5UnKF/Z11B7xpcfP7Z93Q/fxRiOH2V/ou+2XuKOfuu9Mv0x27xlmKye7ucFmfoa7wH++i3Bg0enF6w3sJ2y72dxBkhhBDpsOM/0jW9hw0xO7mcXuNdoZ8NJ6cLcRSTAQ9FCDbgtnPJTiwzZzi6ynoA7DxzezbgNsAg7JgzTb50qdKndExPZ8xSYfFPikYMoljDhgEapyiwsbeCCI3/ZkeX77HzMOjvQf/oWHAf7GB/1ugzk0ZP0em8c09mxrBDwg45OwTszDMIbNG8hUnzZUPvPh6PxQ78e04ngvfHdkR4j3iOFo6uMPDhCi/stPOYdj82G4erWLHR5ygMR5fcMIhhloE9Lr8rBmy+YIYSgyNuY7flVAMh/AmKLxQKmClnszLYAS7rPDv8vVLM5LNA47NFQeCJJ54wz2CtJ2qZTrsVLzMjzvjKiGFxYBb15dRErsDBZ8y9epw1tzjDY1F8ZbFzHoNZJPY8Oa2JzzB9lv0s/SKXY3VD32R9BUeCKWjUrVvXXDPtu+++M/6TZEacYYYjBRf6Q/d29DX0nfb8uDQtj8PXOV2JfolCUIP6DUxGDEeumbHIpWK5Pc+FUw3or+w94XVzmW5bM4tTRlk8136HNN5D+kUGgjx37ov75P9fdPZHv8vpscxMIQyuGMjw+FYE4vEoBHFggIETRTvWpKB/ttvQskucYbvCYNBuT2P2AOvncLodr4Pnwe+OGaAMrDh1zBZtlzgj/J2MxJnp06cbAXLo0KHmd2v7JhTOKWJwyqZ7haUzFWe4DZ8nTjFlVjX3w/3aemDuAUAem/6Bfpd9MX7Gvkej0M7+JP0G+5nst1LI5TPq3i4vxBm2MxRwOTjJc2PWDPtw3sXTJc4IIYRIh51AdmYZlFBQoWjATjBHJt3ZLm7YwHCkmJ95++23TWPKz1IIYIeewRGXWrWdVTcMAvgepxXYhp+NNrNBbJFHGgUQNmyc1uPu7LMhZiDH/XBUl51bNtY8FzZ49vMM6tiJ53ucvuTuULjhPtiR4BQEdoo59Ymf531gIMEG2Y4Ms3FlB8GM2n/fFC+/9HL68XgsCloMFNnZYP0Fvs6Az3u1A4pLHNVhEMVgxp43gyXee3ZkmCHEYMyb1atXm6kR9rhcBYYdKV9QBGMNCgYy3JbBGa9TCH+DAQFFEQoY7oD7dMZMMK7AlhVxhqIlA5PTZQBSFOC5uP2PW5zh80nR4HQCM0VXBve8Pu/pRb7q37iNQq3NHMqMOENY/4r+hwGQu3aKL+O50afSn9JveWfdZGQU4bkt6z9Y4Z0+lsJztWrVzT073bGt8R4zK9ENs1Ho+093bynI2O8nu8QZ3m8GVBQLM3MN/A0wC0DijAgU/k2coUBKgYN9E3dmGp+zzz//wkw7shkqZyrO0OhfKYxQrO3fv7/JmKHwblf5pLGPSKGZPo0+isb6hxzEss8mp7RTzOVzx34TF2VglrX31NWcFmcoDtFvudsv3hf20UJCQsy5UcxmX4w+w25DkzgjhBAiz2CnwDvAYIDlHWCw0WcQxewbTm2y27KBZYBk08uFEIGPna5EAYNiATv4DAYoHthnn51x/p+vMxCnQMCAgiKkFQgYCHAUtXChk5+j0OvtX+zoJY/DAMB29PmX04u4f2bFcOolM0nsvrgSB49HKNIwK4T+iR1y7ywb/p9BBLNnGDxwNNcKvRYKIhS0GZBYsZpmz4Oddisss/B481+ap58rjR39cePGmfct9J18jefGgIjn4C1y8NwYZFCgYvYRP0PRmCO/PBd7Pe77wn3wM3yfggcDG28oUPRzAq277rwr/djuGgw0fod8je9xX6wv470viir8LZQoXsIc0/074Hnws/z+uVStDSD5nTGjitmQFt4zit52VSdeB+/pv4kzhL8jCkYMrpgd6uu3yO+Lx+TvlYGlzTTlNGH3b4Hvs83yBcV87tveZ9Y1Y1aTxBmRk/ybOENs7RdOy7HPL3+jl116mZmKaKfpnIk4w+eX/oXPsP3d+zI+b/S93L97oI+ZbZz2RL/wb5/nezx3u01OizOEAgsFdXf748t4D9w+QuKMEEKIPINZLN6dAgYYDFzcUHxhdgkzT9gJt9tyZJ3TEuz8fiFE4MNglNkv7PRzmXlOBWSxV055sZ1YdrQpJnAKJkd1md3AIMNdZ4B+g3VTGFDbTvkrr7zyj6X6mTHHzjYz7ji1xtZXYMDATAf6Hfqf9n+1P2XlINY7YGo9YWDCEV0Wd2TGBmu72O1oHPFlwMOUfAoGHPX1DropSi1ctMiI0MygsSIKg5dy95QzWUC27guD/86dOpsAyV4bM+28l3nmMfgZZtpwWiZFKGZkuM+No8rMdGRGB4Mwilu8jwx8KG7ZaWN2FJj3ngEYgzXW52HRXl8FcrkPikn8XihkMbuGGSjuY9OfM7ji98Lio8zS9K49wd8ChStmFjEzk0V5zz0n7XdAMYaj0X1DQsxKX7wOvk6hh5mPXJLbwqCOwZYdqbYCjp2KlRG8Dp4Tp5VySpf5LbpWf7n0kktNUMcsF7ZHdtoC4Qg52yn7HXH6BkfOfcEsH/5OKNBwWwpVnCIlcUbkJKcTZwifEdaZ4fRFuw1/03xuOV2dnIk4w+eX00Z5POt3fRlFbz7n9GPu55XPJTO3b73l1nThyJdx3xRGreidG+IMxWD61Msvu/wUMdfbKNi7p55KnBFCCJFnMBBgkdtTGqqiRU3ARZHGGjvQDFbcKyRx7jGDIDb8pxv5FEIEJpxWwvonDNonTZxkCtEy84V/OSWSr1PsoEjinYnCTjyDgQnjJ5gOPD/HTrV38E8oLrDoLYVhZtJwWxbE5KogDJopAHNffJ/v0dj5dk9zpBBBf0SxgtMt7XY0BjrMjGCmDT+TUcDNwH6LE4BQZLHnzMwXCj/s89qgnz6PGSXua6PY7evaCAUOFv7l1BkGU97nxs+yjhYDLAvPhcegSMPr4Xlwe957ilWcxsT3M5rySnid/B6YWcTr5/10H3vixIlGLON73BdFK3uNbigwcQotvz9+xl4zr4XtCDN9KObxfb7O75Dnx/1ZeN8ZiFLE4Ta24Kmv43nDbfgb4fdrfovOb89eA/fD3wV/hyxE6oaCEAVGe778Xu1UOG94H/ld2PvMpcd5T4TISeiTmjVthosuPCk0sGYWn3s3/H1TnHQPkHG6oa0RxWeUwjLrP/E9CiH8t3tKNv00hQfWn+I2zCxhTS4+t3+2bm0EX5udSPHHZPPVqmWEW4qj9CVu30m/RqGa4jynbzJLz30dPL/X33jDTBvnNG47fZWCKaequ+EzzZWe7Gc5/ZHitC+YyU1higIvt+U9adCggefdNKy/6dC+gxGKy5Quky4OsR/L6fsUdP9q395MhbfHZc0zTu0KRCTOCCFEgMPONucGcyTz30Y9vI3CzAMPPGAaWwYTGlkUQgghhMgaFDAjwiNMFhwFCxoFR/f0IUJBmMIza6XY7VhficIxYYYZhUtOAeR7XIWIfTQ77Ymwv7Zm7dr0fXAVO4qQFD+3bd9ujsvX+B6FHmaOUdikQO8tvlvY/6NAQ+Gzb3BftGp58jrYv+T+KRBRXLfHpaDE191QbGfNPvtZXpt3JqKFIixrl9l7xtp/PHdveM4UYykIs/4N7wm3ZxbkgAEDTOH07c55UQizx+3Tp48RfwIRiTNCCBHgcBSEo9KsJ1CzZk2zmhHTxW36vDUKN0yP5YgKU705CsEUd44ECyGEEEIIIfIOiTNCCJFP4KgJ07k5mvDiiy+iQoUKJpvGGlNTWUSTtSWY7sn0eyGEEEIIIUTeI3FGCCHyEUz/ZH0JFvFk/QBOebLG9FqmkbKeAuf9u4t+CiGEEEIIIfIOiTNCCCGEEEIIIYQQeYjEGSGEEEIIIYQQQog8ROKMEEIIIYQQQgghRB4icUYIIYQQQgghhBAiD5E4I4QQQgghhBBCCJGHSJwRQgghhBBCCCGEyEMkzgghhBBCCCGEEELkIRJnhBBCCCGEEEIIIfIQiTNCCCGEEEIIIYQQeYjEGSGEEEIIIYQQQog8ROKMEEIIIYQQQgghRB4icUYIIYQQQgghhBAiD5E4I4QQQgghhBBCCJGHSJwRQgghhBBCCCGEyEMkzgghhBBCCCGEEELkIRJnhBBCCCGEEEIIIfIQiTNCCCGEEEIIIYQQeYjEGSGEEEIIIYQQQog8ROKMEEIIIYQQQgghRB4icUYIIYQQQgghhBAiD5E4I4QQQgghhBBCCJGHSJwRQgghhBBCCCGEyDOA/wfjvnzVoWWmlAAAAABJRU5ErkJggg==;" vertex="1" parent="1">
          <mxGeometry x="630" y="454.61" width="377" height="131.47" as="geometry" />
        </mxCell>
        <mxCell id="Y1mZi5_KREuWDVKwzotL-98" value="" style="shape=image;verticalLabelPosition=bottom;labelBackgroundColor=default;verticalAlign=top;aspect=fixed;imageAspect=0;image=data:image/png,iVBORw0KGgoAAAANSUhEUgAAAT4AAACfCAMAAABX0UX9AAAAzFBMVEX/////ZgD+/v2st7H+aAT/ZAD+ZACptK7/dCr/8eb+XQD/kVH+YQD/2sT/w6329/a1v7n/+vf/6dj/iET/kF3/6+L/fi3/9e//eijV29fK0c3/5tr/7d//WADT2NXBycT+om3w8vD/ciTl6Ob/hDz+nGb+uJP+1Lv+vZn/tYv+qnr+nmz+4M7+bwD/yKz/z7T+bRX+mFz+gUb+pHX+eDX/lmT/p37/sIT+i0r/xKT+pnP+dBL+xp/+i1H/28v+rov+iT3+up7+tZj+exwq1hU3AAAMeElEQVR4nO2bC1faTBPHk5DEsqyFSLmKclXkjloV6qu9ff/v9MxsssluSIKIYt92/uf0FDIkhJ+zO5fdGAaJRCKRSCQSiUQikUgkEolEIpFIJBKJRCKRSCQSiUT6Z+TVQm3YrMhmfcCt/R9o+FSXGtzHAJ7cVaWtejf9mPv7szVn3AnF6p5qO7VZZOPs9KPu8Q/WDTcVnS1U2zem2tj9R93jn6v8J0dD9KAayxpa/sVLu8o/q2x8DuHLFuHbS4RvLxG+vUT49hLh20txfCPVSPi2ifDtJcK3lwjfXiJ8e4nw7SXCt5cI314ifHuJ8O0lwreXCN9eInx7ifDtJcK3lwjfXorju1SN/yq+Yr8B6he3f/J98HnjQuH64uIa/n0bzU/zL9ofc3pxnbIPxLtcjVO++7iwSjtLqNhst9vnaSCK5+1ms6FbrX47lzsC5XLN7rZ7fh98p2euK/d2cMYeJ8cvOGnMWCfZUrG5m3wFb8BdfpNx0QaCOCqlWJvC2lYPddsIztdRrrnlDx/Dx28Vm6XbnMHmDqwUHTPbtv2zbHzlsOr2DTIdx7lItlTgKsn4ajO4eha+c8HiqJ9s9UGVFEYNAe/I9z54Ucp2wBg+d7mwPKmxZgJ+Iy9V+lUFvk+o3tJ2OLxxl8PM+zDeF18z0djfwNcQ8HLt80ajWYIXwC9zBozhM11WHQhVqzNmxsRm1TTdVtSrAj5+b4G8Wut4fjsDmqb9nHUfoA5/DT7XdrbjyyVDaMaNPk85VcI4Rn5Z4zeOD3xMyo3TU2wbYl/VkY34rvCF+GqrNgJ65mzLPPIa7zN+Ps5mc/WbY5cI8CWO3mIJ0AHCEF9XwOwali/DQmdM8Vxfm/heKa5ubfPxWVKGMYfxy9YZ92G8Ep91MlVn1Z/sk24HfKVmCoPuERxX8Qlv7Eb3bfn0M6a/N8PHPitXjeGD+7hitlnODj2vwqfrmZlf9SP4+7ux8KDa+gq+LrLqq7dtGTB+9cis61D4vBkgyI6+b4DvKhFfsS2wbAjHrqXga6I3WpqMPo789OhxIHyWcc9tlh183wIfT8QHU9jR+caHwSnBsSJ8OBUedQ2dn4Xu10j9wvfDd6njm3Obj1JvA5WBz34hvnmy9xVx9G58GKH2FXwYdktxeuJoOzXoHQzfwrT5OPO3vw2+gX5E4LPaSSMQ05Kigq8tfDSGzypmBo+/C9+aJ+ITjhYfgUUxdhV8glOcnoUzZFrRckB8a46HQtVO5w/jb+OraRSNZdrsTccXnXVFGTASn1VZP4xHQy2AezVPvqjVrh27V9Ge4vHxoQvF42ffRxriw7hbKm7iEwHlg/EZ1sRRQkf+e50xjmLVqxi+6YpxhzN+ETVSAnytiYsnsdl9VCNa148FgdPrVKuPLlQ3j1gy1esPKj50ofgIxLFaVPD5k9wmPn9K/GB8NfhlM1nYzR0OVQgHgvAfK9RUfGvm2q4Dn3acMNJUoGg5NobcsaHuwTMfQ7Qn8M3ishXuBv0JIedRw3d+FB+BouQwFHznwssS8GEp8tH4Hrjt3gVOM8cSzqw+zOednmPbfKLgm8Mvt1edgg0GJh0T8U2P4RynftGpuqbtVFsSH5wv8NUe8Ydgc0LcDi/79oaPr5+LZ7945FzF1xSDedP9uqWMzO8g+AxjAb/rLBi7eYDhDPxQYD0ApqCXB/g6J8xkt4gmf8vAMAzxLf+3NN2lqG6HM9eWdCJ8xnQ4PF6Z9nI9FMr79sD7LGSgpR9YoHUVfCLB6yfgC9LBj8NnWAskVgiMl9w2B3n50UvHdiYBPnP15LqXliGI37q2WbcCfLb9aJvVU98yrZs2W8TxoVLyPp+SPnplISfxYWmSji8t9O6Gz2FnUix2XgK+8DtuYVQ59YCYN4h+PL59coNeTIfDxMVuDTlbwueCPgTig7F8Kk0LZrtB6xvwORG+YSq+fix+duX7EJ9wsk16b4jP+TSXSYO1GGgPvG3iG0P2kG+dPK/LDNyNh/5WOeOsrLRXgcVZJcRXroXtIriIc2eF+KIq0DAKMHyfX4QvmPvE6FWbfhgouhv4NvOWN8TnLFvKmf5cnYrPXt7c3AyqPZtDFOXLcZisWZfXIzVzq53Z7FjiA7cM7xvd1K5JfGa9Es0GmIN/k/jcl+ATozeawbAO8Zswh8MXRkJfi2x8ylpH7ypvpMsNEkLEZ6vNtu88GOWID0qWyJLvmWbP2glfX2sbdMMW4MHwuVxvOJ0s1X50Aj4X5PMrZLWqZmaIj3dUfEMXDwT42FQ1wej1y7gT+Cu9CJ/eNsDD/U187zn3uaYOodVTT93EVy78+LH68ZsxiBu27riafiv4FiqjllwGAnzmzFN+kjGGz853wic6BOHoxQ5g8U/GF0Zea1GGaoGl86tG+GZTLdde2uanlo/PmVgq2QWuRW3iO87A11faBsUoi9bwvWfisiO+iJc3gdBrp05/s2Du+8YRloqvClnw1MfHf2qWU0hdrq2d8GHLXhYe/SgLjNLmLHxvkDa/Gp/hrWAWuzXiag3nP3/dl50I3406Qi2jHMxwOHgXGr4KOPTA8/HZL8MnewQBs1z0Mqo63rNoez0+Ywru91Vzv8rVCoamwzmH2BLh05tcECBE3ea3DDR8mMnsiC9q+llKBby95sXVjhR6B8JnQJllKsvkrdsZg6DsIj4nwud+0fFdQEEn8emzYn6m4Msr35uBrxgumqnT4ME6Lvvgu4JI+V2+sdYMKhbOq0+T779+3crsDvBdb+Bz0/FVd/Q+Iyw8mtEwjvX7EvA1spYqd0mbd8r7uLZX6xm8L2yjj7BL9XVUqXki87VT8V07cu5LGryrXfE1goAhW306vqxu8+Yy3Svw6VtPjblW9Gbja2GTRBo59viwGvN7KxJfh7tPOr4fMvLOTHOo44N6+MLawPfMzNguAxVfPyg1ujkFyOHWOlxTXa85NbVNMNn4vCcozU78l5CO8Acjqv/PQu8zb/Q7r5t+3pd/NPlnDd+QBZOBnrhk4xMteyPYebCJLzn0+k75FvhMZ/lwnPc1HfX0E7PxGTjD+Vt5pgymrVpU/rdYgO8B8r68mhvXZNVRq5qQJKv4Rtx2ZNXxYu8T+Uo/2F2wiS95nTdz6tux3+e+qt+HWssyAdv22vahtQwdc2ZrM1xU82JPsKoVbVjzTgN8Me/Tl7Q1fF0xjRW11t+WXQaZNcf7dptVtcIO5x2EUyWMimEt8D27+gJJ1HHBHR68oiDHjkvd2BmfHzMaWuN5yx4XPD9jh9+h8FmYqIkE7QvkwlFtZiy4DB0QXszfCiOcJP1+n8h71LWTufTL3fD5GQv2Diz1kLrDSq/bRKWXscXlcPiwQSwSH8yFZQUGM6FtSnwGLgVHtRmOd2wUiLuE+fLGC6ON99u0HdltjuHr6bvgdHxietN3+23s7+sb0S2Igi11kfeA+IxfMnaM/CXLgF4P+4EBPgin5koGFeMEch0uQ/3Atc15iG8EM8GTXOtQ8Z2y+G4OHZ+V29hrquIrCmvf8gEaVr90lLy17fD4sL/ekT+RPQivat1jO7UXrhxVwUMn4ubhxurwRi7OGUNczzwJNvti2n0WUNK7zZWZXLZLxieafjntiIrPL9COSo1+t1jsNsSHs4buAfGdLIO6A9svtjsYX34rL7GR9Vw1Jb5j8ESnMK1ZXv7qEdcpo7WVW/DM2VXes2pTrEUc2b/R8WEc4uOKBxfIJ+ITe7+1RETD5/PLBfuh/f8a581mu1QqJTrhwfBZX8HPar4RBqzp91qQ3O8Qn3F5BmTs1d2XRzA6XHlcqDbAWqV+Nymb2GO4lkt1+kqbMYcL8NmXyZfeKhEfTma6Q+n4DH+8qgqe8UjeJvQ++KZnm+3lMZNVyxp3YIjtKGwAhH7zs3Dv0NzGbS+Oi3tfnrRnHbwJB390HWDOo90vRst0VHxYuuCnXLnHpR97pAhLC5UnPlikJyb9du7oKM7wsPi8TrkQ7y7nOwN5bFpegve5y09X6I7rwSqKltNJD9wObIN57FEba1heuuizS+0htvFAe9zNWlfxfM6r/vtiqaRNXt12u60Nw27sA3CJbv+8jcNVV2LD+X3wbdXJ4vPnxTQxHa0dz8F2knLWz8+LVpJJ+fV4/nzbp95IH4TvbxHh20vWV74dzQvk8q2P/P2VmvM3EXv6Vx41j+n4ovAGunzxs74kEolEIpFIJBKJRCKRSCQSiUQikUgkEolEIpFIJBKJRCKRSCQSiUQikUgkEolEIpFIJBKJRCKR/jr9B3eqPy+hoQeOAAAAAElFTkSuQmCC;rotation=90;" vertex="1" parent="1">
          <mxGeometry x="887" width="120" height="60" as="geometry" />
        </mxCell>
        <mxCell id="Y1mZi5_KREuWDVKwzotL-99" value="" style="shape=image;verticalLabelPosition=bottom;labelBackgroundColor=default;verticalAlign=top;aspect=fixed;imageAspect=0;image=data:image/png,iVBORw0KGgoAAAANSUhEUgAAAUwAAACYCAMAAAC4aCDgAAAAkFBMVEX///8aGRkAAAAXFhYTEhKurq7k5OQ8Ozuenp7FxcWTk5MlJCQHBQVwcHB5eHgSERGoqKgyMjL4+Pjr6+ve3t7Nzc3y8vIMCwvY2Nizs7O5ubm/v7+rq6vLy8uQkJCEhIRJSUliYmJTUlJeXV0sKytCQUGJiYlzc3NramqAgIAgHx85OTkpKCgxMDBXV1dOTk4ym7ByAAAQcklEQVR4nO1d6XqqyhLVgigqigGVaBLjmKgxyfu/3QVBqqonkO1wvLJ+nG+fINAsuquqa6JWU2DodGf7+q45/3wdqY5XKIpBDwBCu16vW170r7/JrQd0v2gswbXqBB5YFZ3l0IawLsKCWXDrcd0h/BlIVMYIoXXrod0dRjtXyWU8Od9uPbg7w8jyNFxGgKdbD+++8C2LS8rm8Nbjuyf01PISV7p/6xHeD4YCl7ZnMxOp7s5vPcT7wcomxEXW+s9sHZns1UIvgwnlDWatw5oefFCz05vdeIx3g2+cmBbglieglie83HCAd4QBEC4H9Mgcj8DHrYZ3X2iDdv6tM+vTsm8zuHsDMgZb4VCD8DxQnlyBgxAmeTA3mRKC8S3Gdm/A2Rf+Sgdfs4MwvcHY7g5osUNbOhhkB92vG4zt7tAC00rGaVttggqAkKlwqyOZy+sP7f5AlrkjHRwhmd0bjO3ugDZ7uJEOEqY/bzC2u4NPTCPp4AeSWfnbi+An25pDXzjkQ+aKqzbnhYCzzxKt9q6Lh24zuHvDO65z75kdcfCIQp5WUIG41cNnEib/pC64KuBbDGQC1j1op0u99Uz+bHd0Jw+nv3WI0Fk6lVStMTUTz0FYb9vTOQCNZWjcHI1tnJt0ONsKAbxplf5Re+MBNS9jKPvLt+q00QbYa4i0FHxUccyZMWyucWb2QZEEAvB69dH/xzDiM0xiSLQ/Y8zV51hVgOPFxCb05BP8pjZvAR7evzRk+oaTo3JxNHV5XhWbtXhuquWmpfRwLI35NJVTZLRQLXW1QnGMXEZnvV99+P81jENxrQP0VKZOIHDphSE/sQoMR+jvia3uRlQ2lD+bU4kQWaXrzfybm5yKcNID4qW9Ttm0ejqLccByk9bJrt1/2pE/V0mICZ4STuxn7S++XEIaMUE/qGNEZZo+Hvp5ZPqUs6Hi1MPpyg3owyGXzBaJcwj+DzI3QS1uHwy5ZKKb0/sTj+0sHc+PiVwySaKXlE+MC11KAntI5JKZ2UCKuNDIMGtvh8Zw0nemt4gV5JGJ+keVMVPPmN4b7zJ+e0rwdmH/fNBfQII0xWLQfzrisneOkUcmbn9Uzra/owywQuNdVgD8GS+DoAtHn8PxRm/Zna8QcD0Xma7xLs3jRuuiZI6J//p4o6fj+K36Be+c4q34MleEfzN1bmlDcAdchUzmj7kBmf5LL0zJeNdExzBnwZOOFVZA1yCzxfwx1ybTf1pkIiaOjq2mqthPE9NpJOWBoTnXbBpdg0weFLwumYMvEBzENkBTztncGnI290i0WVdegUyyuY0kOBwdWdcgc7RRBRvrHuxF+4xuJwXHUrvwdvIKZGJCWh3cXn+cLqMrkKmM26bTc8ndaYQxoQiL1A3aK/P9Lk8mLbuhYZSLk+n/muIQLt02tqjbMmKTzE2qPPM4ujyZ+GZdFl29NJnBzsQl9Vo2FkJkw4JlynRrzQyRnKZIlycTFxAfy4XJbIChp0Q6noP09j8UIcwQ3Pl2uwR2kdxMhMuTmelJu8n+flkyG/qQOWfzDdQT2Ir4DIWko7yoxeXJzOIBIa9guiiZfliAy5jNpjmHhv04N+Ho8mRmWc9cZF6WzLykrYwgyrn5BajyaQSUJXP0/jbd9rbTt2He3P86N5mDifPR6304r3qjry0tXe/gUQkN0zCylkztZqCAK1NL5ksLIfqeG+3vw9jcw38XR1/+MDshNdReo3++/x5luLd8PxxMOdCS6ZM7T8RXNZkndz7cejdNrxXgGYfxCVxGm8j1h/PUny7F7RAha/da8/faZKMiXGrJHAIBnwLDBU/ADY/uu1l2QlIs6x/+jfowmR25O6AmuTMflP/JJ1dE0vzguJhwd94vZwzqTmZHtEQzKIGb3Mn/02gjZZ5XUTIHKJdtzmXwK79cC1YN+gwpX75yZHl78wUx8nkKhQOytggPl8Oi59hHxpvwWMJVhrL96UH3yPZUNXXdgu251GQG+PqEzdWTep14sao7C5ldXQuNQJM8CRuRTDYxbdkLJGS7WdAkPxn8iU/owqZgB1Mlmf4O21jwsWi7WMVbsHOQSYPUzJQaao1w+OVkMolpgcKBuWG/2Anx25dILLtJ5cuhe2mvcO8JJZlEq/E8OlMGIwTLfyeT7IR5dumrwR6Ez3dKJlPl6i4cf2TyWTvpsD/ZrhMJPPs4JfynIpNKLWaozg1c1r318jh3SpNJPDTA2kG8m+5ch21GToe32tJkB7F0d03jLT8ITs3TUpBJFgEXvFOz58BGH+qRTDcCDtuO/9c1kEkogxm9c5CzT8GJ1mF5lvaP5rGpj/V8jTpkMqnUYhpe6FQXHo0RWSMdyez2er1t88iD3dxG/9/7Sie7TCYxIUK+j39m8tLO7CDZyukQ+alug5CAvOPzdTGTyKRSi78ym5d8zceNaBn4jclGchUwY6TwDoiYEOGerTAmBW1YtYexeg2G045EZ4euH0PVLiuhLM2eAJHMMeGSR4/oE1nQI9aC3xY0LSOz6N7cr2cX8Sxmi7AEaXimKrH1I7zIDulaZOoaQZeZSuGXgkAmlVp8JLQW0XMF2y345gHIMmQ+ZyTYwtNRe0yqefjkbHZqMxIl0SensnzMcyWzcDKJ1BLrXsjy93ayEctCBGXIxI2cJWxfR/S55a3ImLHZqe3Jrw31EZgneL5KaUYmUZqwEH7YIXsi1bJokpVegswN4VIwDR2dRkxBNXNEJn2philHWkKerTKSkkmklrsWfvdCnkj5IqnpdjqZtAuEaPbhY2vaEM2Jr6dT2xUj8/nCZKLUCqWcHFQ/ui5VZIKcTKZjeFVE/WgCWlT+dWqrYuu3ftlljntFwTKJMcPMWp1PFp1jJ5K5IqahbBnirkgb0CJK6L+hgOo2alNPngGYuzTTXYqEIU8iM3Y4Zv+SGw0hU9rXGFAyu8Q00jc0ofvT85tGCJWCQU+Mvq/SoDSZ+FgKBZP5orR7Q5qR3mH2sN4cJ/u88zXkUZDpKiYA6fild0hlKqgsmcp6uk52VX3YGnc9wnZSWx1BreazJaoryFR5UYjg0l9rJniNEpxApnLHgnfW141MCJnULLV1Oegs6eVsJZFIZvaqVMF21BaW/lqbUDW8AmSi5lLIECRTb4Izf+YzdcGpY658g6rUP35jMGic6IPLyLSwDUAoz3sk01BvUJbMTgfZlEUMkqlv+D+kZDr5TK2pc1hOrQ7eNvXELdX5Gp9AKJpGb5uMTXniZ3s2U5BbDFskyDeN9siFYl0WmZksbMGmnbg3PYA5ua26YEC1/jAGGueTzgtbTtRoJ4aiOAlei8jMXTkFFL0fzNuVY6qo1vQy06Fk8spxW3oWMZ5rwYr8ZPgsBptCWBYsmaRk4gSxXGFy425Sr81R8p++nUTvr0RZJgINtXYbGragW98DV7zH02soebNtWB6twZ4qrB4WTHdhjg60j12hITepk9HuKl7/gUyaEStMg2ye6Vu3EUPn8Js5T8wAOGZ+1PzxWhkBCRPX3ugZFAfjSxRqTsxdcN84QYR3kbn5PdEFIj91Ga8R7uw9Ide5nb8oyHbmQKbYbsOKNEl36rR7M9AHjN1xLfC0yUbQ1NxbTyZ1KnCxuww1BzLQc0v4M5eo/njqIabua7uqL2hALUZfmmBxizxwTfmvFvytTN9c004iHZnEXrFtJmlweKHo6UyBxkApMmnzWubs8PUSIAUNQaSiwJjOTimi9Hnmdmf5nUvFGBBaDVxMUKGm1KosqFImbEEjJsw5sMDY0Ez5DDRQfpSrndwk7MON+rMTkl1zK/dFMn18PVxsEk+6SnbxsH4ZMonvgTe2pTE+VderLp2FRzKD/JT25AknoXoS266YzlkiDZvMMEYa3f3Jy220Z5n0pcik9hH9qa/z4Sf4YGRkGt+gTCiXtdhLImdlurDqTafdHUsKyM0dlpMQ0ANjs90OeSRbdOEOQzYPSpJJRQmNJLAYtyC5fCFlB82nkRgFFmBnyzaYS6UrX+k8Gi7oRUqUruCCZhFKVrUHv0SnN74EwVOSTFLxyXyqrOMteDRAKdWgUVt0Y2z56JEnGDL7km2annS6oBiZ1MahFvqevr4QntutQRA03p2ZtEzKkknsI5Yfw1wXkdH4NX5pBI2XcVfOfmWG/VhTlnJIb+UC0NFKMaIYDdsGHZlM4hOxyXdpmPEjS/rSZFL7iLqCm0z+WW56Z1eeefxx/a0i2TieCU2980FyqDgaLVKMTBLEZu8ipyeiJ2bBnU4mU38kZpiXBYdLQ5w7wYfUtxlgIYcje7gmpOgr+bSD+VsY6jRsC0+nAr9rYtP7E/MzS5BJlA37jIL4rVgO+MyoUCzE166bCaJIRswcVfwMg/Py7MOV6pr1uZpMmnJA5b0h29WSM4cTnFhUhe6BkG7gWqbM4SnztCsQfCSDsPYDja2I71B22OIeLCf7UFNtQfLymDg25LS3SjuH2fB1FdVDfQXPUigQUODfGp7ss4Yncso2ha4OCB373Isz1lVbtMp72uvqv3OxGVdbqCanJVdbKPBvrXiyDW3JVjw0h4s5v4OlTKcNTVUdUIKTayfnarGprgOCg064MJlFm0R1spRmwSAlRV+CPzgu7aABKRfS4g+sUKPrc579lUck+ryqDOGTO/OH99vcHIoUc5J0O9FdC29mJpMsc4UbOAuf5vSVaGQQt0p4pCHqt6D/i6MPv452WaC8Fv6Va9ERXl+4PDki6YtWb4e3/uunN/K110pxrsZ6Gvfjv6LRenIc50nXdOmCGMXt+Zz+6ynf2c0lkySmSUFQxygDHg+nNCOVXOrEK1k1I62d2CZXCBluyaHq00C1AmRSDyNPfqXJ/AXiQA+A/NbiZP4xM5GVelSfqYx2T5/P6byzN2ONg5fVAsNPkmIUODSoUX1ZseZHhJA6Qm3uUJd6ZW2A1WJWFz7HcNF+rfeAvrRtCtNeFALED1vZnhD61SZ7PgoCZTaMuk2EKi+c4tG/RatzNVnKQKPRXfvwi9zQPkGZiaXpHZOckN8j6v8aRve8MttFz+ajc5kTOFLGbXvqc+xHX+OsNFbJpkqhTBTRYQvq+nT6x4AQSw2l0LDa1PF7gi1lS67exwNLA7EAlu2+0+vw5qLqJOhgGvEXxk00rDh7a+VUH/uiVX8h9FNChjO6PdTWNL04m28vmqHrr/4pXtP/W1Av0Jrsx1lt2sN/z7gYiH8ynLEjZKOjK52vwIEeNSlHlTjVKjdQIez1+UE0O+zRTZ5C8MnElA6SdgDVhyQLABsJKMquSfH8w38ZugiGpsnnm5iuIAGVuaq3njF9o4IIQqYi1I1kVrZRAZBlLm+sMUtLW0BYgQBjjYp2JhMT0xVkmLIwSFGttllpBQJMxJKWMs0xr74KXQS03kRIa8PiiWt88fL/ASRBQ2g1T3t9VzZ7MWBHM/KBr4hkWtiXUyNV4QjaxawO30mK0fCLutrD37yLVEjB4mk2gPW9Al7l+egpGidAKPWsW7YQxYXKYi+OT21GQTJZDV3tKkiYGdmstM9p+DF9E+1cjYYfBf5KX+pZbSRPhqa/kVsFf8pA9SFpG34LfserAkcgNvII4acSl6URfHpxGzjLsuw4e2tZUflvGLxtl+uf70XXea+ysE7A/wBvCd2ISmDObQAAAABJRU5ErkJggg==;rotation=90;" vertex="1" parent="1">
          <mxGeometry x="868.92" y="170" width="160.16" height="73.33" as="geometry" />
        </mxCell>
        <mxCell id="Y1mZi5_KREuWDVKwzotL-100" value="" style="shape=image;verticalLabelPosition=bottom;labelBackgroundColor=default;verticalAlign=top;aspect=fixed;imageAspect=0;image=data:image/jpeg,/9j/4AAQSkZJRgABAQAAAQABAAD/2wCEAAkGBxMTEhUTExIVFRUWGBgYFRUVFxYZEhcaFxcXGBUVFxgYHSggGBolGxcVITEhJSkrLi4uFx8zODMtNygtLisBCgoKDg0OGxAQGy0mHyUxLi0tLS0tLS8tLS0tLS0rLS0tLS0tLS0tLS0vKy0tLS0tLS0tLS0tLS0tLS0tNS0tLf/AABEIAKABOgMBIgACEQEDEQH/xAAcAAACAgMBAQAAAAAAAAAAAAABAgADBQYHBAj/xABDEAABBAECAwcCBAQBCAsAAAABAAIDESESMQQTQQUGIlFhcaEHgRQykbEjQlLB0UNTYmNykrLwFSQlM2SCg6Kz4fH/xAAaAQEBAQEBAQEAAAAAAAAAAAAAAQIFAwYE/8QAJhEBAQACAgIBBAEFAAAAAAAAAAECEQMhEjFBBCIyUUITYXGB0f/aAAwDAQACEQMRAD8A7a94o5GyoiaQQSK91GxEGyNlbI8EUN0EnNjGc9EvD4u8e6EQ0mzhGXxbZpAJxZxnHRWROAABNJYnaRRwkewk2NkCuabODuvRI8UchASgCrVTYyDZGAgkIo2ce6ec2MZ9kZHhwobpYhpycIDBi7x7pJxZxn2TS+LbNIxuDRRwUDROAABNKgtN7HdM+Mk2NlaJRVWgMjgQaIVMIo2ce6jIyDZGArJHhwoboBObGM+ykGLvHuhENO+FJRq2ygWYWcZ9ldG4ACyEsbg0UcFVvjJNjYoF0G9juvRI4EGiEOaKq1UyMg2dkEhFHOPdPPmqz7IyODhQyUsQ074QGA0M490kws4z7JpRq2ymjeGijugaNwAFkLzhpvY7pnRkmwMFWmUVVoJK4EEA2q4BRzj3QYwg2dk8jtQoZKCT5qs+ykBoZx7oReHfFqSjVkZQLMLNjPsrmPFDISxvDRR3VboyTYG6BWtNjB3V8rgQQDajpQRVqpjCDZ2QGAUc4x1R4jNVn2RldqFDKEXh3xaBoDQzjPVWcweY/VUSjUbGUvJd5fsgsMwOM5wlbHpyeiPJrN7Z/RTmasVVoC52vA98oN8G/Xy9FNOjO/RT8/pX90Ec3Vke2UWyBuD0Q1aMb9VOVqzdWgBhJzjOUxmBxnKHPrFbYU5NZvZAGx6cn4TOdrwPlDmasVSmnRndBGnRv18lHM1ZHypWv0pTXoxugIlDcHol5J3x5o8rVm6tTndK9EBMwOM5QazTk/CnJrN7KczVjZAXHXgdPNBp0b9fJStGd7UrX6Ugjmasj5REobjyQ16cbqcrVm90A5J3x5pjKHYHVDn9K9FOVpzeyCNZpyfhRx17dPNTXqxspWj1tBGnRg9fJRzNWR8qVrztSnM043QETAYzhLyTvjzR5N5vdTndK9EBModgdUGt05PwpytObulNevG3VBHePbp5otdowfhD8nramnXnbogDo9WR8phMBjOMIczTirU5N5vfKACEjOMZTOkDsDqhzrxW+FOVpzd0gjW6Mn2wo7x7dPP1U1a8bdVPyet/2QFrtGD74R/EDyKXTrzt0R/DeqBRMTjGcJnRhosbhM6MAEgbKqN5Jo5CBmO1YPvhR/g26+aMo0ixhCHxXeaQFjdWT7YSukLTQ2Ckp0mhhCWVjWF8hAA3JQWCEHPnlIJSceaxXY3brZ9YaaLHVp66Tljv0/ZZl8YAJA2Ullm4zjlMpuFcwNyEGHVg/CWNxJo5CeYadsKtA/wbdfNFjdWT8KQ+LfKWV2k0MII6QtwOifkjf7oxsBFndUmQ3VoGbKTg9UzmachM+MAWAq4nEmjkICw6sH4UedO3XzRmGnbCkI1b5QRjNWSldKRgdFJXEGhgKxjARZGUA5I3+6RspOD1S8w3Vq57ABYGUCvZpyEGHVv08kInEmjkJphp2wgDzpwPlFrNWSpCNW+UkjiDQwEBdKRgdE5hG/3RZGCLIVIkN1aBmyF2D1TPbpyPlNIwAWN1XE7UaOUBZ49+nko86cD5Um8O2EYRqFnKCNjDslKZiMeSEjiDQwFayMEAkboAYQM+WUjZC40dilbISatWyMAFjdAHt05HtlBnj36eSER1GjlGbw1WLQR7tOB75S/iD6J4hqFnKs5LfJB5mE2N91fMBWPhF7wQRapiaQbIoIDBvn5R4jpXwjMbFDKEGLvCAw1RJ+VznvJ25z5SGH+E0+EdCerv8FsXf7tLlwU0+KTwAjy3d8UPuudwOX4/qeT+Mc363m7/AKc/2RvaUnD8TzYzThWOjhQtpHUFdY7B7VbxMbZWk0cOb/SRu0rjXaZ/iH2H7LYfp12wYuIMRPgmGmugePyH75H3CzwZ+N18PD6TnuHJ431XWZhjHwq4N8/KETSDZwE8xsYyv3OyHEdK+E0G2flCDF3hLMLNjKBZSbNWvQAK6bJY3gCiVQWG7rqgMZNi7V0wxj4Re8EEAqmJtGzhAYN8/KM/SvhGc3tlSDF3hAYRjPyqpCbNWjM2zYyrY3gAAlA1Cui88RNi7Q0G7pXyPBBAKAT7Y+EsHW/lLC2jZwnnztlAs++PhWQjGflLAa3wklbZsZQLITZq16CBXTZRjwAASvOGG7rqgMRNi1bPtj4RkcCKBVcIo2cIDw/W/lCffHwjPmqyjAaGcIGhArPyqHk2d00rSTYyFcx4AAJQRwFHbZURE2L+UGsNg11V8rgRQyUAn2x8JeH638oQijZwjPmqygE++PLoq7PqroTQo4VnMHmgoERGT0Vj5A4UN0DNeK3x+qAj058kAjbpyUZPFt0RLteNuqA8G+b/ALIOa/UfiD+IZH/Qy/u8/wCDQtdhcsn9QH3xzz/osr/d/wD1YeFy5fN+dfO82e+bL/Lzdonxn2H7KiGYtcHNwWkEH1BsK3tA+P7BeW0jF9voHhOLE0THD+drXfqAVbGNOSsT3SBHB8O4/wCab+2Fli7XjZdOXcfR4XeMqSeLbojG7SKKDTo9bULdeR7KtFdGSbGxVglG32Q5obg9EOT1v1QK2IjJ6J3vDhQ3UM14rdDRpyUEjGndSQatuihdr2UB0b5tAWPDRR3SOjJNjYpizVnZTnhvh6/P6IG5o2+yrbGQbOwTcnrfqiZdWPNBHv1ChuhGNO/VBrdOd0Sde2KQSQashFjw0Ud0AdGN7QLdWb+yAOiJyOqxnaPenhoXGN7nBwGaaSMjzWWE1YrZYrvNwoPCzXRpjiLHkLCzlvXS46328EffHhQb1OPsxysf304R2Nbm+7HLD/TMWJx1JZn7OW28b2XE9pEsbXg42yPUHcLGNzyx23lMZdG7O42N7dTHte09Wm/18kO1OMbGwyuvS2gaBJyfIe6512rwr+z+ID4nHQ7Lb6j+ZjvNdG7M45r4mSNyHgOHp5j7G1cc7dy+0yx138MTF314QCi91/7DlS/vhwt/mcL82OWt95Gg9ptoAW+H50groPFQRvaWSRhw2NgfHks45Z3f9lsxmk4LtWGdtxPDhtjcE+YOQrmRlps7Bc37sRmLtExsJLQ6RrvVrbOf0C6UZNWPNb48vKdpnj41JHasBCPw79VA3RnfoofHtiv7rbASN1Gx7JeQU4doxv1R/EDyQQw1m9soCTVjzSiUnHnhWPYGixugUt0Z36KDx74r+6kbtWCpJ4duqDmn1Q4HRPHINns0k+rSf7EfotUhcuv95+xvxfDOZ/lB4oz/AKQ2H3BI+648GlpLXAggkEHcEbgrn/UYay3+3A+u4rx83l8Xv/qjjz4/sF52tJIA3Joe5wFZxjvGft+y2X6ddimfiRI4fw4iCfIv/lb9t/sPNZwxuWoxx4XPKYz5dV7Lh0Qxw/0Ma3/daB/Zar9S+A4hvDycRBxksQjb4om0GOF5OoU4HPnWFur2BosbrWvqA++zeKvpGf3AXRs6fR4dajUfp/2LxHG8CA/i5IodcmIv+/kJd4jJI68dAB91gu3OCn7D42N3DzOfHILAfel2acyQDB3BsZyt4+kLiOzI66yS/wDGVr/1vNnhD1uT941jX27ekv3aZntP6dy8YzmcTx8jpSLAa0DhmHoGs3r1u1ifpR21PHxE3Z87i7Rq0gknQ5jtL2tJ/lN3Xp6rp7ZCAANgB+y5T3RZfeHiv/XP/uYrZqxJdyxvnfbt5vZ/DGatTyQyJp2Lje/oACT7LXu7/dUcfAyftCWWaSZusN5jmRRtdloaxpAuqXj+t7XO4aB38rZSD/5mGv2K2/uRxTZOz+GkYc8prT6OaNLh+oKvup6x3HOO8HC8T2FxMcnDTPfw0l/w3m2mvzRuG10bDhR/TPSuKY7j+FY/h+Ifw5e1r2vYGk0Rel1++ao4WqfWuQHgo9VXz26f9yS/hbN3GhdD2fwrXYdymkg7jV4gP0IUnvRb1K5X3QHGydoTQt4oiRrZY3zv1Pc1rXtDjGHHDiQKva1kO+309fw0J42LipZXsIdIZD/EyQNbXjNgnZP9NQD2zxd/+I/+YLffqE7/ALO4pvTln9wpJuNW2ZKvpz3gk4rgmPkOqRpMb3dXFtU4+paRa13i+05OO7VfwLZXx8NCHGQRuLXyllBwLhkDU6sdAft7PoowHgHn/Xv/AOCNYDvHwXEdndpHtGOPmQSO8YBz/EoPjPUEuyD7K/ESTurfqB3Sj4SH8XwZkhexzdYbI/xBxrVZNggkdVl/p1wfEysh46bjZJWFrw2EigHAuYS434tjWOqXvHxPEdpwDhuH4OeBr3NMs3EtDGta03paLJcbA28vVbn3f7LbBw8fDt/LE2gepO5cfckn7pJ2lvWq0ebtmbtTtF3Bwyuh4aEO5r4zUkmkhpAd/KC40K6AlW94vprCGOfwjpYuIaLa7mPOsjNEk2CfMFa39LOI5HafEQvw5wkZn+pklke9Bx+y7QxgcLO6Sbna5XxvTnH0o71ScVr4biXF0sY1NefzuaDTg7zc0kZ9fRbp3im/6rOK/wAm79ly76eQn/prinx/kY7iM9KdKQ0f8+S6n3jiH4Wc/wCrd+yfxpZ9zWPpkPDOfIs/Zy3YP1Y2WkfTI4mHmWfs5bw9unIU4vwicn5Vqf1IgA4dh6iQV92uv/n0Xq7gs1cG2zs54Htd/uSsP9QOPMjouGZ4n6tRA3simt98k/otp7F4I8NBHF1Dbd/tHLvlZnfJa1esJGi96w5vaQ0UXB0Wm9r8NX6Wti413amklsUNn+g24ewcaWv94jfabL/rh/dq6M6UjA6KYY7uXa5XUjQO53asMMhZLGWzPOl0rjZsn8pB/Ln/AO10Ix6c+S5v9RYGjim6B4nMGoDcmyB96pdB4Nzi1jXb6QD7gZ+VeK63j+meT4v7XB2vBx1UPg2zf9kZG6cj2Qj8W/RezzQN15OOiP4YeaWR2k0PdLzygvewAE0qYnEmibCVgNjfdXzEVj4QLMKGMIQZu8oQb5+UeI6V8IBMaNDC1Hvh3SM4/EQD+L/Oz/OV1H+l+63GDbPyqpbs18LOeEymq8uXhx5cfHJx3hO6k3EStDRpbQ5jz/IRgityfRdd7L7Ki4aERRNoNG/8xPVxPUlL2VAGczpbyVcwGxuscXHMYzxfT4cd3DROJNHIWsd/ezON4iN3D8P+HbDI0B7nl/Nu7LQACAMDPutsmOMfCrg3z8r0s2/RLppv087D47g2iCX8O7hwXOtpfzQ52aFgAi1he+vdPtLjpWlx4VjIy7lNa6S6c7DnW381Naum8R0r4TQbZ+U8etL5d7YPs5vH/hX81vDHiRiOjJynDGX4sH82B5BaN2b3R7Ug4x/GNfwhleX6mkyaDrNuA8NgYH6LqEoNmrV4IrpslhMtMZ2t2OziuFdDxDR42DXo2a8AG2E+TtloPYXdztXs97mcK6HiIHG9Eji3P9Vfyu22JBXSYwbF2r5tsfCWJMtNF4jupxHGSxzdouiDIzbOFg1Fl+cj3fm2GB/jez9rHieSfwrYnS2A0TEiMDqfD+y98G+flGfpXwmjbkvYvc7tXg+JdxLDwrpH69Qc9+k6zqOzRWVuHfTs7j+JgEHDt4fTKypnSOcHA2MMoHGNytsh2z8qqQGzVqeK3Lvbn/cLsLtLgXCF34c8O55c+nOMgJABLcC/ytwVjvqv2TM/jIHcPOXyGjHwrSdcZYb5zRs1u1udWfPp1mxXRcZ7odtjgu1OKbx5LXyurmvBoU4ltnoxwIo7eEKWa6axtt29B7T7xRi3RcwDpoief0YbP2Wb7gd/X8ZI7h542xzNBcCwEBwaac0tNlrhfmtp4/vTwTI9Z4uCt8SNJ+wabK1fuH2Q6TjeJ7TfGYmS2IGPGl5aa1SEHa9I/Up89J7ncL3t+n755vxnByiLiAQ4g2GucNnhw/K7zwQV6GO7bezlPHCwkijOHFzvVzWDGr9At2n3x8KyE4z8rXinkwfc7urDwMOhlve86pJHfme7+wHQKjvHHxcodFCI+W4U4uJ1ZOQOgGyzkgNmrXoJFdNlLjuaSXvbn3ZXd7tDhXF0fLz+YFwIPks01naUvhL4Ih1cAXO+14WwRA2LVs5xj4WZxydS1q52sH2V3bj4Y8zUZJTdyO3zvQ6fuslxRl5ZMTWvksUHkhvS7I+69HD9b+UJ98fC3MZJqM223dc97T7t8bJMZXcsPsEaXUBVVV+y2CAdpkAFvDA/1m796B3WzQkVn5VDwbO6xOOT1a1c7Wv9ld3NM3Pnk50pINkeEew/byWzytAFgUUXEUdtlREDYv5W5jJ6Ztt9mhNmjlGfFVhNPtj4S8P1v5VQYRYs5VnKHkFTPvjy6Kuj6oPQ6QEEA7qqNhBs7IiEjOMZTOkDhQ3KCSnUKGUIfDd4tRjdOT7YUf49unmgEo1GxlPG8AUd0GO04PvhK6MuNjYoFdGSbpXPkBBAO6AmAx5YSCIjJ6IBG0g2cBPMdW2VHPDsBBg05PwgMPh3wllbqNjKL/Ht080WO04PwgaN4Ao7qkxm7pM6MuyOqfnDb7IC+QEUCq4mkGzgKNiIyeiZz9WAgkx1bZUhOnfCDBpyfhR417dPNAJWkmxkKxjwBROUrH6cFK6InI6oF5Zu6Xj7a7E4XigBNCyUj8pcPEPZ24/VZHnDb7JGxEZPRBguy+5vAwPD28LGCNnOGog+momln5fFtlR79WAgwad+vkhsYTp3wkkaSbGQmeNWR8otfpwUDMkAFEqkRm7pM6InI6pzMNvsgMjwRQ3VcTdJs4UbGW5PRM92rA+UAm8W2UYTpFHCDPBv18lHt1ZHygWRpJsZCtbIAACdkrZA0UUphJz5oFbGQbpWyPBFDdQzA488JGxlps7BBIhpNnCM3iqs0i92rA98oM8G/XyQGI6RRwrOc3zVT26sj2yl/Dn0QNzrxW+P1U5enN3SJhAznGUrZC7B6oDq1426qfk9b/si5ujI9soN8e/Ty9UE0687dFObpxV0o52nA98otjDsnqgHIvN75U514rdAzEYxjCYwgZzhAOXpzupq142QbJqwfhM5ujI+UAvR62po152UaNe/TyUc/TgfKCc3TirpTk9b9UREHZPVLzjtjyQHnXit1OXpzuiYQM5wg1+rB+EEvXjalL0etouGjI6+aDRr36eSCaNWdlObpxWyjn6cD5REQdk9UA5HW/VTm6sVuhzjtjyTGINyOiAaNOd1L1+lKNfqwfhFw0bdfNAL0Y3tTl6s7ItGvJ6eSDn6cD5QTnVitlOR1v1REIOc5S847Y8kB5urFVamjRndExBuR0Qa7Vg/CCfn9KU1aMb9VHeDbr5otbryfhAOXqzspzqxW2EHSacBMIQc5ygHJrN7ZU5urFVaAmJxjOEzow3I6IBp0Z36Kfn9K/uo12rB98KO8G3Xz9EE1aMb9UfxPoo1uvJ9sI/hx5lBU2Uk0TurZGACxumewUcDZUROJIBz7oGiOo0coy+GqxaacUMYz0S8Pm7z7oDE3ULOUj3kGhsjOaOMeysiaCASLQQRAi6VTZCTROClc82cndeh7RRwECyMDRY3SxHVg5SwmzRz7p5xQxj2QCXw7YtGNocLOSpBm7z7pJzRxj2QR8hBobK0RCrpSJoIBItUF5vc7oGZISaJwVZIwNFjdNI0AGgFTCbNHPugaI6t8qSnTthGcUMY9lIM3efdAY2hws5KrfIQaGwUmNHGPZXRtBAsBAOUKulUyQk0dil1G9zuvRI0AGgECyNDRYwUsXi3ylhNnOfdPPiqx7IBKdO2E0bA4Wd0IBYzn3STGjQx7II+Qg0DgK0xCrpGNoIFgLzh5vc7oGY8k0dk8jQ0WMFNK0AEgUq4DZzn3QGLxb5pSU6cDCM+KrHspALGc+6AxsDhZ3VbpCDQOykxo0MeyuYwUMBAHRAC6VTHkmjsla42MndXytABIFIFlbpFjCEXi3zSEBs5zjqjxGKrHsgEp0mhhLznef7K2AWM5z1VnLHkP0Qf/9k=;rotation=90;" vertex="1" parent="1">
          <mxGeometry x="729" y="10" width="98.13" height="50" as="geometry" />
        </mxCell>
        <mxCell id="Y1mZi5_KREuWDVKwzotL-101" value="" style="shape=image;verticalLabelPosition=bottom;labelBackgroundColor=default;verticalAlign=top;aspect=fixed;imageAspect=0;image=data:image/png,iVBORw0KGgoAAAANSUhEUgAAARMAAAC3CAMAAAAGjUrGAAABDlBMVEX////u7u7t7e2kHSHYLSb19fX+/v7z8/P6+vrx8fH8/Pzv7+/aLSZ4FBTYLCeiHSGeAADZ2dng4ODn5+fIyMjCwsK3t7fMjpGhBg7c3NzS0tLx4OHPz8/UKyebm5uhoaGJGBiuICG4IyOxsbHXJR7LKSWVlZXXHhfEJyTWDwDmhX366ujHKCW1IyPtp6PXGA3dV1LfaGH33Nr1z83cT0afAAqgEhf21NDgX1zvsazywr/leXLonZTdVUzcOzLbRD3nko7tubHolpDqjITsqqR8FBPckpKxEBCVHRrkc2vlfXjkf2/GcHDiura1Q0TVmpnGg4LFV1DXnpS9ZmapLS+1UVDdsK3Oop+/Xl6xOTkMEB3gAAAV70lEQVR4nO1dC3vaONa2DTbGuAZsoIFAUoJTQkjqhKS5tUmatLOzzbbT7nanM/v//8h3jmSDbcnChJvTL3pmZ7QtQtLrc3nPObKQJNJKMjTFIP0C6eukr2NfLpC+oWC/RAeQvqKRfjE0QCV9lQ4mHyqSvkYHPInZpCexymdM1j3bMyYrwkRWQ4OXjsnCZ/ObrGDzx5G+P470g3HYZH+VpNF+MTRAJX01NDhYZWhAxmeTSthkDRugiH2d9FXSV0lfx36pKJFPkb5M+lKR9A3+AHgE2DdCgyX5CcxWkuQ0Yrkaw5CR2eRkTJTHrFLWQwNmWWWGZnvG5BmTdJjMatKlWU26No8DWc9sBjatUMSma9hXSV+N9w2d9Iukr9G+cLA/oED6RnhwtmejoAtMOkqTMg+zVGZxINmYbRom8qyqGl/lM7d/xuTXxiR9TDBeJf4ff5XLi0DWMptUIE3XDfhHZfoq6etM3/8QO1hNGAwf0rkDMjibmLOtzoFkaLZnHvvM7Z8xmS/eSW/SZ45Aog7kScxGLLSukhbuq0yf8yHxgLkGr3E2KRDLRzEGyRfLNIwhNCDjs40xialqtpjlM7df92zPmKTDRAmNS0URQwNmJ6Sgx/5gTVVKcmkqJvPNlmJvkpqBpquyY1errVarWrWdoqpPH7LMFuVsS38E7AM3JKPg2O1aG9BQFMduVlvtplOaqgTLE+b18thSqaiUnGoVMAiSoPj5Vq3WbioLny3t3taJSaEkO9V2q+momhRthtOqte2C9v8KEzKd0mzXatUi6evnbx4uTk9PL/YvR3R6UKKmEqj2ijFRiN1PERPIoZhgvMq0EYhcCg/G2QpOu9ZyqL+5etfx+q5rmq7b73un74cSiogKZte2laK8gNlm2BvQX9/yrzZwKTjVVtWmizrZ73tu3sznrTw203L7g+tLlW4QdUtZdZgkzfgIFnAiRCuAEa3Sxze6vxn080xzvf7DCcqKpjrNql1ySMzyqNkesbcAk7iqLo1Z4iZ9nRleHnl9k0UEWgdgub0fkmmLdrVWdeTSL8ntS0VHBhvh+Drzrt93uYD4zex7F1fUAiN/aTrke34lTOSiYrdqoAdkzPA96EzH37vLlxWwMK5nfhjRTYK+Ee+ckXhnrggkMOkOeN62TT6k3x2HdMa83Xc9FBhiY+Ff7kR8LBCWwRE1uNQ765FtJc2Wnv5yMaEG16+EkCKHX/1g+v6Hwv3wAHawXzrBsr1it9uBWf3Y8SI60x+pl9cD17RMYl0H158+hM0uCsv+OfHOBbsFnLconi261Jn3hnk2aqFnLLHNwhg0xakCWaefUi9PByAiZmTPR4jUh7zngru5uATDeh3GzAKs+oNbKixgWYD46jM5x9nLh3KSYVgQjzUUtI9krHby4EVFhLbBFfnbq+PjO+JpzgfsZ1zPI94ZHRdQuWKxWJpRwVPvbcncXgt73ve3A741dU9xerIEPJ0pveMwFjAt7uD2PfXO4L1a6J2fVLyjEs9bUojnJd99dQye18p32L2iZpxIE1CkgscDDnQIvfPxFZ3AJrHzKjCJO5CZMAmbdGBYdqsNMk4977054OgMaX3v5n6kTSJjTboCi5PknUFYOlRYNIida03indVHOUcBJpyjYkb85FfiUbEiO8DAc846xLxt3/Oqd0ewSYvdHvyZ61n7KCNGCBNN2gTC71J9YYXFArE6vqPfbGPqRfWXxy6Vdwwuzd78lcghCz1nvIMiUm0GbPV8P88zq9g6ZufdlREoTaQZJ+88z+Lg6AuLd/NxRJcEwtJSQktNLB/OsDeJowRyWAlmVdWSU23DMslXDS9vE3UGH/r+3cn5UJW4Tb+7Foy0+t41FRbwzm3inRf+XsaiMKFaTheGz9pFI5pgHFB1vMHAc28vPn98f2kEzscYDs+vPn14OIob5IngwFeaQGb2af6piN5ZVuVSFjEBz9tuOVRE3ghFJNwwleT2B58IJMPPRzcuAIU5psiHQNXMmDYB7z/9NMRRBno44p2Xicmsrr9UUpVJzIueN5QlQi5qkq27mE3DvUVkB/dq9kl27TOIlpWPbh5GdHZyr17twLdE/gIlrf+ZOHLinVtOaREJUvreSvBqjBR604X8jf+mC+knvhoDlLJIEmd+zHvvxswq8IqBe3N7enF0cXF0epsHKcjHYAHD+RnFxGMUDfTkoJsr5169ePEit2vGNdF0Bzc+lbPbtWoh8bWf1HvTFnMiRHOaTZpK1K8uBv3IdgGQ2/27USg5bwxP3hzHccubSPHv4xTWtEBEyuVcjmDy4sWrnU4cFeKdr3DVhlN15ol3gr3JMSUYU1FZxGsiYqnp4HqJbI4+WPGt9vPUbcabenUco/rmjWHchOBEhcrvdgkgY0xevPitfBBTIZN453vUPadlFwVGL9XeFsLt1WYVP6ddATmLcQrXuw98bcBV6X/xX6MLL/Jx7/4q/AfEigSITDDhCwuIY/8evrpam+4cVxHvNKtID96AiMQQMc2bkcTjZMEfvo+ENpZ5Y5ljEbH2uhNAophA++dBPs6NzcExwFBXMoBJyW7BEk7yrHWEZ8dVm1D7GLUfwVdYKCK5MCJxTEBYup34jIOhVKzbpfW/0yRX24Z0ziXw4EqmtBE3BjaJiEQhYTB58eog7oK8TanYsOXFvEGVKiZIeoVKqWusv6CYPPD1JmiaNuTnBTo75XIMkhgmv+UYKTE7lU1JrRV5D26mvfltHh7r1CXpH31OEAvcYSiCBAB7w8USdChuTaKY/HPPYqyJeZAbY7J2bo+YvPzd4oHiXg8nDofT7vhiQmHZPcyFpWWMyW9d9DpxSDqH5axhstHd5YR6lpu/CvxO1Bfjf9SHZEjoPsPC8moiIozWmKhsucxhUi4fMqQBnqY5OL3kZwNGH/p8xQm8j4n0f3cnF+Js6GtMKx4KooyQDy0Wk3luVaCYgOv0UWFom3fx5jxiWPTh1QdS00hoVjgrQCwLbPm3F0hg2XAIdCwQphAmnAAk9d7mv8OhWK1RTBCV7gEnW2K5fc89PX63j+3h88Vpp+/14/zO36ELnx14N+G/pCFPdyceNNK/O+hOTA5i0rCL67/DIYQJopLbY3l3niZJ+qS5rovJ+tCuLfr3CIZ19PD+aqR/jiEGsKAeMl+KBic3IXcUkxScTbi3BfDYCCZkgTsd3iNNagiG55mnn9/fBRp2MkhMxUYQ2YnxutSYLJvbxzFBB9o9YB9qfEe+nvRvLvY/nQx1X5WJaN/wUvbhoRZVmjityy4mgbCYvAJG0Fxv4J6+u78bDWPsBTDh1gEnDbN01l43DsgCMZk73inxMEFUDncFpat/nQ/HR2InZ2NJuxpMkTGTR/0nmMwf78x9h4MW+OI4KKBChF/xHcwxOYKkMU0aio2RaU18L4PJUFLrspaBOxwQk28sJhMV4kuKd/tmyAFF+izQHPguJg4KQfJFmomzJe1tGiZJXC/OY98mYIL2Ns/zo6RA8zCKy4p0xzloQZvlJ954kJQJJNpsmCTtbUGYDLtnCQ8vcM48DTLdwfWdEYFl6CZZZhoUJs6y0f2KkVV2MAEr8EclcbnI+ne5VsKyXI9WIgIxuXA55zEIIlRpEkAp577p1I+vI95hb1UgmEjatwrfpviLBnvLZx1m3yNlK7B6hvSJrzksPYsh8vs9ImFo88U7C7vDQW3WJJIPKHwXrRtVKME5Y9nqDfAUDVORHMNj7XYF30zDiX7/I6mSqg1HXf8dDoSzISb65S0yKdHqgd/yPa3pufsjSbtlIkP4NIewRqDeo/FS3/uANjY1Z1vmO00UE8l4Y3lgHsUbwB10+DYUD8Iex9yw72kEX0dQDpp3NAsmS+f20skN5swsS0SpfFQO2aIvbdGTBDRZlBN8Wbkc1UZzMMoSJleTOue4fJe4GbC3nQR6G2m7Ipkrs3wQaxkLjHfmqKGTeOc+fGINpOVAZBWpvZ2ST7D2EuiZjwhSweg30FoGiXfWfoeDzallULEXoSLIJ1hTfG8Z+Q4dHKq4m7skBqwrWbjDwa9lMMl0tkQTF/49pm5Fd0ez8Mnj2CDKZGoZE2Fexx0O41pGdJ3WNDZeDnYXyzMKEaHGiIdIBmsZOczaM+wielyChwsNEel7KgCjKTKsmH5gykgd0Bof+sxhwo9qLHMa50JhQTDQQXf8ukXCR1Gs8kx1Z4LiEjFRQuNS5k8IJoHhZFedbDHLVFh29qDtiMHjefBoEjIFJmn2Nv8dDrodrWXwzhBNsbfloAk+0WWYnsmwXOJ3nLlvgJj/Dod4PhaJKnFC8ZNpyfYWD5sIAqUx0OGaECDCfKMwR516b0vJ25NELHta3uzsCe1tEiAcT4M+7YnWMvJpNjINksMDNgyInjh4IpggKoSxRAq/gXNOj0juMF5TtMYnK9i2yPrOXHc4JNR3cnx6lfiMOcMJ0Y3r4LRaBmCSgTscMM/27S03m05ya0zKMXw8QgAJpkYYEkhCwwSzRGoZdUew1JXd4UDqO5UEjSBElWcQpvLbXd45ApHiVb5LEi8fu447HBCTzTNxLYPxG7GTI3FE2NStSc+ZJwK5cfb0ahmcIqmJKhTfY9mn8DwrJJjh7Lux6FrGvHIiYXk0WVRyQe04Zlc4ygAy0mFfSBGrWrm817m+1CVjeZjEY4I0mOAj+vdZwrrL9F9xFbKYEBFdTcyMoAMXJiFzdIzpde6k6bXRNHtbwB0ONpWTq2sXnULy2tGV7LK1DKQbXRrtdFkzYoHdEYgIYbm+WJmDB/Q7irH+OxwIP5FG1wMXX01LkRhgtw3jOp2OxR7MmJZ/Qfc0Tr/krcGQd/5kDXc4EB47DO4soYkBISxce8trU3gMpmWjLHeQKW7/vj+ufMNDE9N3GtRNR4TIXLK7piw3InDZinf+EXn7Pp0KkW0kI5IcRJcDM2KFy/Jmp7sUTOI5hlTvNJF45/d4vicNUU2WERFhLU9SNBMRMfM75dnyJ8u8w6FAY8DDiDpY02M9/vHiFLGzP455czBXppgUMnCHg/8OAss+TXF1M8dhrOa0WgZbALSsMYaPf6dpGfEOzVEzftacllujWe3JIJoJENCRQybODmXAs1fLGBcbYk8+TS0DL2VAliJEkFciCydly1nEJEeyHmx+fRrxynUPsZgRfa+L+VRUoqjeRPBeNiYz3OEQxqQcmMCoWxDXMsopahm5CNNDx8/Ry5SYLP8OB4k5R02ya9GcITmrM0MiNoYZLyLgFNJ8TNZ/hwMvH8sTdIs818cg0t2LH69NMFIV7vvFa7jDITFvzxJ4cYWchwcnCWklF4ooJgIeu6o7HBIwoY4znlOdXN2REhPmCLbIYleGktJwshLvcGsZvGjPnK2WkY9ViHxJ4wyHP9z4U5KaDSUTmNQN6T/cWob/pJkyqZmiluGfTImOAziTi86VP4eSVF/EvRZhk/nIOxzqqjSqJCZjywxlsXyTIEaEENZYUCNw12eVl5IGYtKSuQHIiu9wUBtVSRrlBKft/TfhYpfbJKVHSNzbifEbcexUPqv82ISltLfqBvfBrfoOB63Wgw8MvySLSo4f3Sec1SGZ+5hdFb3KhDLyA18E0htbDUfjKviqub1m97bx/uzNH5UN0SGSLs2LRQ6RdKKnYMtlXszkZwKSvnmj8gVlRGptbdccWcoEJpJS7b2uYXf4fUNQ+fLfzIgqxfjV+xzl+HFHZU3jNG83vpO3kpvbW72WM9PPTy4Tk6JiN7a3WgSVb/8VqhApfeWjm853drpUWro7u1FHM+2Q7Vnlf3+hqTSqve1GzSbGUlsUJvPc4QCYOHa7t90jqOhf/6xsiA7b0zxSlHVYnc4uKWbERER8nHqj8udXMmVre7tRVZyJA1n3HQ4QXkEMpRdava3XdeLfNr9U+K9MBqiwqVjT5NTCdkVm5Oxt5Qu5wapQ29rqtW2nqOFbUYmXDa70DgcqlppRstuN7dcN8msFw78EKlRO8WYGxtFi3/vfb8SMOI3tXr2NP/GkTlHw1Htb5H3UiuO0GqBCVYLR1x8iYQlO6yRCIkzOodLgKtGM9MDXOEoKo5d6bwu9o1sBVOxWY3u7RlXo5dkUe7trxpxznt6t4x9GShgYKI1a29putBTVSHcf9Xowga6i6qVmvbfVs8m4n3+IXyalKbmYHcmLaD/ATJVGabwG51vUDW3x95bPHe9ETToYLkN1atuvt9tk7PkXMWUp78SOGghzCWeVP34SzbR7r0FG6I+KpApAVnuHAzMY35dxUIXqZDmUsgh88yFNyZFjBaLD1qg051RpgJ+1nQJoDbM8TmFuHXc48H79BSax6yAsVfLsTv6eYm+7O3u7uwd7ojciQWleTpSm5oDSaEv6GfVpmMizqqpMVRUYi+rUe69f07rc8HtOYG9DeXsWkzJFJKo0jkqueXtqv0mEv8UF9HbLpywq2ttHJe5Bad7+oEqDhLVedRyFme1pYELMF/jmOrJ+8pfn34X8NqlVNl6SuFepI4WXkcLzZ1swJvPc4SA26Y4jT+yt+pfQ3nIaENaf5Jvt7de9ul3QtRKZOt0hrMftbf47HHgDxn2w6KqsOFWIm3tNsqyvf8+gQhuVv8lN7Rjl9TDuLRVFs4WXt9Y7HKabdBSWKuG35Cs2X4rsrd8Qtrcb30cTpVHguS7KOQr3tqrfGwV5latoWQi/Vb/+MRWVs0qOElbwNFuoNMYv9xussoTOGfjtVpvaW3E+4azyv5+4JqMFJKdeVZHC/3KYlDBBoavNGjrnCb/lW5YziHvJGtpgWGtNx6F3zq4ME2qh56ihz2TSIXBug2HpNUMpORaRH8SwlurbvXoNUyOPne2xe5v/DoeZXoWC/8k2CMtWOCUXMPoycTWkLiE5vS00rAUyfv4Xr1Z8hwOI5fRHELpVQTMcuzbmt8Nv5bG9PQPDSrPwTg8oDRLWuWdbzx0Os/8CKPLb6jglp3/9kquQlvtC0mdas7fdaOPPgcjyAmbLGLdPXCXhLJOUnL759efPk03yFQbNwqskobiY2Z4GJoSx6MVmHRyLHV6I04C4t1oETrnQ2VZ9h8PjXumH2Wg+ASgLRHY6hNFKtbGFmQAIarTFz5Z+b/Pf4TBfK8jonLf8BmbERlez3jb/HQ5ziBcJ+kFYFLtWxwauFwhrzIEsbLa0e1shj2VXSWfDk5hGycFWNJDCL3W2FHvLACZ0Nv+s6opmexqYZGi2BdzhkIoiznWrwmpnW8gdDqsIk1Y6mzTjI3hsiW2+WxVWO1uASVxVl85jMzzbMybPmDwWkzhFnPmnxmdaZfZmW8AdDv6H2MF60iUJWZ5NX8QdDo9wIJmebRF3OPyCPPYZk2dMZsYkbtJnOws6Gfw4B5KR2RZwhwNvQNLgx96qsNrZKKBz3eHw2PJhZmeTOGIZ0ryMMMv189jsrfIZk3XPloTJ4xOr2FaXxl3GbPPf4RAMZgeQV2Ng0qTXfjI62wLucFhqBLKe2eS4WM56h8N8SpDB2Z65/TMmz5g8Y7IwTP4P0hGi4i2SL60AAAAASUVORK5CYII=;" vertex="1" parent="1">
          <mxGeometry x="750" y="115" width="75.14" height="50" as="geometry" />
        </mxCell>
        <mxCell id="Y1mZi5_KREuWDVKwzotL-102" value="" style="shape=image;verticalLabelPosition=bottom;labelBackgroundColor=default;verticalAlign=top;aspect=fixed;imageAspect=0;image=data:image/png,iVBORw0KGgoAAAANSUhEUgAAASwAAACoCAMAAABt9SM9AAAAsVBMVEX///8xYZMAAABzjq8tXpE0NDQgV43b4+sASYYJT4kZVIslWo5iY2QUUoooW48hWI2zwdL3+fusvM+mp6jn6OmUlZaSp8Dt8fWKioqfoKDh5+6ztLVAa5nz9PSKobx7fHyesMbEz9w9PT3AwMGRkpJxcnIrLCze3t/IycrU1dVZWlojIyNDQ0MNDQ3S2+VJcZ0aGhpfgKa9ythbXFx7lbRpiKyCg4NNTk4AQYJTeaJ3kbGi+QpZAAAK00lEQVR4nO2ca2OiOhCGxwgoKCqINxS8V/GuxVr7/3/YmYS7bbfb3dOyu87zYSsRJbxOJjOTsAAEQRAEQRAEQRAEQRAEQRAEQRAEQRAEQRAEQRAEQRAEQRAEQRAEQRAEQRAE8TdiLRYLK+9O/CE4C89bWEaqxVpO+/3lApu82YqFHKrNO1fMaVYjMbar7pSrsZxHLUwO/qxlWd6KV5t+3h3OD2MoJHhYVaubQ/Cyu+F/LsNu96mKWq2anhOeu+hzXQ/LfLucG0u8+cd+PLas6Uwo1VpkzjLs3Xi8s8Uw7aN+82/u5Z9BHw2HK9UZN8zGeNfhbU5z7vCWkeu75o4LtCs8q5quq/reLeFhE43LybXbuYB21UJd2gVVVxRFU9X6sS3kGV9VvV6pVBRd3Y9QwpNUKyBSRd2f8AMbdrg/Ry+0MtW6VIiQ6s8NMI56qkXRfQOblPBQv6J4F7Y1Pv76f4oW2wC4aiGNNoLOoJJpKtQrDTxPC49qtR3AhlXz7v03w5gHp6xW0h5gUCvcIKkuqqXHRztwGFt8fIF/iD67gFGTMrJoJXCVW614+xHAj96QlA7MWS/v/n8rc9aEUVaZ2gvs1NdSIUoRYB8JW3lBpe8rfljjSNpnDUvfwfnVIAxty4VObFoFWLBV3v3/TtDtgHHjsQbQeduwEHUMZuTk64aDY/iOsJgMOz2jR70N5lseKzInGISGqKBYj3nfwHeywNs9ZaXRxnCW3tApVMiNxa2gXd6Vz1pgqHRjR4ph1N/VCrXshD4Ojczi8ez9sEDbGGW0QZeFc6FUU+qVV/Yl1TW93A5nT+mKmdJdlWqEZWXEqhWhoeoDf2S6Ay2rlTIY7Wy7BLYYhzUfQ4e7CkotFKuRGYbo39vFUvDuKOP6tXb4oY4QsW7CkN1VcuhgZjjOSKKMABWwTbc4MsBNGV3tDNC+DnhkIT6g2yBv8u7/97JmYGeiKsUE2F111W+411CW0LAwVsX3joVwGPLJsPs1nbJPbb/ojnbppoZ7Pvtxk2F3vubSP6TKHNBvxGqrEpcG2uN0KF+BTtm3R5ggjrXA0JbsS2rLu4Faru33Bfx3FDaN92q5jk3lshQ0lZ7PX3HpD2jhDWfSnfoIfFRIqpmm3k7NlBgp2GpNV9Cvi1gDRe2yr6iVllS1LczGMAtqUTT5qt4WbrSDTYOOOKn4BZf+iCXrgZsuXaGDD46VOhrPOJkQ62DogZjifb0DcpTsPG4miCzLj83f79Fea0QvOwX9hH+K6jUZdK5a6OQlFg/CM1Epnw1D8dCXlxJ/ppVEooMW9VITNS8rjrJk1hJ0L7+fLBq6lByY+pFXca/pE3zelo9YIG/B1t4Wq6CkU2o0qTYOSqUBxZrQrBWPQplF39b8UUzf/Zl439b3qYOyAkZFszNnXNVTXmI9MQsK0tti6UbK+WPEzu0MVeI+Dd86xFl0IhbI8vuXevyZTBIn4OTAOJ2gob9kzxirx7zEmuJgekmVr5RR4sMwD0zNlKrICusi3am9gMem0XekxJqzN68iqA5/pkMieElx1HevzjByEstiw4zTCn3Sa8vi47Ch8XQIT8cbGKbMKXlZ5S+dfmvWDDOhRb/VbfIQw7FWc4s3Lpqz1tSAhQXOgp/KPZ/X7DW94AOmqru7VGZQU27ThKNaykks4bRSYak2hmM0KuuZMqBUM3DASjzOQtfvsFnyFYlYhwsPR+ThcMUeuUursuqsN2QTC1rbw2G9tZxHthkOJ8xad9Gqp2y9GYL3sB22hmwdyIXhgVq5tk+BpzJUCW7w1XFeYnWzTksvxdU9nPEyhUFhWqJRO0EvFWTFYhlzDNt6wSxpyROIUm1nzRfNxDDcbIUkS/lhhmLJPNawgrIYfjhYtTVO7l4pq+rAxQGIP9dtj938xOJ1Fj9xWhghRNJV3JtaV92AfQ3jCX0AkK77yduLYMLwu5xoyYeHFk8PwesWl7M65y4yjPr7jIv1xF9Wo0lhkxRejVLDH6gYYL1hWTmKBawKpyR4wDznGoql7pIRGYjVxqkILatsZqsz8rYbwHeX9GOTq1bRykJtxJBEsYaT+LJcLG5lThyvTW9Sgt1VGUC9cuuzzuouN7GG2MXEgMJwKhiF9s3KBU6P1zOcKnir6XUdOT0FzuKD1prPjuzy1FyK++ViVWODFMOQj7sFm4daz1/Vx3AmeT0bDvS8ZkP+e05TwUMYTnFlGpFsiZI+7DB3bGDwmb6trFjb6FXvAGIDU3XNGPdNQqx4xf+QiNXtRVhQxBkmwdcxRXWz/S2hcecmFh+HqZoW/pBtMSrRfm72O4iM0IAzGNmVioxYzfhgmOQ+XT7guFjdyD85LBLLyRQvXH2UOmrrI0PTsuUYXzVzFGvODEhMCE0LjpooG5+0W7EqPkBjJ2bQFHK6YrqIg9VDCzZhfCHySD4bxqHsLBYLNpHyczTFBk/9Yoo6mreaKceM1UFuuSEE82Gq8qCg2Y80rZx4+rRpncDGWxcTnuOFYzEjFlS3gSXM0RfOt9ElvHAIzlkfvbgzk+VYLC/08GL9w1C0UfxVtoJpAyaD5+T78QfMreogWE8yrryMXqPTaGOIo73eS1O2xV6j+XzF9+IGqfE6I5ZxYa3lsrnho8vaPjQ9b9kTq7E9Nmw5aFJMltnKScTieyam3rIbFF4buuqG425cUEf871UdnIIr2L5a500l/WyXEr5DpIge/u5JTVQ3wQnHSul447WkAgpptKqrarfpWX0W3G3zpozVr04mq54IA4xmdTO5zIPv6z8NeeNiyXfzrltg9cJQwZpd5MlTmO+MMb4anF+Kx1q5EqaJo0JZOb7450FZvRb0NnasrJUTnr9Wniy8qBVvnNF8vqlPHuL9dZK1+ujNHXRSs9WFfXanpDWLPvGDNcexe9wPBnvfjD270fD3g8Lg6I6hVEAf1jEbaT7Zid9jiDd9DExL8XlChzjgP5s362SYE9o8DTFN0z3z3WyfrvXFKWXv0zpHGFf345O+EJ6dlYKl0z0vcTE2t9B5SIV0qbQgVikaaq2uq2Ud/Yqz+YUVixnrWY6zaP3GPri8Fyu7eNumyk3HgN5ElFcaGt+OdSNWEWzX57u98YTl9peWwqaPODMc5t7/fAffiMPWPEHVpA5MedTTOZ01ST/DjVj1ZAAsH9mv7r81HCdv4/g9pjzZK+EE7WEis6s/8woJ95u72xXYfqvf7z1duFf7H5Zy/lKG7MLn8al4zsQojce89ja7EQvztkn48NOqeYcPWMTgFHiZrxkvEwRRkdE8sBuxdBvYcOF53j0LJWjyp8E86G/EA2KrB8a2h1vL6jh3tpv7fcLnVB2vN9xMqk0cclkHL0mplVUiyyuxBl+1GeQf4HKzHwlj0v4vB97/OisW7sUKqbgYgN+9b3+HOTPS29l4mDXffvyx+2TIHCNdLMUwazP5+GP3yQyj+XSJhodZd/WYwGdo3mwLVIDCrHfhO2yKSWVZPCZAkcM7eOwp/TCiZooFWeJNeOEm2UcjFcBgd7bz/TM8MA/aQfAgKTUbWpTsvE+XV7lcVVE0vWDyhb2HvHv0B+MwvinIbphiZ1mPUa7zIzzGNkG1fNE93ON/EfIplgfGHh6rF77IQCHWh/RFvf3S+ouXY74Tw6HgiiAIgiAIgiAIgiAIgiAIgiAIgiAIgiAIgiAIgiAIgiAIgiAIgiAIgiAIgiB+kv8A/2LV37CDSqkAAAAASUVORK5CYII=;" vertex="1" parent="1">
          <mxGeometry x="750" y="210" width="71.43" height="40" as="geometry" />
        </mxCell>
        <mxCell id="Y1mZi5_KREuWDVKwzotL-103" value="" style="shape=image;verticalLabelPosition=bottom;labelBackgroundColor=default;verticalAlign=top;aspect=fixed;imageAspect=0;image=data:image/png,iVBORw0KGgoAAAANSUhEUgAAARMAAAC3CAMAAAAGjUrGAAAAwFBMVEX///8AYIvljQDkhgAAW4jliwAAVIQAXYkAUYIAU4PkiAAAWYf34cn7/P322bzJ1+Fzlq/omzT77+LjgwDnmC3yzKP++/VLfZ7ppFDx9vjmkR0ATH/55dTm7fKyxdLS3eTd5euDo7kja5LttHS+zdiUrsHuuoHww5bz0Kz01bXifQA2dJictcZhjKkXZY5sk67qp10ARHvon0RWhaOnvMxDeZx9n7a3x9Pssm/vvIHon0npplry18TyyZzwwY/78umTv1fSAAAJ4ElEQVR4nO2dD1fiOhOHG5omKRFhqaC1FAoCq/xVUfS9e5Xv/63etElpCyUUZaWX5jl79hQ6lubnJDOZpKhpCoVCoVAoFAqFQqFQKBQKhUKhUCgUCoVCoVAoFAqFQqFQKBRfpT9GCMzbp76NPNF2MMQAItq1T30reaFCALruEQoAJd1T30xO6CNU1TR3gBEGlFZPfTu5YEIJP2jPEADO5LR3kw+qCHXE4QtzFdS7Xiy7ffek93RyEFyEh3aPAowhpIjMuh3ZD505A2S+rV/MISXERBRjSsYFVmWGUbyr2J7X785MCDCZFjY6uw6ebb3ZmToQQPJygvvJBW+ETrffdeeEDbmvRXWVJSVpqb03RsxVipr09yBJ9YcXAgFJ8aEi4JowbPnLeFqJTtivCNBeMfvPhDoi9tiYJkbcgQMwLWZUpjScALoEJYaQKhtqSSHnQTVKw8Ou85Y45WIMNt4qBm/IDDuI7VSS5+wZE6X/47d0cipk3Xm0rSHV7jFRCth9phDsPul7CvF+7F7yQj/qPCnYkM0KixeSER1IznoEwPGP3UteWFIsO90ngNZ+6l7ygkeQNOAuKSCFCz6vsCc9P2bT5IrU4vyobiSwm7hsSFnIDM6Ra4ikoWWCitd7XAf2pJ2DpW7ScfgcmRB5vO04QBqwz5Iulc+AWbKLfupe8oJrIumA4ToAFa1szfxEnsBPIS5aNjuD13KDPiraXLDiyDMUBgSwWBl+H+1NVAcswy/U/HiJ9q5b2KRg4bi3t+v4wzCge43Oh4ojKysJmKMUKRy7JsmwF2cOsaRKeW5UEclg5edtxVnZ6GfSxM/btvdmnCt9ZIaHsjqJRwrkKH3kiKPuk2ywfcXFcRTWd3jK1idwKbGrmsVxFI+YPO4ADDbXRxPMMJaXbs8Hm6CgesL8AFDZ5uF2gYqQIm1fQuYoUGY4K86IMqVBqWCM8TWUpvlVf1WwGJ7SRsGc1wS0XaPSZHWOAEZ4UoDlnorjDyP+jKbjOvJZzdyhGFCyPP+N+VPfOzqmXyKZQyr1AvvlmlAMneW5+4rnoAGb9vjFedehshzFx34ZE0jpuY8rS0omAxpkH12UYZbs1ggk879/XydlhikFfBvXK33N8ANeD9GZ93dv6sTYM4TFgkYFZNtXPiD43DegTxbL9fbhbOXozoySwhTzbZyl9zDmBL2ee/wJqcwyPjPZmSFQmCWORdZtsQtalKkyG0G9fRZutf0yGQwgPfeYHDHxJCcr7QUlCFEGRE/nnr1FtHfWIb0FQhgAiAih41q/MAOKlrL/PqRrAgAInLe9ogSd/VQIAPT8Z8aHMUEAFmdkzciCTY4Wx+84bv/trSodnvZbnI4xBfIy5eHYXcBCGUKSx+DdVyew6H3pazhaH++Pv1K4+l9kU78fvt8keLxrXMTO3wY/cpP6AVM2pphj7yv3lo7nfz9NAIQ7RKk6kFtgJN/Qm8ZHySobqZTvhMnq07D0LaNyWdffW8KkbgXvXaV/RptAgJ3j7dPpYRCyY3HANtcWYG/ha4O6oRulHYSaNJhoO0wM611cRw9e7tCEObL/EP+xduK7JGowSO+VcxgzOWxjN/v1isbt9pOhtVYgTijcM7+QXBP/m7sIpId7cSodxJvK/0+bQ9lOzAKYB33sLW+abhlX29wG48mFkMRgRrcxdOFg+tC32qsJ6+HX5EiiVANNcE20OGUKOgjGGzjtHa5Ji7dXv2/utvnFm26UHjaMLv4pB2cs/0UGTdjQ+OpkLLbI4ZrA5SRoOU7pknwINjtf8JNG0CrjTmLStIQkKbL9CeTS/fCTSRNNe3k6RvomNKlV+LiyXSd/QaJXwcM1+V3mbiIxWXFNymk2XIhyQ8usieaCI4gSaqLVIHeYTYMZFqPv39GEN7akX6acax6uCUtrv/9VZmtNPJLa5j4PxFRLamJXAlIuaHOC41Noon0/TVlroi0Ch6AbS7TX/N1BUhP3yWQ4ac9HOMTnKTA7iSbfJ9KkavKQmzgtvMffUJXQJHgbpz1BwYdkFNOk/Cn5/HxrovVSwvE0GmXimtjZNGnwlpQkn59zTd7QVkPtWDQ6SBNuJoKKcXWxM0HJuSYaT1XjDwx1edYSPCrxBU20DyvMUSP02z+frbV53jXheVvsgaEKDzokqBB/RRPtt7U9vWMzHav0Iczzrom2GY5fuJvw8PIlTbT6jV8q2NZFL3Ffyb0mvKtEezABHy/5msnXNGGDSuOmbOkRojBgWIEouddEDKlhOO6j+MsvxOI1zXor5PLjWRddyD+Te01EqSR8wHecyOK+o0mSB6FDNLnLsyY8RRMDSEcEYmF5PE20R2OtQ/410V5xFI5Fsh9+F9YRNRn+pzThCX6wiCSqkut9QkfU5G6XJg3Oxyp4dbAml8OhbG6VlQ1NRGnAF2IZiBB9gdFPaLIqWWWGbgSiHKjJqnT1++PPKM3jDmNTE15CYvPgsMjkhWf+bt95EKeeeWmu7AfquCbWXk2ao0br33/r9dGFxCgTm5qINtEwqY2anaJJWq0giybPkSbhlOgxPPeHe4TFWnYZHAalBlGiLEsuOnzUrI9G6fLSyNby3WxpwkvSqD3jEkSz5LgmW04UkUGTT+4bVt1/wY9LeiM8eyfO3jeNqB6rXQXHZUlpl9lZTJmhNqpna/pOtjQJly6CcSW+uJGosy2FOw06rm0HRTdRX7NhTJPW5TYPn1ciZ7vlEpSFKP/c86SuziN1qcwXMwzuG/f8h8ql4X3KRX3ZRivNKOnPK03/bufZ0kQUZjnxRbCEJpUZf0lNsgGIafIez+nTc3s2aITLYqFBcnZkCQfiAw2TKOWSlr8wpreYnzxeBOIcWxPXWUuSKLola9SVazNaVN2GaxL6QArl9W+ztXv11FduGH7+8247w19bv3vXRs3mSLuUDTpf1EQbrJdLE19Oulm3f+sRulMWuSZG2bqLqkyrm50LxsY/UaVFuy/pO+wCTZqjBxa8WvffD8bVJ38XhZNYFRk4CDJQ8iFEYvqWT7HB05tMgbPRdcy9fUe3rF8fSfeuf976lmX/H+8blhhMfiXsLj5/WWmXDPoOi9c3jcb76PtZm10N8BJvui+1Wm3ZTsYObri1eGpvEI87rYs0UsNC8+JSJLGNS2ayWvGlZsPYHBxW9ZRLCm96uHtvSJZhT0UF7Y/F2RDZm97ab5p3jqaJdiOyt+8n6yfGW68bfp919naMi52ODp9D4uP8MYfPUVDpHw33m+aAeS2NBRBJy7G+YbzJ+W4S9jM4kKYQpivF/It28V1wm9CC/uW2XZpgiMx5Qbe/B3sttqD4etkv7PMRlVROfVcKhUKhUCgUCoVCoVAoFAqFQqFQKBQKhUKhUCgUCoVCoVD8h/g/puPGwemz6EQAAAAASUVORK5CYII=;" vertex="1" parent="1">
          <mxGeometry x="751.99" y="300" width="75.14" height="50" as="geometry" />
        </mxCell>
        <mxCell id="Y1mZi5_KREuWDVKwzotL-104" value="" style="shape=image;verticalLabelPosition=bottom;labelBackgroundColor=default;verticalAlign=top;aspect=fixed;imageAspect=0;image=https://static.vecteezy.com/system/resources/thumbnails/019/551/585/small/api-icon-software-integration-illustration-sign-application-symbol-cloud-logo-development-sign-or-logo-vector.jpg;" vertex="1" parent="1">
          <mxGeometry x="180" y="30" width="100" height="100" as="geometry" />
        </mxCell>
        <mxCell id="Y1mZi5_KREuWDVKwzotL-108" value="" style="shape=image;verticalLabelPosition=bottom;labelBackgroundColor=default;verticalAlign=top;aspect=fixed;imageAspect=0;image=data:image/png,iVBORw0KGgoAAAANSUhEUgAAASwAAAB6CAMAAAAyA54ZAAAAyVBMVEX///8kS1onUWEvVWIlTl3l6uvV3N/6+vs7Xmvh5uglTV3K09crUV66x8sjSFgjQ1N7kptkgIsht7Xw8/RXdYC3xMlLa3dqhY6gsbdSwsGFm6SarLNfxcVxi5RdeoWvvcM3vLuCmaEuwr9PbnsljJEogIdDyMaPo6syy8jO19oVvLkjbnjJ7u6z5+ak399qyspXzMs+jZNm1NMaio8eoqRE09E+lJrW8fAbdX2K2dcma3WW39/t+/svsLGd6OdEpagnXmp85ONjvsAB7K07AAAOTklEQVR4nO2deWOiSBrGpSgUy2CkVYIa78Qj2WSc3ume9GRmene//4faAusCquAVMNNp8/wZSQE/63ivKhsNjV7/pfvrh3T69mXzQQuob5vF5oMWTK+bxWKx+qAFUcyK0lp90CrU62Gx+KAF0+thtBC0nv7pp/mx9cxZrah2H7TyRFnFsDZ3jy8vL4+Pf/i+3z6lgQsauRGrCNbm1+ujuojMT2rgy7dzPduPppjVKGbVtWJ1u3en9JXn3eZSaD1/HsWwFFbXd7sH+Lz1vFstFpdBi7EaJVitPj2AaVFWFNbicAG0nj/f6lh9AtN6/rLb7aijNDp8a535Wc+jfrvZodo3naLnN7KC0nq+u7+/f/m+WYxG765vtZrzsR+4VxbBkWx30Av3fePlT59vY1iHLCsYrdfdXbR8Wt83tJXPGlr7jlHNdh/SF1vGJvZtx/xqReoPe4GFECKEHN/corwQwu7N3NH+Q8Tq1sQKQut1t6K0uhan9Zp5UxcbZV25wWw8bxcQc65MDRDLdtfTiVeCWKfnYsQpJUQQsm+87DM9ff4lhnVQbYbV4pNC6zn3lq+rhwdKq9u1utZ3aoDcZmhRWLonYs9FCP0urWDcybuJY5ubiDsDsWehvjMY1ArXRE+KtYpwEKZwHVndjg5fBSv8dbeK9XDUavV3zk3/XsWwdr/huG8dRrcZWrmwxHeJ1+lnA8LiL4fsaROOKkCFD4VRMNSwupWsrO5/fr1PiDo/015W05tI/iP1jCK9INpAROs2opV4bQis47MZXYZiWHEDZApz0Lx1XqdSWsSKx8dZ3YoxGNG6zgiZJa6JG7juRrR++W9i5AJhRW9r8kZBsKiQHRajcqY42Ro5zvFUdHJPfoRc0bm0sKwMKwsZp1dMrruRrtm/Po6invXL76VgRc+mn7qgsOh7T4tWV89Fyj9Ei1/gb0MvWlq9cDxITfoEb9O05PROh+HXO65/x7q7C+dUQ0+n778xxcPwcXSIWP2ZeDojrOM6nfgQo2Hm7cyw4gZSkw8a5C+MW6Jcj+mql1qKHa/nJppEvRxa1q+pCf4hz6H+88sumuBXj4zVKMNKwCLzZkL7jjffTtc2QYnH1/UtBosgL9XCMFz6LjWVlM6AZjl9qzVVbobwQGtP9cO1+khoKmndpk2H6/uk6ZAffIhorVZ/XMesqKGVYSVgYf2E5HhLdWnCrub5GSxs63pNqxn66thBW81FDMNMDkFMfKO50pqrj4SW/O86o/R+BWZFaR12n/6gM9f1Y2yTZlhJWMaVPXo28bLIz14gYJlsqeZSvhzGJgj9gWBF0NrLe6vWRKWlzFvM3fnazdIqZkXbPdx36czzSB3p0SHLCgCLXqNMJZp3LYRFfSoJAq31lyisMNoWLQT7gF9NkC8ufuKOdJbWAyjN0/rf6q+//lpQR/pw+F3zMQAWXaTEHI5mmQ8BsKLpSKDQdxpf4gxyHYaj+ux6jNVxbaQFY0Wf8/OXOJ610bECwmp4ot+TzIUQWI2GoKUbyY3GUrIawFyjuEHkJtE/HUY6WlBWR1omVlBYjVC8a2aGhsFqBZgPMs11c8nqBhp1u0F0CKbbYrQWCVq7E1KtlJaJFRhWY83fNTPnwGA1PDGSs9ZaWw5zMCuKH02yf33iCQuV1ikJC0pro2cFhzXksDJMgLAaA9aCXOzlR3KMnhDNbWpnvyeeCvvaFamw3ilBotY3E1swLGHq433qEygsPpJxZo2QYzwoHywUeuJJ1q8vke5flsvlSUlWo8CwxAyN0+EHKKw2o02CVO9xbGbHERscx8nT00ZN3+/qSzDDYU0YrMxEAYUlPCs31X16omMBwhIQCVqUV42sToDFJ+jMcgiFxWcmkrqwzc0SvVFRRk+bzTlKjt4SFrMjyVVyBuEdC9v1zCyRGK2ay7P+eVgOMjVcRTGtukvZ4LCGqCosZjukLtyydjNTWTVRWrUX4P7jE3wrIGfoWI2I1qLuQis4rBs+taQNcCisptZ06BiN3ap6MrLqd8LxdEY1XYbeCbcFw+q73BhKX1nNKOUetAx5nlntcGYTmdQhaLBV3qgZHqWdEuDujpha0g4JFBb3LtE4cX/2HRgiN3XL8zOZBYzwTNw8PCLUB46hsFriVXvpj051pBNY9nwU1ju9G9QZ6GsCKC7mxB27f9q6YYLC4tO7pgfAYPUD4dOoWCZvOAr7S4IsgxCLztYBa8hLWXDasYPCEpHQJBa+bKCTamRLSYai+fhTxyM+Bh1rgDUXnVfzUhBYjowaEzVozA0HYsgu1aihrbCiM7yFbNuO61b4q7nNGmA5UywazHYsCKyhTDQng/jtK3b7zLJRt0KZdCEIB8v53qFqepMbFyNJqyKs9la+KSaaXEIhrI4v+ztGiRt1uEVamw9t0Fw+AkK9vfrV9Ie+xbIfrjMHwdJ/2pz7dlGKNDfJ2u9s11jp/yn7n8feE+bEGdQRL0Gwpvhp7x8/R7MJBsCyJokqiU7HG4Zj38VInytXJdL3c7WFvefNt721jZO1CakWuGNYVyTLIEdUdCiVNwmF/Bu3ILBIsgKH6Mo69MkEURhCsi2ki4TSZTTcfj+zSSqX4rVpIWke10oCglUookk0xIKXHOHMYOOxapIO7NeqoWA1M5u+jmJZVISFkWuyhICwsG4EcDPLqiX4blCfvyNa5625TiDXyyqwCLKXRsMAWCapbWH6FrAmwq3Nd8j2Mu1eFhaJaoO3OTZjMSxqArpjbQtvAUt0LFI0MQqfriQsbLmzbSfXYsyBhePacOxOh4a54i1gCfMkEwJIS5QYnLYa8pf1O+3CaIB+NYxbQW4wWObtIHmLOUsfzdbKg8HCQ7XEMeRuM8QL4UZpqkySqu0U7WcRqyGgyqikeG4XZPeyrnWaBc8rFiGRk1wLvkBjU6y6PokALcRVn+izdUwG37DN3QNjVaMUOLtjfrhzWvBspGcrLHRqH0MGJzrS4ivXhBlSqgJL5NcMBm918bg18OsIIL5hGpbIT+hqoJKqAktElQen/y9M7SvmwcCWkF6pEA1fcNOVCVlVgcVX0pozrIo6p92gZDyLF5ihm4L2q8BqiOLJczmHcwbLUCSdlldmGFI3HAGTVJVg8aqQ4tFeUmwxxMDo4r7MBN9QqlsK5vhKsIR5DVqsSojBgmaPmiVMh0jSWc//1ivB4iajtoa5Dr0RLGnOoVx7rhIsmac+k6XFYRXNvEylYbXWfIzkDvhqsHhg+VzGA5+zgM2XnbNk7iXfG6kGqykyCedZD4en5dqG5VbDSKJCOe9W1WDJ8vjzJPBZoRM0izspnzcURdd5lWYVYYmdKPkzY1n12SsA6wOmFZKsEzHHm72FirCkY3WeRCvrubAZnnmS5WCJ2GGOHVQRVl6BTh1iIQHY43VAqTBT+l5uTyo616E0LGHPASIcJdQBRwQaYpIuW+vA85NmT7QqLGXrTmGUvIR4jAbiSvMy87Kw5P4HU8ipMiwx1rP7gooEWRNEiUBxOTT38EpX0WzFlGIwhCrDkvYcsU8ztjy7cDe1/LrzFqn0c5SFJfI/yGAEV4clN/1i9xT7wXERGhQH9abAiICYPCsUsw0L5vgaYLVEnQEO4LRaUcgNcMKNnElyzYeWPFeiQuXfTNjx2imyBliNptz364JTiMyARNOiG28hK0hL5DArwRJhQP296oBFu6/wQ12guSW3KRZZs7Ljmo8OcuS5EtUKcMWUonV2a4ElTVP17KIcyZMiMCpcFZSOu9a/KD9eqZrpEEl4JNmt9426YMmxEi0lhUOxrZxBAoiEDWVFgj3JTibt6bF0HSO/grvDJJ1dzYPVBCtBC43zGwtlnTYs5RiKciKMgtQJhPupqFcOK4RohPj3qEuM1QWL0hKlvhi5OVVO6kl30MhOKCs2CbKn4fGI2H7bWwZiiwpdLWHVyvmw9sT8bLXBUr7+uKbrRntmpxMOlEpVuIc0VzYNRGdkugGVi5XNPNHhXrXs3RFLT7bepT5YjY66YwRHhV1hUwXm7EPfVomC1gKmZpA8A49EVcLq7aKVshZYoggru8eiRljqZg7WvSx37S+3kXp+VCieKDW3T/Il+0u1Ij8lRGLutcBSQgNlt/3CNHdTBeVR7SDbBJgsFCdofWrYfu9j/RGoGA06ymtWhSVPKUqfKFAvrIazTNffa4WRPSkR/tpP7XRxfnxoLe+i9cCSLnnaw6oZFrV6eoW4aG/rlQzZR9t+o9FM4tNJ4+OQl3Iezodls3NOIc472zuROtPJ4SWk9eWU22M3jxc1LJZVilAdbzsdBK5LF0R/PG+qHTQf1to9qvh7cgJ2qZs8P5P/PagzAd8f3tDvn2SBRQfhDk4719qgFlXmjwyWIdPUYgK2Hquv/3uJB86TM+wF8T756CxfutDHMz1x/fCc+zhZ3rBge8GPKccLlzeDY9cNBtPxPKdMvBYdfa632d5+Hp2l4+p1jGXg4E1u9t51TMnCSpsvXSwYdb7i6Z9J+5PqwC9cLF4L2CrxIT5l1X7i0s8oVsx1vi0M70IObCMVS4Kcrc78Xai/RpD8Gs/5Abeu/Jxq+QhyXiw/9upsNfnvQlGuGRt+20WR2An3Nuee/ZhiLkxRDDosKIC5BLVE0RVe5rnHWxb9x5c8YzlKPjYwLoqOKAup+wjQ96WmPNKK4NlQF73oh+Ka3F8GugC1lWwkxsG2mcTR6oxdeTxbHSfSv2v1fSW9SpAV9EKv6RxPZgungZIeQyfU0v202ibSX1Ec34pTkRZO/joX8JdZfnJ1Mr+aGKfCEn/BuHfZ85VQa+Lm/8gkyVkrL0/ONl0ZoPYq5G4vfWpPqh/O4sxaGhRGJNDUA1682uHUvcLHKpPjz1Uiyx1s9x+TlUHOfr5dxj/xO11uw07R72T/bPo/5EEq9aPdQXEAAAAASUVORK5CYII=;" vertex="1" parent="1">
          <mxGeometry x="500.82" y="-10" width="49.18" height="20" as="geometry" />
        </mxCell>
        <mxCell id="Y1mZi5_KREuWDVKwzotL-111" value="" style="endArrow=classic;html=1;rounded=0;fontFamily=Helvetica;fontSize=12;fontColor=#ffffff;exitX=0.5;exitY=0;exitDx=0;exitDy=0;entryX=-0.009;entryY=0.854;entryDx=0;entryDy=0;entryPerimeter=0;" edge="1" parent="1" source="Y1mZi5_KREuWDVKwzotL-4" target="Y1mZi5_KREuWDVKwzotL-61">
          <mxGeometry width="50" height="50" relative="1" as="geometry">
            <mxPoint x="660" y="340" as="sourcePoint" />
            <mxPoint x="710" y="290" as="targetPoint" />
            <Array as="points">
              <mxPoint x="230" y="320" />
            </Array>
          </mxGeometry>
        </mxCell>
      </root>
    </mxGraphModel>
  </diagram>
</mxfile>
